M48
;GenerationSoftware,Autodesk,EAGLE,9.6.1*%
;CreationDate,2023-08-17T19:10:20Z*%
FMAT,2
ICI,OFF
METRIC,TZ,000.000
T6C0.394
T5C0.650
T4C0.700
T3C1.000
T2C1.016
T1C2.540
%
G90
M71
T1
X1905Y508
X32258Y20828
X32258Y508
X1778Y42418
X32258Y42418
T2
X11303Y5842
X12573Y11430
X21590Y0
T3
X1270Y5080
X1270Y7620
X5080Y22860
X7620Y22860
X10160Y22860
X12700Y22860
X15240Y22860
X17780Y22860
X20320Y22860
X24130Y18415
X24130Y20955
X31750Y6350
X31750Y8890
X31750Y11430
X31750Y13970
X2540Y22860
T4
X1651Y17711
X1651Y12261
T5
X4681Y17411
X4681Y12561
T6
X24550Y7620
X14084Y7656
X2540Y30480
X17399Y5461
X11432Y12698
X26670Y20407
X17399Y19615
X14429Y11430
X12700Y13970
X22586Y11555
X7620Y34290
X19050Y41910
X22398Y12700
X15367Y762
X19050Y1107
X6350Y10160
X20320Y10160
X22807Y7370
X2540Y33020
X7620Y13970
X7620Y15240
X12338Y15602
X11341Y16599
X25708Y22492
X8890Y5080
X26162Y6985
X22860Y8890
X23370Y10920
X15240Y2540
X8890Y3810
X5080Y0
X3810Y5080
X6350Y12700
X29210Y2540
X28917Y20320
X13081Y7620
X10197Y17817
X21590Y7370
X2540Y36830
X27940Y24130
X17951Y10160
X7620Y30679
X7620Y27940
X15945Y10337
X16948Y10160
X21844Y18669
X23569Y11991
X31750Y3810
X14351Y21082
X22860Y15031
X18783Y19665
X29210Y10160
X26035Y18796
X14535Y19192
X20320Y2540
X8890Y12700
X10658Y19548
X19050Y8890
M30