G04 EAGLE Gerber RS-274X export*
G75*
%MOMM*%
%FSLAX34Y34*%
%LPD*%
%INCopper Layer 15*%
%IPPOS*%
%AMOC8*
5,1,8,0,0,1.08239X$1,22.5*%
G01*
%ADD10C,1.508000*%
%ADD11C,1.524000*%
%ADD12C,1.158000*%
%ADD13C,1.208000*%
%ADD14C,0.800100*%
%ADD15C,0.203200*%
%ADD16C,0.152400*%

G36*
X143500Y11434D02*
X143500Y11434D01*
X143530Y11432D01*
X143658Y11454D01*
X143787Y11471D01*
X143814Y11481D01*
X143843Y11486D01*
X143962Y11540D01*
X144082Y11588D01*
X144106Y11605D01*
X144133Y11617D01*
X144235Y11698D01*
X144340Y11774D01*
X144359Y11797D01*
X144382Y11816D01*
X144460Y11919D01*
X144543Y12019D01*
X144555Y12046D01*
X144573Y12070D01*
X144644Y12214D01*
X145110Y13340D01*
X146748Y14977D01*
X146821Y15072D01*
X146900Y15161D01*
X146918Y15197D01*
X146943Y15229D01*
X146990Y15338D01*
X147044Y15444D01*
X147053Y15483D01*
X147069Y15521D01*
X147088Y15638D01*
X147114Y15754D01*
X147113Y15795D01*
X147119Y15835D01*
X147108Y15953D01*
X147104Y16072D01*
X147093Y16111D01*
X147089Y16151D01*
X147049Y16264D01*
X147016Y16378D01*
X146995Y16412D01*
X146982Y16451D01*
X146915Y16549D01*
X146854Y16652D01*
X146814Y16697D01*
X146803Y16714D01*
X146788Y16727D01*
X146748Y16772D01*
X143840Y19680D01*
X142303Y23391D01*
X142303Y27409D01*
X143840Y31120D01*
X146680Y33960D01*
X150391Y35497D01*
X154409Y35497D01*
X158120Y33960D01*
X160960Y31120D01*
X162497Y27409D01*
X162497Y23391D01*
X160960Y19680D01*
X159322Y18042D01*
X159249Y17948D01*
X159170Y17859D01*
X159152Y17823D01*
X159127Y17791D01*
X159080Y17682D01*
X159026Y17576D01*
X159017Y17537D01*
X159001Y17499D01*
X158982Y17382D01*
X158956Y17266D01*
X158957Y17225D01*
X158951Y17185D01*
X158962Y17067D01*
X158966Y16948D01*
X158977Y16909D01*
X158981Y16869D01*
X159021Y16756D01*
X159054Y16642D01*
X159075Y16607D01*
X159088Y16569D01*
X159155Y16471D01*
X159216Y16368D01*
X159256Y16323D01*
X159267Y16306D01*
X159282Y16293D01*
X159322Y16247D01*
X162230Y13340D01*
X162696Y12214D01*
X162711Y12189D01*
X162720Y12161D01*
X162789Y12051D01*
X162854Y11938D01*
X162874Y11917D01*
X162890Y11892D01*
X162985Y11803D01*
X163075Y11710D01*
X163100Y11694D01*
X163122Y11674D01*
X163235Y11611D01*
X163346Y11543D01*
X163374Y11535D01*
X163400Y11520D01*
X163526Y11488D01*
X163650Y11450D01*
X163680Y11448D01*
X163708Y11441D01*
X163869Y11431D01*
X179134Y11431D01*
X179252Y11446D01*
X179370Y11453D01*
X179409Y11466D01*
X179449Y11471D01*
X179560Y11514D01*
X179673Y11551D01*
X179707Y11573D01*
X179745Y11588D01*
X179841Y11657D01*
X179942Y11721D01*
X179969Y11751D01*
X180002Y11774D01*
X180078Y11866D01*
X180160Y11953D01*
X180179Y11988D01*
X180205Y12019D01*
X180256Y12127D01*
X180313Y12231D01*
X180323Y12271D01*
X180340Y12307D01*
X180363Y12424D01*
X180393Y12539D01*
X180396Y12599D01*
X180400Y12619D01*
X180399Y12640D01*
X180403Y12700D01*
X180403Y13074D01*
X181940Y16785D01*
X184780Y19626D01*
X188491Y21163D01*
X192509Y21163D01*
X196220Y19626D01*
X199060Y16785D01*
X200597Y13074D01*
X200597Y12700D01*
X200612Y12582D01*
X200620Y12463D01*
X200632Y12425D01*
X200637Y12384D01*
X200681Y12274D01*
X200718Y12161D01*
X200739Y12126D01*
X200754Y12089D01*
X200824Y11993D01*
X200888Y11892D01*
X200917Y11864D01*
X200941Y11831D01*
X201033Y11755D01*
X201119Y11674D01*
X201155Y11654D01*
X201186Y11629D01*
X201294Y11578D01*
X201398Y11520D01*
X201437Y11510D01*
X201474Y11493D01*
X201590Y11471D01*
X201706Y11441D01*
X201766Y11437D01*
X201786Y11433D01*
X201806Y11435D01*
X201866Y11431D01*
X207407Y11431D01*
X207507Y11443D01*
X207608Y11447D01*
X207664Y11463D01*
X207722Y11471D01*
X207752Y11482D01*
X207888Y11529D01*
X207913Y11536D01*
X207927Y11544D01*
X213172Y13717D01*
X218628Y13717D01*
X223903Y11532D01*
X223905Y11531D01*
X223925Y11520D01*
X223983Y11505D01*
X224039Y11481D01*
X224137Y11466D01*
X224233Y11441D01*
X224333Y11435D01*
X224353Y11431D01*
X224365Y11433D01*
X224393Y11431D01*
X304017Y11431D01*
X304046Y11434D01*
X304076Y11432D01*
X304204Y11454D01*
X304333Y11471D01*
X304360Y11481D01*
X304389Y11487D01*
X304508Y11540D01*
X304628Y11588D01*
X304652Y11605D01*
X304679Y11617D01*
X304780Y11698D01*
X304886Y11774D01*
X304904Y11797D01*
X304927Y11816D01*
X305005Y11919D01*
X305088Y12019D01*
X305101Y12046D01*
X305119Y12070D01*
X305190Y12214D01*
X306645Y15727D01*
X311933Y21015D01*
X318841Y23877D01*
X326319Y23877D01*
X329714Y22470D01*
X329762Y22457D01*
X329807Y22436D01*
X329915Y22415D01*
X330021Y22386D01*
X330071Y22386D01*
X330120Y22376D01*
X330229Y22383D01*
X330339Y22381D01*
X330387Y22393D01*
X330437Y22396D01*
X330541Y22430D01*
X330648Y22455D01*
X330692Y22479D01*
X330739Y22494D01*
X330832Y22553D01*
X330929Y22604D01*
X330966Y22638D01*
X331008Y22664D01*
X331083Y22744D01*
X331165Y22818D01*
X331192Y22860D01*
X331226Y22896D01*
X331279Y22992D01*
X331339Y23084D01*
X331356Y23131D01*
X331380Y23174D01*
X331407Y23281D01*
X331443Y23385D01*
X331447Y23434D01*
X331459Y23482D01*
X331469Y23643D01*
X331469Y55209D01*
X331461Y55279D01*
X331462Y55348D01*
X331441Y55436D01*
X331429Y55525D01*
X331404Y55590D01*
X331387Y55658D01*
X331345Y55737D01*
X331312Y55821D01*
X331271Y55877D01*
X331239Y55939D01*
X331178Y56005D01*
X331126Y56078D01*
X331072Y56122D01*
X331025Y56174D01*
X330950Y56223D01*
X330881Y56281D01*
X330817Y56310D01*
X330759Y56349D01*
X330674Y56378D01*
X330593Y56416D01*
X330525Y56429D01*
X330458Y56452D01*
X330369Y56459D01*
X330281Y56476D01*
X330211Y56472D01*
X330141Y56477D01*
X330053Y56462D01*
X329963Y56456D01*
X329897Y56435D01*
X329828Y56423D01*
X329746Y56386D01*
X329661Y56358D01*
X329602Y56321D01*
X329538Y56292D01*
X329468Y56236D01*
X329392Y56188D01*
X329344Y56137D01*
X329290Y56094D01*
X329236Y56022D01*
X329174Y55956D01*
X329140Y55895D01*
X329098Y55840D01*
X329073Y55787D01*
X325225Y51939D01*
X320680Y50057D01*
X320560Y49988D01*
X320437Y49923D01*
X320422Y49910D01*
X320404Y49900D01*
X320304Y49803D01*
X320201Y49709D01*
X320190Y49692D01*
X320176Y49678D01*
X320103Y49560D01*
X320027Y49444D01*
X320020Y49424D01*
X320009Y49407D01*
X319969Y49275D01*
X319923Y49143D01*
X319922Y49123D01*
X319916Y49103D01*
X319909Y48965D01*
X319898Y48826D01*
X319902Y48806D01*
X319901Y48786D01*
X319929Y48650D01*
X319953Y48512D01*
X319961Y48494D01*
X319965Y48474D01*
X320026Y48349D01*
X320083Y48222D01*
X320096Y48207D01*
X320105Y48188D01*
X320195Y48082D01*
X320282Y47974D01*
X320298Y47962D01*
X320311Y47946D01*
X320425Y47866D01*
X320536Y47783D01*
X320561Y47770D01*
X320571Y47763D01*
X320590Y47756D01*
X320680Y47712D01*
X323220Y46660D01*
X326060Y43820D01*
X327597Y40109D01*
X327597Y36091D01*
X326060Y32380D01*
X323220Y29540D01*
X319509Y28003D01*
X315491Y28003D01*
X311780Y29540D01*
X308940Y32380D01*
X307403Y36091D01*
X307403Y40109D01*
X308940Y43820D01*
X311780Y46660D01*
X314320Y47712D01*
X314440Y47781D01*
X314563Y47846D01*
X314578Y47859D01*
X314596Y47869D01*
X314696Y47966D01*
X314799Y48060D01*
X314810Y48076D01*
X314824Y48091D01*
X314897Y48209D01*
X314973Y48325D01*
X314980Y48345D01*
X314991Y48362D01*
X315031Y48494D01*
X315077Y48626D01*
X315078Y48646D01*
X315084Y48666D01*
X315091Y48804D01*
X315102Y48943D01*
X315098Y48963D01*
X315099Y48983D01*
X315071Y49119D01*
X315047Y49257D01*
X315039Y49275D01*
X315035Y49295D01*
X314974Y49420D01*
X314917Y49546D01*
X314904Y49562D01*
X314895Y49581D01*
X314805Y49687D01*
X314718Y49795D01*
X314702Y49807D01*
X314689Y49823D01*
X314575Y49903D01*
X314464Y49986D01*
X314439Y49999D01*
X314429Y50006D01*
X314410Y50013D01*
X314320Y50057D01*
X309775Y51939D01*
X305939Y55775D01*
X303863Y60787D01*
X303863Y66213D01*
X305939Y71225D01*
X309805Y75090D01*
X309816Y75096D01*
X309939Y75161D01*
X309954Y75175D01*
X309971Y75185D01*
X310071Y75281D01*
X310174Y75375D01*
X310185Y75392D01*
X310200Y75406D01*
X310272Y75525D01*
X310349Y75641D01*
X310355Y75660D01*
X310366Y75677D01*
X310407Y75810D01*
X310452Y75942D01*
X310454Y75962D01*
X310460Y75981D01*
X310466Y76119D01*
X310477Y76259D01*
X310474Y76279D01*
X310475Y76299D01*
X310447Y76435D01*
X310423Y76572D01*
X310415Y76590D01*
X310410Y76610D01*
X310349Y76735D01*
X310292Y76862D01*
X310280Y76878D01*
X310271Y76896D01*
X310180Y77002D01*
X310094Y77110D01*
X310078Y77123D01*
X310064Y77138D01*
X309951Y77218D01*
X309840Y77302D01*
X309814Y77314D01*
X309804Y77321D01*
X309787Y77328D01*
X305939Y81175D01*
X303863Y86187D01*
X303863Y91613D01*
X305939Y96625D01*
X309775Y100461D01*
X314376Y102366D01*
X314402Y102381D01*
X314430Y102390D01*
X314539Y102459D01*
X314652Y102524D01*
X314674Y102545D01*
X314699Y102561D01*
X314787Y102655D01*
X314881Y102745D01*
X314896Y102771D01*
X314917Y102792D01*
X314979Y102906D01*
X315047Y103016D01*
X315056Y103045D01*
X315070Y103071D01*
X315102Y103196D01*
X315140Y103320D01*
X315142Y103350D01*
X315149Y103379D01*
X315149Y103509D01*
X315155Y103638D01*
X315149Y103667D01*
X315149Y103697D01*
X315117Y103823D01*
X315091Y103949D01*
X315078Y103976D01*
X315071Y104005D01*
X315008Y104118D01*
X314951Y104235D01*
X314932Y104258D01*
X314918Y104284D01*
X314829Y104378D01*
X314745Y104477D01*
X314721Y104494D01*
X314700Y104516D01*
X314591Y104585D01*
X314485Y104660D01*
X314457Y104671D01*
X314432Y104687D01*
X314282Y104746D01*
X313630Y104958D01*
X312217Y105678D01*
X310933Y106611D01*
X309811Y107733D01*
X308878Y109017D01*
X308158Y110430D01*
X307713Y111801D01*
X316270Y111801D01*
X316388Y111816D01*
X316507Y111823D01*
X316545Y111835D01*
X316585Y111841D01*
X316696Y111884D01*
X316809Y111921D01*
X316843Y111943D01*
X316881Y111958D01*
X316977Y112027D01*
X317078Y112091D01*
X317106Y112121D01*
X317138Y112144D01*
X317214Y112236D01*
X317296Y112323D01*
X317315Y112358D01*
X317341Y112389D01*
X317392Y112497D01*
X317449Y112601D01*
X317459Y112641D01*
X317477Y112677D01*
X317497Y112784D01*
X317501Y112754D01*
X317545Y112644D01*
X317581Y112531D01*
X317603Y112496D01*
X317618Y112459D01*
X317688Y112362D01*
X317751Y112262D01*
X317781Y112234D01*
X317805Y112201D01*
X317896Y112125D01*
X317983Y112044D01*
X318018Y112024D01*
X318050Y111999D01*
X318157Y111948D01*
X318262Y111890D01*
X318301Y111880D01*
X318337Y111863D01*
X318454Y111841D01*
X318570Y111811D01*
X318630Y111807D01*
X318650Y111803D01*
X318670Y111805D01*
X318730Y111801D01*
X327287Y111801D01*
X326842Y110430D01*
X326122Y109017D01*
X325189Y107733D01*
X324067Y106611D01*
X322783Y105678D01*
X321370Y104958D01*
X320718Y104746D01*
X320691Y104733D01*
X320662Y104726D01*
X320547Y104666D01*
X320430Y104611D01*
X320407Y104592D01*
X320381Y104578D01*
X320285Y104491D01*
X320185Y104408D01*
X320167Y104384D01*
X320145Y104364D01*
X320074Y104255D01*
X319998Y104151D01*
X319987Y104123D01*
X319970Y104098D01*
X319928Y103975D01*
X319881Y103855D01*
X319877Y103825D01*
X319867Y103797D01*
X319857Y103668D01*
X319841Y103539D01*
X319844Y103510D01*
X319842Y103480D01*
X319864Y103352D01*
X319880Y103224D01*
X319891Y103196D01*
X319896Y103167D01*
X319950Y103048D01*
X319997Y102928D01*
X320015Y102904D01*
X320027Y102877D01*
X320108Y102775D01*
X320184Y102671D01*
X320207Y102652D01*
X320226Y102628D01*
X320329Y102551D01*
X320429Y102468D01*
X320456Y102455D01*
X320480Y102437D01*
X320624Y102366D01*
X325225Y100461D01*
X329076Y96610D01*
X329088Y96579D01*
X329140Y96507D01*
X329185Y96429D01*
X329233Y96379D01*
X329274Y96322D01*
X329344Y96265D01*
X329406Y96200D01*
X329466Y96164D01*
X329519Y96119D01*
X329601Y96081D01*
X329677Y96034D01*
X329744Y96013D01*
X329807Y95984D01*
X329895Y95967D01*
X329981Y95940D01*
X330051Y95937D01*
X330120Y95924D01*
X330209Y95930D01*
X330299Y95925D01*
X330367Y95939D01*
X330437Y95944D01*
X330522Y95971D01*
X330610Y95990D01*
X330673Y96020D01*
X330739Y96042D01*
X330815Y96090D01*
X330896Y96129D01*
X330949Y96175D01*
X331008Y96212D01*
X331070Y96277D01*
X331138Y96336D01*
X331178Y96393D01*
X331226Y96444D01*
X331269Y96522D01*
X331321Y96596D01*
X331346Y96661D01*
X331380Y96722D01*
X331402Y96809D01*
X331434Y96893D01*
X331442Y96962D01*
X331459Y97030D01*
X331469Y97191D01*
X331469Y131409D01*
X331461Y131479D01*
X331462Y131548D01*
X331441Y131636D01*
X331429Y131725D01*
X331404Y131790D01*
X331387Y131858D01*
X331345Y131937D01*
X331312Y132021D01*
X331271Y132077D01*
X331239Y132139D01*
X331178Y132205D01*
X331126Y132278D01*
X331072Y132323D01*
X331025Y132374D01*
X330950Y132423D01*
X330881Y132481D01*
X330817Y132511D01*
X330759Y132549D01*
X330674Y132578D01*
X330593Y132616D01*
X330524Y132629D01*
X330458Y132652D01*
X330369Y132659D01*
X330281Y132676D01*
X330211Y132672D01*
X330141Y132677D01*
X330053Y132662D01*
X329963Y132656D01*
X329897Y132635D01*
X329828Y132623D01*
X329746Y132586D01*
X329661Y132558D01*
X329602Y132521D01*
X329538Y132492D01*
X329468Y132436D01*
X329392Y132388D01*
X329344Y132337D01*
X329290Y132294D01*
X329236Y132222D01*
X329174Y132156D01*
X329140Y132095D01*
X329098Y132040D01*
X329073Y131987D01*
X325225Y128139D01*
X320624Y126234D01*
X320598Y126219D01*
X320570Y126210D01*
X320460Y126140D01*
X320348Y126076D01*
X320326Y126055D01*
X320301Y126039D01*
X320213Y125945D01*
X320120Y125855D01*
X320104Y125830D01*
X320083Y125808D01*
X320021Y125694D01*
X319953Y125584D01*
X319944Y125555D01*
X319930Y125529D01*
X319898Y125404D01*
X319860Y125280D01*
X319858Y125250D01*
X319851Y125221D01*
X319851Y125091D01*
X319845Y124962D01*
X319851Y124933D01*
X319851Y124903D01*
X319883Y124778D01*
X319909Y124651D01*
X319922Y124624D01*
X319929Y124595D01*
X319991Y124482D01*
X320049Y124365D01*
X320068Y124342D01*
X320082Y124316D01*
X320171Y124222D01*
X320255Y124123D01*
X320279Y124106D01*
X320300Y124084D01*
X320409Y124015D01*
X320515Y123940D01*
X320543Y123929D01*
X320568Y123913D01*
X320718Y123854D01*
X321370Y123642D01*
X322783Y122922D01*
X324067Y121989D01*
X325189Y120867D01*
X326122Y119583D01*
X326842Y118170D01*
X327287Y116799D01*
X318730Y116799D01*
X318612Y116784D01*
X318493Y116777D01*
X318455Y116764D01*
X318415Y116759D01*
X318304Y116716D01*
X318191Y116679D01*
X318157Y116657D01*
X318119Y116642D01*
X318023Y116573D01*
X317922Y116509D01*
X317894Y116479D01*
X317862Y116456D01*
X317786Y116364D01*
X317704Y116277D01*
X317685Y116242D01*
X317659Y116211D01*
X317608Y116103D01*
X317551Y115999D01*
X317541Y115959D01*
X317523Y115923D01*
X317503Y115816D01*
X317499Y115846D01*
X317455Y115956D01*
X317419Y116069D01*
X317397Y116104D01*
X317382Y116141D01*
X317312Y116237D01*
X317249Y116338D01*
X317219Y116366D01*
X317195Y116399D01*
X317104Y116475D01*
X317017Y116556D01*
X316982Y116576D01*
X316950Y116601D01*
X316843Y116652D01*
X316738Y116710D01*
X316699Y116720D01*
X316663Y116737D01*
X316546Y116759D01*
X316430Y116789D01*
X316370Y116793D01*
X316350Y116797D01*
X316330Y116795D01*
X316270Y116799D01*
X307713Y116799D01*
X308158Y118170D01*
X308878Y119583D01*
X309811Y120867D01*
X310933Y121989D01*
X312217Y122922D01*
X313630Y123642D01*
X314282Y123854D01*
X314309Y123867D01*
X314338Y123874D01*
X314453Y123934D01*
X314570Y123989D01*
X314593Y124008D01*
X314619Y124022D01*
X314715Y124109D01*
X314815Y124192D01*
X314833Y124216D01*
X314855Y124236D01*
X314926Y124345D01*
X315002Y124449D01*
X315013Y124477D01*
X315030Y124502D01*
X315072Y124625D01*
X315119Y124745D01*
X315123Y124775D01*
X315133Y124803D01*
X315143Y124932D01*
X315159Y125061D01*
X315156Y125090D01*
X315158Y125120D01*
X315136Y125248D01*
X315120Y125376D01*
X315109Y125404D01*
X315104Y125433D01*
X315050Y125552D01*
X315003Y125672D01*
X314985Y125696D01*
X314973Y125723D01*
X314892Y125824D01*
X314816Y125929D01*
X314793Y125948D01*
X314774Y125972D01*
X314671Y126049D01*
X314571Y126132D01*
X314544Y126145D01*
X314520Y126163D01*
X314376Y126234D01*
X309775Y128139D01*
X305939Y131975D01*
X303863Y136987D01*
X303863Y142413D01*
X305939Y147425D01*
X309775Y151261D01*
X314787Y153337D01*
X320213Y153337D01*
X325225Y151261D01*
X329076Y147410D01*
X329088Y147379D01*
X329140Y147307D01*
X329185Y147229D01*
X329233Y147179D01*
X329274Y147122D01*
X329344Y147065D01*
X329406Y147000D01*
X329466Y146964D01*
X329519Y146919D01*
X329601Y146881D01*
X329677Y146834D01*
X329744Y146813D01*
X329807Y146784D01*
X329895Y146767D01*
X329981Y146740D01*
X330051Y146737D01*
X330120Y146724D01*
X330209Y146730D01*
X330299Y146725D01*
X330367Y146739D01*
X330437Y146744D01*
X330522Y146771D01*
X330610Y146790D01*
X330673Y146820D01*
X330739Y146842D01*
X330815Y146890D01*
X330896Y146929D01*
X330949Y146974D01*
X331008Y147012D01*
X331070Y147077D01*
X331138Y147136D01*
X331178Y147193D01*
X331226Y147244D01*
X331269Y147322D01*
X331321Y147396D01*
X331346Y147461D01*
X331380Y147522D01*
X331402Y147609D01*
X331434Y147693D01*
X331442Y147762D01*
X331459Y147830D01*
X331469Y147991D01*
X331469Y189717D01*
X331463Y189766D01*
X331465Y189816D01*
X331443Y189923D01*
X331429Y190033D01*
X331411Y190079D01*
X331401Y190127D01*
X331353Y190226D01*
X331312Y190328D01*
X331283Y190368D01*
X331261Y190413D01*
X331190Y190497D01*
X331126Y190586D01*
X331087Y190617D01*
X331055Y190655D01*
X330965Y190718D01*
X330881Y190788D01*
X330836Y190810D01*
X330795Y190838D01*
X330692Y190877D01*
X330593Y190924D01*
X330544Y190933D01*
X330498Y190951D01*
X330388Y190963D01*
X330281Y190984D01*
X330231Y190981D01*
X330182Y190986D01*
X330073Y190971D01*
X329963Y190964D01*
X329916Y190949D01*
X329867Y190942D01*
X329714Y190890D01*
X326319Y189483D01*
X318841Y189483D01*
X311933Y192345D01*
X306645Y197633D01*
X303783Y204541D01*
X303783Y212019D01*
X306645Y218927D01*
X311933Y224215D01*
X318841Y227077D01*
X326319Y227077D01*
X329714Y225670D01*
X329762Y225657D01*
X329807Y225636D01*
X329915Y225615D01*
X330021Y225586D01*
X330071Y225586D01*
X330120Y225576D01*
X330229Y225583D01*
X330339Y225581D01*
X330387Y225593D01*
X330437Y225596D01*
X330541Y225630D01*
X330648Y225655D01*
X330692Y225679D01*
X330739Y225694D01*
X330832Y225753D01*
X330929Y225804D01*
X330966Y225838D01*
X331008Y225864D01*
X331083Y225944D01*
X331165Y226018D01*
X331192Y226060D01*
X331226Y226096D01*
X331279Y226192D01*
X331339Y226284D01*
X331356Y226331D01*
X331380Y226374D01*
X331407Y226481D01*
X331443Y226585D01*
X331447Y226634D01*
X331459Y226682D01*
X331469Y226843D01*
X331469Y254000D01*
X331454Y254118D01*
X331447Y254237D01*
X331434Y254275D01*
X331429Y254316D01*
X331386Y254426D01*
X331349Y254539D01*
X331327Y254574D01*
X331312Y254611D01*
X331243Y254707D01*
X331179Y254808D01*
X331149Y254836D01*
X331126Y254869D01*
X331034Y254945D01*
X330947Y255026D01*
X330912Y255046D01*
X330881Y255071D01*
X330773Y255122D01*
X330669Y255180D01*
X330629Y255190D01*
X330593Y255207D01*
X330476Y255229D01*
X330361Y255259D01*
X330301Y255263D01*
X330281Y255267D01*
X330260Y255265D01*
X330200Y255269D01*
X7493Y255269D01*
X7375Y255254D01*
X7256Y255247D01*
X7218Y255234D01*
X7177Y255229D01*
X7067Y255186D01*
X6954Y255149D01*
X6919Y255127D01*
X6882Y255112D01*
X6786Y255042D01*
X6685Y254979D01*
X6657Y254949D01*
X6624Y254926D01*
X6548Y254834D01*
X6467Y254747D01*
X6447Y254712D01*
X6422Y254681D01*
X6371Y254573D01*
X6313Y254469D01*
X6303Y254429D01*
X6286Y254393D01*
X6264Y254276D01*
X6234Y254161D01*
X6230Y254100D01*
X6226Y254080D01*
X6228Y254060D01*
X6224Y254000D01*
X6224Y187052D01*
X6241Y186914D01*
X6254Y186776D01*
X6261Y186757D01*
X6264Y186736D01*
X6315Y186607D01*
X6362Y186476D01*
X6373Y186459D01*
X6381Y186441D01*
X6462Y186328D01*
X6540Y186213D01*
X6556Y186200D01*
X6567Y186183D01*
X6675Y186095D01*
X6779Y186003D01*
X6797Y185993D01*
X6812Y185981D01*
X6938Y185921D01*
X7062Y185858D01*
X7082Y185854D01*
X7100Y185845D01*
X7237Y185819D01*
X7372Y185788D01*
X7393Y185789D01*
X7412Y185785D01*
X7551Y185794D01*
X7690Y185798D01*
X7710Y185804D01*
X7730Y185805D01*
X7862Y185848D01*
X7996Y185886D01*
X8013Y185897D01*
X8032Y185903D01*
X8150Y185977D01*
X8270Y186048D01*
X8291Y186067D01*
X8301Y186073D01*
X8315Y186088D01*
X8390Y186154D01*
X9635Y187399D01*
X14096Y189247D01*
X18924Y189247D01*
X23385Y187399D01*
X26799Y183985D01*
X28647Y179524D01*
X28647Y174696D01*
X26799Y170235D01*
X23385Y166821D01*
X18924Y164973D01*
X14096Y164973D01*
X9635Y166821D01*
X8390Y168066D01*
X8281Y168151D01*
X8174Y168239D01*
X8155Y168248D01*
X8139Y168261D01*
X8012Y168316D01*
X7886Y168375D01*
X7866Y168379D01*
X7847Y168387D01*
X7709Y168409D01*
X7573Y168435D01*
X7553Y168434D01*
X7533Y168437D01*
X7394Y168424D01*
X7256Y168415D01*
X7237Y168409D01*
X7217Y168407D01*
X7085Y168360D01*
X6954Y168317D01*
X6936Y168306D01*
X6917Y168299D01*
X6802Y168221D01*
X6685Y168147D01*
X6671Y168132D01*
X6654Y168121D01*
X6562Y168016D01*
X6467Y167915D01*
X6457Y167898D01*
X6444Y167882D01*
X6380Y167758D01*
X6313Y167637D01*
X6308Y167617D01*
X6299Y167599D01*
X6269Y167463D01*
X6234Y167329D01*
X6232Y167301D01*
X6229Y167289D01*
X6230Y167268D01*
X6224Y167168D01*
X6224Y132552D01*
X6241Y132414D01*
X6254Y132276D01*
X6261Y132257D01*
X6264Y132236D01*
X6315Y132107D01*
X6362Y131976D01*
X6373Y131959D01*
X6381Y131941D01*
X6462Y131828D01*
X6540Y131713D01*
X6556Y131700D01*
X6567Y131683D01*
X6675Y131595D01*
X6779Y131503D01*
X6797Y131493D01*
X6812Y131481D01*
X6938Y131421D01*
X7062Y131358D01*
X7082Y131354D01*
X7100Y131345D01*
X7237Y131319D01*
X7372Y131288D01*
X7393Y131289D01*
X7412Y131285D01*
X7551Y131294D01*
X7690Y131298D01*
X7710Y131304D01*
X7730Y131305D01*
X7862Y131348D01*
X7996Y131386D01*
X8013Y131397D01*
X8032Y131403D01*
X8150Y131477D01*
X8270Y131548D01*
X8291Y131567D01*
X8301Y131573D01*
X8315Y131588D01*
X8390Y131654D01*
X9635Y132899D01*
X14096Y134747D01*
X18924Y134747D01*
X23385Y132899D01*
X26799Y129485D01*
X28647Y125024D01*
X28647Y120196D01*
X26799Y115735D01*
X23385Y112321D01*
X18924Y110473D01*
X14096Y110473D01*
X9635Y112321D01*
X8390Y113566D01*
X8281Y113651D01*
X8174Y113739D01*
X8155Y113748D01*
X8139Y113761D01*
X8012Y113816D01*
X7886Y113875D01*
X7866Y113879D01*
X7847Y113887D01*
X7709Y113909D01*
X7573Y113935D01*
X7553Y113934D01*
X7533Y113937D01*
X7394Y113924D01*
X7256Y113915D01*
X7237Y113909D01*
X7217Y113907D01*
X7085Y113860D01*
X6954Y113817D01*
X6936Y113806D01*
X6917Y113799D01*
X6802Y113721D01*
X6685Y113647D01*
X6671Y113632D01*
X6654Y113621D01*
X6562Y113516D01*
X6467Y113415D01*
X6457Y113398D01*
X6444Y113382D01*
X6380Y113258D01*
X6313Y113137D01*
X6308Y113117D01*
X6299Y113099D01*
X6269Y112963D01*
X6234Y112829D01*
X6232Y112801D01*
X6229Y112789D01*
X6230Y112768D01*
X6224Y112668D01*
X6224Y90177D01*
X6230Y90128D01*
X6228Y90078D01*
X6250Y89971D01*
X6264Y89862D01*
X6282Y89815D01*
X6292Y89767D01*
X6340Y89668D01*
X6381Y89566D01*
X6410Y89526D01*
X6432Y89481D01*
X6503Y89398D01*
X6567Y89309D01*
X6606Y89277D01*
X6638Y89239D01*
X6728Y89176D01*
X6812Y89106D01*
X6857Y89085D01*
X6898Y89056D01*
X7001Y89017D01*
X7100Y88970D01*
X7149Y88961D01*
X7195Y88943D01*
X7305Y88931D01*
X7412Y88911D01*
X7462Y88914D01*
X7511Y88908D01*
X7620Y88924D01*
X7730Y88930D01*
X7777Y88946D01*
X7826Y88953D01*
X7979Y89005D01*
X9988Y89837D01*
X15413Y89837D01*
X20425Y87761D01*
X24261Y83925D01*
X26337Y78913D01*
X26337Y73487D01*
X24261Y68475D01*
X20395Y64610D01*
X20384Y64604D01*
X20261Y64539D01*
X20246Y64525D01*
X20229Y64515D01*
X20129Y64418D01*
X20026Y64325D01*
X20015Y64308D01*
X20000Y64294D01*
X19928Y64175D01*
X19851Y64059D01*
X19845Y64040D01*
X19834Y64023D01*
X19793Y63890D01*
X19748Y63758D01*
X19746Y63738D01*
X19740Y63719D01*
X19734Y63580D01*
X19723Y63441D01*
X19726Y63421D01*
X19725Y63401D01*
X19753Y63264D01*
X19777Y63128D01*
X19785Y63109D01*
X19790Y63090D01*
X19851Y62965D01*
X19908Y62838D01*
X19920Y62822D01*
X19929Y62804D01*
X20020Y62698D01*
X20106Y62589D01*
X20123Y62577D01*
X20136Y62562D01*
X20249Y62482D01*
X20361Y62398D01*
X20386Y62386D01*
X20396Y62379D01*
X20413Y62372D01*
X24261Y58525D01*
X26143Y53980D01*
X26212Y53859D01*
X26277Y53737D01*
X26290Y53722D01*
X26300Y53704D01*
X26397Y53604D01*
X26491Y53501D01*
X26508Y53490D01*
X26522Y53476D01*
X26640Y53403D01*
X26756Y53327D01*
X26776Y53320D01*
X26793Y53309D01*
X26925Y53269D01*
X27057Y53223D01*
X27077Y53222D01*
X27097Y53216D01*
X27235Y53209D01*
X27374Y53198D01*
X27394Y53202D01*
X27414Y53201D01*
X27550Y53229D01*
X27688Y53253D01*
X27706Y53261D01*
X27726Y53265D01*
X27851Y53326D01*
X27978Y53383D01*
X27993Y53396D01*
X28012Y53405D01*
X28118Y53495D01*
X28226Y53582D01*
X28238Y53598D01*
X28254Y53611D01*
X28334Y53725D01*
X28417Y53836D01*
X28430Y53861D01*
X28437Y53871D01*
X28444Y53890D01*
X28488Y53980D01*
X29540Y56520D01*
X32380Y59360D01*
X36091Y60897D01*
X40109Y60897D01*
X43820Y59360D01*
X46660Y56520D01*
X48197Y52809D01*
X48197Y48791D01*
X46660Y45080D01*
X43820Y42240D01*
X40109Y40703D01*
X36091Y40703D01*
X32380Y42240D01*
X29540Y45080D01*
X28488Y47620D01*
X28419Y47740D01*
X28354Y47863D01*
X28341Y47878D01*
X28331Y47896D01*
X28234Y47996D01*
X28140Y48099D01*
X28123Y48110D01*
X28109Y48124D01*
X27991Y48197D01*
X27875Y48273D01*
X27855Y48280D01*
X27838Y48291D01*
X27706Y48331D01*
X27574Y48377D01*
X27554Y48378D01*
X27534Y48384D01*
X27396Y48391D01*
X27257Y48402D01*
X27237Y48398D01*
X27217Y48399D01*
X27081Y48371D01*
X26943Y48347D01*
X26925Y48339D01*
X26905Y48335D01*
X26780Y48274D01*
X26654Y48217D01*
X26638Y48204D01*
X26619Y48195D01*
X26513Y48105D01*
X26405Y48018D01*
X26393Y48002D01*
X26377Y47989D01*
X26297Y47875D01*
X26214Y47764D01*
X26201Y47739D01*
X26194Y47729D01*
X26187Y47710D01*
X26143Y47620D01*
X24261Y43075D01*
X20425Y39239D01*
X15413Y37163D01*
X9988Y37163D01*
X7979Y37995D01*
X7931Y38009D01*
X7886Y38030D01*
X7778Y38050D01*
X7672Y38079D01*
X7622Y38080D01*
X7573Y38089D01*
X7502Y38085D01*
X7493Y38085D01*
X7484Y38084D01*
X7464Y38083D01*
X7354Y38084D01*
X7306Y38073D01*
X7256Y38070D01*
X7182Y38046D01*
X7177Y38045D01*
X7164Y38040D01*
X7152Y38036D01*
X7045Y38010D01*
X7001Y37987D01*
X6954Y37972D01*
X6890Y37931D01*
X6882Y37928D01*
X6861Y37913D01*
X6764Y37861D01*
X6727Y37828D01*
X6685Y37801D01*
X6636Y37750D01*
X6624Y37741D01*
X6603Y37716D01*
X6528Y37648D01*
X6501Y37606D01*
X6467Y37570D01*
X6436Y37514D01*
X6422Y37496D01*
X6403Y37458D01*
X6354Y37382D01*
X6337Y37335D01*
X6313Y37291D01*
X6299Y37237D01*
X6286Y37209D01*
X6276Y37156D01*
X6250Y37081D01*
X6246Y37031D01*
X6234Y36983D01*
X6229Y36913D01*
X6226Y36896D01*
X6227Y36879D01*
X6224Y36823D01*
X6224Y21901D01*
X6241Y21763D01*
X6254Y21624D01*
X6261Y21605D01*
X6264Y21585D01*
X6315Y21456D01*
X6362Y21325D01*
X6373Y21308D01*
X6381Y21289D01*
X6462Y21177D01*
X6540Y21062D01*
X6556Y21048D01*
X6567Y21032D01*
X6675Y20943D01*
X6779Y20851D01*
X6797Y20842D01*
X6812Y20829D01*
X6938Y20770D01*
X7062Y20707D01*
X7082Y20702D01*
X7100Y20694D01*
X7237Y20667D01*
X7372Y20637D01*
X7393Y20638D01*
X7412Y20634D01*
X7551Y20642D01*
X7690Y20647D01*
X7710Y20652D01*
X7730Y20654D01*
X7862Y20696D01*
X7996Y20735D01*
X8013Y20745D01*
X8032Y20752D01*
X8150Y20826D01*
X8270Y20897D01*
X8291Y20915D01*
X8301Y20922D01*
X8315Y20937D01*
X8391Y21003D01*
X8403Y21015D01*
X15311Y23877D01*
X22789Y23877D01*
X29697Y21015D01*
X34985Y15727D01*
X36440Y12214D01*
X36455Y12189D01*
X36464Y12161D01*
X36534Y12051D01*
X36598Y11938D01*
X36618Y11917D01*
X36634Y11892D01*
X36729Y11803D01*
X36819Y11710D01*
X36844Y11694D01*
X36866Y11674D01*
X36979Y11611D01*
X37090Y11543D01*
X37118Y11535D01*
X37144Y11520D01*
X37270Y11488D01*
X37394Y11450D01*
X37424Y11448D01*
X37452Y11441D01*
X37613Y11431D01*
X143471Y11431D01*
X143500Y11434D01*
G37*
%LPC*%
G36*
X213891Y63603D02*
X213891Y63603D01*
X210180Y65140D01*
X207340Y67980D01*
X205803Y71691D01*
X205803Y75709D01*
X207340Y79420D01*
X210180Y82260D01*
X213891Y83797D01*
X217885Y83797D01*
X217934Y83803D01*
X217984Y83801D01*
X218091Y83823D01*
X218200Y83837D01*
X218247Y83855D01*
X218295Y83865D01*
X218394Y83914D01*
X218496Y83954D01*
X218536Y83983D01*
X218581Y84005D01*
X218665Y84076D01*
X218753Y84141D01*
X218785Y84179D01*
X218823Y84211D01*
X218886Y84301D01*
X218956Y84386D01*
X218977Y84431D01*
X219006Y84471D01*
X219045Y84574D01*
X219092Y84674D01*
X219101Y84722D01*
X219119Y84769D01*
X219131Y84878D01*
X219152Y84986D01*
X219148Y85035D01*
X219154Y85085D01*
X219139Y85194D01*
X219132Y85303D01*
X219117Y85351D01*
X219110Y85400D01*
X219058Y85552D01*
X218503Y86891D01*
X218503Y90909D01*
X220040Y94620D01*
X222880Y97460D01*
X226606Y99003D01*
X226696Y99015D01*
X226835Y99028D01*
X226854Y99035D01*
X226874Y99037D01*
X227003Y99088D01*
X227135Y99135D01*
X227151Y99147D01*
X227170Y99154D01*
X227283Y99236D01*
X227398Y99314D01*
X227411Y99329D01*
X227427Y99341D01*
X227516Y99448D01*
X227608Y99552D01*
X227617Y99570D01*
X227630Y99586D01*
X227690Y99712D01*
X227753Y99836D01*
X227757Y99855D01*
X227766Y99874D01*
X227792Y100010D01*
X227822Y100146D01*
X227822Y100166D01*
X227826Y100186D01*
X227817Y100324D01*
X227813Y100464D01*
X227807Y100483D01*
X227806Y100503D01*
X227763Y100635D01*
X227724Y100769D01*
X227714Y100787D01*
X227708Y100806D01*
X227633Y100924D01*
X227563Y101043D01*
X227544Y101064D01*
X227538Y101075D01*
X227527Y101085D01*
X227526Y101086D01*
X227519Y101093D01*
X227456Y101164D01*
X225142Y103479D01*
X224623Y104730D01*
X224574Y104817D01*
X224533Y104907D01*
X224496Y104954D01*
X224466Y105007D01*
X224397Y105078D01*
X224335Y105155D01*
X224286Y105192D01*
X224244Y105235D01*
X224160Y105287D01*
X224081Y105346D01*
X223991Y105391D01*
X223973Y105401D01*
X223961Y105405D01*
X223936Y105417D01*
X220143Y106988D01*
X219068Y108064D01*
X218989Y108125D01*
X218917Y108193D01*
X218864Y108222D01*
X218816Y108259D01*
X218725Y108298D01*
X218639Y108346D01*
X218580Y108361D01*
X218524Y108385D01*
X218426Y108401D01*
X218331Y108426D01*
X218231Y108432D01*
X218210Y108435D01*
X218198Y108434D01*
X218170Y108436D01*
X213197Y108436D01*
X213148Y108430D01*
X213098Y108432D01*
X212991Y108410D01*
X212882Y108396D01*
X212836Y108378D01*
X212787Y108368D01*
X212688Y108319D01*
X212586Y108279D01*
X212546Y108250D01*
X212501Y108228D01*
X212418Y108157D01*
X212329Y108092D01*
X212297Y108054D01*
X212259Y108022D01*
X212196Y107932D01*
X212126Y107847D01*
X212105Y107802D01*
X212076Y107762D01*
X212037Y107659D01*
X211990Y107559D01*
X211981Y107511D01*
X211963Y107464D01*
X211951Y107355D01*
X211931Y107247D01*
X211934Y107198D01*
X211928Y107148D01*
X211944Y107039D01*
X211950Y106930D01*
X211966Y106882D01*
X211973Y106833D01*
X212025Y106681D01*
X213297Y103609D01*
X213297Y99591D01*
X211760Y95880D01*
X208920Y93040D01*
X205209Y91503D01*
X201191Y91503D01*
X197480Y93040D01*
X194640Y95880D01*
X193103Y99591D01*
X193103Y103609D01*
X194375Y106681D01*
X194388Y106729D01*
X194410Y106774D01*
X194430Y106881D01*
X194459Y106988D01*
X194460Y107037D01*
X194469Y107086D01*
X194463Y107196D01*
X194464Y107306D01*
X194453Y107354D01*
X194450Y107403D01*
X194416Y107508D01*
X194390Y107615D01*
X194367Y107659D01*
X194352Y107706D01*
X194293Y107799D01*
X194241Y107896D01*
X194208Y107933D01*
X194181Y107975D01*
X194101Y108050D01*
X194028Y108131D01*
X193986Y108159D01*
X193950Y108193D01*
X193854Y108246D01*
X193762Y108306D01*
X193715Y108322D01*
X193671Y108346D01*
X193565Y108374D01*
X193461Y108409D01*
X193411Y108413D01*
X193363Y108426D01*
X193203Y108436D01*
X189512Y108436D01*
X189462Y108430D01*
X189413Y108432D01*
X189305Y108410D01*
X189196Y108396D01*
X189150Y108378D01*
X189101Y108368D01*
X189002Y108319D01*
X188901Y108279D01*
X188860Y108250D01*
X188816Y108228D01*
X188732Y108157D01*
X188643Y108092D01*
X188611Y108054D01*
X188574Y108022D01*
X188510Y107932D01*
X188440Y107847D01*
X188419Y107802D01*
X188391Y107762D01*
X188352Y107659D01*
X188305Y107559D01*
X188296Y107511D01*
X188278Y107464D01*
X188266Y107355D01*
X188245Y107247D01*
X188248Y107198D01*
X188243Y107148D01*
X188258Y107039D01*
X188265Y106930D01*
X188280Y106882D01*
X188287Y106833D01*
X188339Y106681D01*
X189612Y103609D01*
X189612Y99591D01*
X188075Y95880D01*
X185234Y93040D01*
X181523Y91503D01*
X177506Y91503D01*
X174984Y92548D01*
X174888Y92574D01*
X174796Y92609D01*
X174735Y92616D01*
X174677Y92631D01*
X174578Y92633D01*
X174480Y92644D01*
X174420Y92636D01*
X174359Y92637D01*
X174263Y92613D01*
X174165Y92600D01*
X174070Y92567D01*
X174050Y92562D01*
X174039Y92557D01*
X174012Y92548D01*
X171490Y91503D01*
X167473Y91503D01*
X163762Y93040D01*
X163520Y93282D01*
X163497Y93300D01*
X163477Y93323D01*
X163371Y93397D01*
X163269Y93477D01*
X163242Y93489D01*
X163217Y93506D01*
X163096Y93552D01*
X162977Y93603D01*
X162948Y93608D01*
X162920Y93618D01*
X162791Y93633D01*
X162663Y93653D01*
X162633Y93650D01*
X162604Y93654D01*
X162475Y93635D01*
X162346Y93623D01*
X162318Y93613D01*
X162289Y93609D01*
X162137Y93557D01*
X161457Y93276D01*
X157440Y93276D01*
X153729Y94813D01*
X150888Y97653D01*
X149351Y101364D01*
X149351Y103569D01*
X149345Y103618D01*
X149347Y103668D01*
X149325Y103775D01*
X149311Y103884D01*
X149293Y103931D01*
X149283Y103979D01*
X149235Y104078D01*
X149194Y104180D01*
X149165Y104220D01*
X149143Y104265D01*
X149072Y104348D01*
X149008Y104437D01*
X148969Y104469D01*
X148937Y104507D01*
X148847Y104570D01*
X148763Y104640D01*
X148718Y104661D01*
X148677Y104690D01*
X148574Y104729D01*
X148475Y104776D01*
X148426Y104785D01*
X148380Y104803D01*
X148270Y104815D01*
X148163Y104835D01*
X148113Y104832D01*
X148064Y104838D01*
X147955Y104823D01*
X147845Y104816D01*
X147798Y104800D01*
X147749Y104793D01*
X147596Y104741D01*
X146296Y104203D01*
X142279Y104203D01*
X138568Y105740D01*
X138466Y105842D01*
X138372Y105915D01*
X138282Y105994D01*
X138246Y106012D01*
X138214Y106037D01*
X138105Y106084D01*
X137999Y106139D01*
X137960Y106147D01*
X137923Y106163D01*
X137805Y106182D01*
X137689Y106208D01*
X137648Y106207D01*
X137608Y106213D01*
X137490Y106202D01*
X137371Y106199D01*
X137332Y106187D01*
X137292Y106184D01*
X137180Y106143D01*
X137065Y106110D01*
X137031Y106090D01*
X136993Y106076D01*
X136894Y106009D01*
X136791Y105949D01*
X136746Y105909D01*
X136729Y105897D01*
X136716Y105882D01*
X136671Y105842D01*
X133500Y102671D01*
X128458Y100583D01*
X123002Y100583D01*
X117960Y102671D01*
X114101Y106530D01*
X112013Y111572D01*
X112013Y116161D01*
X112010Y116190D01*
X112012Y116219D01*
X111990Y116348D01*
X111973Y116476D01*
X111963Y116504D01*
X111958Y116533D01*
X111904Y116651D01*
X111856Y116772D01*
X111839Y116796D01*
X111827Y116823D01*
X111746Y116924D01*
X111670Y117029D01*
X111647Y117048D01*
X111628Y117071D01*
X111525Y117149D01*
X111425Y117232D01*
X111398Y117245D01*
X111374Y117262D01*
X111230Y117333D01*
X108596Y118424D01*
X105756Y121265D01*
X104218Y124976D01*
X104218Y128993D01*
X105756Y132704D01*
X108596Y135544D01*
X112307Y137082D01*
X115634Y137082D01*
X115752Y137097D01*
X115870Y137104D01*
X115909Y137116D01*
X115949Y137121D01*
X116060Y137165D01*
X116173Y137202D01*
X116207Y137224D01*
X116245Y137238D01*
X116341Y137308D01*
X116442Y137372D01*
X116469Y137402D01*
X116502Y137425D01*
X116578Y137517D01*
X116660Y137604D01*
X116679Y137639D01*
X116705Y137670D01*
X116756Y137778D01*
X116813Y137882D01*
X116823Y137921D01*
X116840Y137958D01*
X116863Y138075D01*
X116893Y138190D01*
X116896Y138250D01*
X116900Y138270D01*
X116900Y138274D01*
X116900Y138275D01*
X116899Y138293D01*
X116903Y138351D01*
X116903Y141709D01*
X118473Y145500D01*
X118505Y145541D01*
X118525Y145587D01*
X118552Y145628D01*
X118588Y145732D01*
X118632Y145833D01*
X118639Y145882D01*
X118656Y145929D01*
X118664Y146039D01*
X118682Y146147D01*
X118677Y146197D01*
X118681Y146246D01*
X118662Y146354D01*
X118652Y146464D01*
X118635Y146510D01*
X118626Y146560D01*
X118581Y146660D01*
X118544Y146763D01*
X118516Y146804D01*
X118496Y146850D01*
X118427Y146935D01*
X118366Y147026D01*
X118328Y147059D01*
X118297Y147098D01*
X118209Y147164D01*
X118127Y147237D01*
X118083Y147259D01*
X118043Y147289D01*
X117899Y147360D01*
X117662Y147458D01*
X114822Y150299D01*
X114514Y151041D01*
X114499Y151067D01*
X114490Y151095D01*
X114421Y151205D01*
X114357Y151318D01*
X114336Y151339D01*
X114320Y151364D01*
X114226Y151453D01*
X114135Y151546D01*
X114110Y151562D01*
X114089Y151582D01*
X113975Y151644D01*
X113864Y151712D01*
X113836Y151721D01*
X113810Y151735D01*
X113684Y151768D01*
X113560Y151806D01*
X113531Y151807D01*
X113502Y151815D01*
X113341Y151825D01*
X109079Y151825D01*
X106465Y152908D01*
X70170Y189203D01*
X69087Y191817D01*
X69087Y215938D01*
X69084Y215967D01*
X69086Y215997D01*
X69064Y216125D01*
X69047Y216253D01*
X69037Y216281D01*
X69031Y216310D01*
X68978Y216428D01*
X68930Y216549D01*
X68913Y216573D01*
X68901Y216600D01*
X68820Y216701D01*
X68744Y216806D01*
X68721Y216825D01*
X68702Y216848D01*
X68599Y216926D01*
X68539Y216976D01*
X64639Y220875D01*
X62734Y225476D01*
X62719Y225502D01*
X62710Y225530D01*
X62641Y225639D01*
X62576Y225752D01*
X62555Y225774D01*
X62539Y225799D01*
X62445Y225887D01*
X62355Y225981D01*
X62329Y225996D01*
X62308Y226017D01*
X62194Y226079D01*
X62084Y226147D01*
X62055Y226156D01*
X62029Y226170D01*
X61904Y226202D01*
X61780Y226240D01*
X61750Y226242D01*
X61721Y226249D01*
X61591Y226249D01*
X61462Y226255D01*
X61433Y226249D01*
X61403Y226249D01*
X61277Y226217D01*
X61151Y226191D01*
X61124Y226178D01*
X61095Y226171D01*
X60982Y226108D01*
X60865Y226051D01*
X60842Y226032D01*
X60816Y226018D01*
X60722Y225929D01*
X60623Y225845D01*
X60606Y225821D01*
X60584Y225800D01*
X60514Y225691D01*
X60440Y225585D01*
X60429Y225557D01*
X60413Y225532D01*
X60354Y225382D01*
X60142Y224730D01*
X59422Y223317D01*
X58489Y222033D01*
X57367Y220911D01*
X56083Y219978D01*
X54670Y219258D01*
X53299Y218813D01*
X53299Y227370D01*
X53284Y227488D01*
X53277Y227607D01*
X53264Y227645D01*
X53259Y227685D01*
X53216Y227796D01*
X53179Y227909D01*
X53157Y227943D01*
X53142Y227981D01*
X53073Y228077D01*
X53009Y228178D01*
X52979Y228206D01*
X52956Y228238D01*
X52864Y228314D01*
X52777Y228396D01*
X52742Y228415D01*
X52711Y228441D01*
X52603Y228492D01*
X52499Y228549D01*
X52459Y228559D01*
X52423Y228577D01*
X52316Y228597D01*
X52346Y228601D01*
X52456Y228645D01*
X52569Y228681D01*
X52604Y228703D01*
X52641Y228718D01*
X52737Y228788D01*
X52838Y228851D01*
X52866Y228881D01*
X52899Y228905D01*
X52975Y228996D01*
X53056Y229083D01*
X53076Y229118D01*
X53101Y229150D01*
X53152Y229257D01*
X53210Y229362D01*
X53220Y229401D01*
X53237Y229437D01*
X53259Y229554D01*
X53289Y229670D01*
X53293Y229730D01*
X53297Y229750D01*
X53295Y229770D01*
X53299Y229830D01*
X53299Y238387D01*
X54670Y237942D01*
X56083Y237222D01*
X57367Y236289D01*
X58489Y235167D01*
X59422Y233883D01*
X60142Y232470D01*
X60354Y231818D01*
X60367Y231791D01*
X60374Y231762D01*
X60434Y231647D01*
X60489Y231530D01*
X60508Y231507D01*
X60522Y231480D01*
X60609Y231385D01*
X60692Y231285D01*
X60716Y231267D01*
X60736Y231245D01*
X60845Y231174D01*
X60949Y231098D01*
X60977Y231087D01*
X61002Y231070D01*
X61125Y231028D01*
X61245Y230981D01*
X61275Y230977D01*
X61303Y230967D01*
X61432Y230957D01*
X61560Y230941D01*
X61590Y230944D01*
X61620Y230942D01*
X61748Y230964D01*
X61876Y230980D01*
X61904Y230991D01*
X61933Y230996D01*
X62051Y231050D01*
X62172Y231097D01*
X62196Y231115D01*
X62223Y231127D01*
X62324Y231208D01*
X62429Y231284D01*
X62448Y231307D01*
X62472Y231326D01*
X62550Y231429D01*
X62632Y231529D01*
X62645Y231556D01*
X62663Y231580D01*
X62734Y231724D01*
X64639Y236325D01*
X68475Y240161D01*
X73487Y242237D01*
X78913Y242237D01*
X83925Y240161D01*
X87790Y236295D01*
X87796Y236284D01*
X87861Y236161D01*
X87875Y236146D01*
X87885Y236129D01*
X87982Y236028D01*
X88075Y235926D01*
X88092Y235915D01*
X88106Y235900D01*
X88225Y235828D01*
X88341Y235751D01*
X88360Y235745D01*
X88377Y235734D01*
X88510Y235693D01*
X88642Y235648D01*
X88662Y235646D01*
X88681Y235640D01*
X88820Y235634D01*
X88959Y235623D01*
X88979Y235626D01*
X88999Y235625D01*
X89135Y235653D01*
X89272Y235677D01*
X89291Y235685D01*
X89310Y235689D01*
X89435Y235750D01*
X89562Y235808D01*
X89578Y235820D01*
X89596Y235829D01*
X89702Y235920D01*
X89810Y236006D01*
X89822Y236022D01*
X89838Y236035D01*
X89918Y236150D01*
X90002Y236260D01*
X90014Y236285D01*
X90021Y236295D01*
X90028Y236313D01*
X93875Y240161D01*
X98887Y242237D01*
X104313Y242237D01*
X109325Y240161D01*
X113190Y236295D01*
X113196Y236284D01*
X113261Y236161D01*
X113275Y236146D01*
X113285Y236129D01*
X113382Y236028D01*
X113475Y235926D01*
X113492Y235915D01*
X113506Y235900D01*
X113625Y235828D01*
X113741Y235751D01*
X113760Y235745D01*
X113777Y235734D01*
X113910Y235693D01*
X114042Y235648D01*
X114062Y235646D01*
X114081Y235640D01*
X114220Y235634D01*
X114359Y235623D01*
X114379Y235626D01*
X114399Y235625D01*
X114535Y235653D01*
X114672Y235677D01*
X114691Y235685D01*
X114710Y235689D01*
X114835Y235750D01*
X114962Y235808D01*
X114978Y235820D01*
X114996Y235829D01*
X115102Y235920D01*
X115210Y236006D01*
X115222Y236022D01*
X115238Y236035D01*
X115318Y236150D01*
X115402Y236260D01*
X115414Y236285D01*
X115421Y236295D01*
X115428Y236313D01*
X119275Y240161D01*
X124287Y242237D01*
X129713Y242237D01*
X134725Y240161D01*
X138590Y236295D01*
X138596Y236284D01*
X138661Y236161D01*
X138675Y236146D01*
X138685Y236129D01*
X138782Y236028D01*
X138875Y235926D01*
X138892Y235915D01*
X138906Y235900D01*
X139025Y235828D01*
X139141Y235751D01*
X139160Y235745D01*
X139177Y235734D01*
X139310Y235693D01*
X139442Y235648D01*
X139462Y235646D01*
X139481Y235640D01*
X139620Y235634D01*
X139759Y235623D01*
X139779Y235626D01*
X139799Y235625D01*
X139935Y235653D01*
X140072Y235677D01*
X140091Y235685D01*
X140110Y235689D01*
X140235Y235750D01*
X140362Y235808D01*
X140378Y235820D01*
X140396Y235829D01*
X140502Y235920D01*
X140610Y236006D01*
X140622Y236022D01*
X140638Y236035D01*
X140718Y236150D01*
X140802Y236260D01*
X140814Y236285D01*
X140821Y236295D01*
X140828Y236313D01*
X144675Y240161D01*
X149687Y242237D01*
X155113Y242237D01*
X160125Y240161D01*
X163990Y236295D01*
X163996Y236284D01*
X164061Y236161D01*
X164075Y236146D01*
X164085Y236129D01*
X164182Y236028D01*
X164275Y235926D01*
X164292Y235915D01*
X164306Y235900D01*
X164425Y235828D01*
X164541Y235751D01*
X164560Y235745D01*
X164577Y235734D01*
X164710Y235693D01*
X164842Y235648D01*
X164862Y235646D01*
X164881Y235640D01*
X165020Y235634D01*
X165159Y235623D01*
X165179Y235626D01*
X165199Y235625D01*
X165335Y235653D01*
X165472Y235677D01*
X165491Y235685D01*
X165510Y235689D01*
X165635Y235750D01*
X165762Y235808D01*
X165778Y235820D01*
X165796Y235829D01*
X165902Y235920D01*
X166010Y236006D01*
X166022Y236022D01*
X166038Y236035D01*
X166118Y236150D01*
X166202Y236260D01*
X166214Y236285D01*
X166221Y236295D01*
X166228Y236313D01*
X170075Y240161D01*
X175087Y242237D01*
X180513Y242237D01*
X185525Y240161D01*
X189390Y236295D01*
X189396Y236284D01*
X189461Y236161D01*
X189475Y236146D01*
X189485Y236129D01*
X189581Y236029D01*
X189675Y235926D01*
X189692Y235915D01*
X189706Y235900D01*
X189825Y235828D01*
X189941Y235751D01*
X189960Y235745D01*
X189977Y235734D01*
X190110Y235693D01*
X190242Y235648D01*
X190262Y235646D01*
X190281Y235640D01*
X190419Y235634D01*
X190559Y235623D01*
X190579Y235626D01*
X190599Y235625D01*
X190735Y235653D01*
X190872Y235677D01*
X190890Y235685D01*
X190910Y235690D01*
X191035Y235751D01*
X191162Y235808D01*
X191178Y235820D01*
X191196Y235829D01*
X191302Y235920D01*
X191410Y236006D01*
X191423Y236022D01*
X191438Y236036D01*
X191518Y236149D01*
X191602Y236260D01*
X191614Y236286D01*
X191621Y236296D01*
X191628Y236313D01*
X195475Y240161D01*
X200487Y242237D01*
X205913Y242237D01*
X210925Y240161D01*
X214761Y236325D01*
X216837Y231313D01*
X216837Y225887D01*
X214761Y220875D01*
X210925Y217039D01*
X205913Y214963D01*
X200487Y214963D01*
X195475Y217039D01*
X191610Y220905D01*
X191604Y220916D01*
X191539Y221039D01*
X191525Y221054D01*
X191515Y221071D01*
X191418Y221171D01*
X191325Y221274D01*
X191308Y221285D01*
X191294Y221300D01*
X191175Y221373D01*
X191059Y221449D01*
X191040Y221455D01*
X191023Y221466D01*
X190889Y221507D01*
X190758Y221552D01*
X190738Y221554D01*
X190719Y221560D01*
X190579Y221566D01*
X190441Y221577D01*
X190421Y221574D01*
X190401Y221575D01*
X190265Y221547D01*
X190128Y221523D01*
X190109Y221514D01*
X190090Y221510D01*
X189965Y221449D01*
X189838Y221392D01*
X189822Y221380D01*
X189804Y221371D01*
X189698Y221280D01*
X189589Y221194D01*
X189577Y221177D01*
X189562Y221164D01*
X189482Y221050D01*
X189398Y220939D01*
X189386Y220914D01*
X189379Y220904D01*
X189372Y220887D01*
X185525Y217039D01*
X183923Y216376D01*
X183807Y216310D01*
X183688Y216248D01*
X183669Y216231D01*
X183647Y216218D01*
X183566Y216140D01*
X183536Y216136D01*
X183472Y216137D01*
X183380Y216114D01*
X183285Y216101D01*
X183182Y216065D01*
X183163Y216061D01*
X183148Y216054D01*
X183133Y216049D01*
X180513Y214963D01*
X175087Y214963D01*
X170075Y217039D01*
X166210Y220905D01*
X166204Y220916D01*
X166139Y221039D01*
X166125Y221054D01*
X166115Y221071D01*
X166018Y221171D01*
X165925Y221274D01*
X165908Y221285D01*
X165894Y221300D01*
X165775Y221372D01*
X165659Y221449D01*
X165640Y221455D01*
X165623Y221466D01*
X165490Y221507D01*
X165358Y221552D01*
X165338Y221554D01*
X165319Y221560D01*
X165180Y221566D01*
X165041Y221577D01*
X165021Y221574D01*
X165001Y221575D01*
X164864Y221547D01*
X164728Y221523D01*
X164709Y221515D01*
X164690Y221510D01*
X164564Y221449D01*
X164438Y221392D01*
X164422Y221380D01*
X164404Y221371D01*
X164298Y221280D01*
X164189Y221194D01*
X164177Y221177D01*
X164162Y221164D01*
X164082Y221051D01*
X163998Y220939D01*
X163986Y220914D01*
X163979Y220904D01*
X163972Y220887D01*
X160125Y217039D01*
X155113Y214963D01*
X154623Y214963D01*
X154573Y214957D01*
X154524Y214959D01*
X154416Y214937D01*
X154307Y214923D01*
X154261Y214905D01*
X154212Y214895D01*
X154113Y214847D01*
X154011Y214806D01*
X153971Y214777D01*
X153926Y214755D01*
X153843Y214684D01*
X153754Y214620D01*
X153722Y214581D01*
X153684Y214549D01*
X153621Y214459D01*
X153551Y214375D01*
X153530Y214330D01*
X153501Y214289D01*
X153462Y214186D01*
X153416Y214087D01*
X153406Y214038D01*
X153389Y213992D01*
X153376Y213882D01*
X153356Y213775D01*
X153359Y213725D01*
X153353Y213676D01*
X153369Y213567D01*
X153376Y213457D01*
X153391Y213410D01*
X153398Y213361D01*
X153450Y213208D01*
X153607Y212828D01*
X153607Y208811D01*
X152070Y205100D01*
X149230Y202260D01*
X145519Y200723D01*
X141501Y200723D01*
X137790Y202260D01*
X134950Y205100D01*
X133413Y208811D01*
X133413Y212829D01*
X134074Y214425D01*
X134111Y214559D01*
X134152Y214692D01*
X134152Y214712D01*
X134158Y214731D01*
X134160Y214871D01*
X134167Y215009D01*
X134163Y215029D01*
X134163Y215049D01*
X134130Y215185D01*
X134102Y215321D01*
X134093Y215339D01*
X134089Y215359D01*
X134024Y215481D01*
X133963Y215606D01*
X133949Y215622D01*
X133940Y215640D01*
X133847Y215742D01*
X133756Y215848D01*
X133740Y215860D01*
X133726Y215875D01*
X133610Y215951D01*
X133496Y216031D01*
X133477Y216039D01*
X133460Y216050D01*
X133329Y216095D01*
X133199Y216144D01*
X133179Y216146D01*
X133160Y216153D01*
X133021Y216164D01*
X132883Y216179D01*
X132863Y216177D01*
X132843Y216178D01*
X132706Y216154D01*
X132568Y216135D01*
X132541Y216126D01*
X132529Y216124D01*
X132511Y216115D01*
X132416Y216083D01*
X129713Y214963D01*
X124287Y214963D01*
X119275Y217039D01*
X115410Y220905D01*
X115404Y220916D01*
X115339Y221039D01*
X115325Y221054D01*
X115315Y221071D01*
X115218Y221171D01*
X115125Y221274D01*
X115108Y221285D01*
X115094Y221300D01*
X114975Y221372D01*
X114859Y221449D01*
X114840Y221455D01*
X114823Y221466D01*
X114690Y221507D01*
X114558Y221552D01*
X114538Y221554D01*
X114519Y221560D01*
X114380Y221566D01*
X114241Y221577D01*
X114221Y221574D01*
X114201Y221575D01*
X114064Y221547D01*
X113928Y221523D01*
X113909Y221515D01*
X113890Y221510D01*
X113764Y221449D01*
X113638Y221392D01*
X113622Y221380D01*
X113604Y221371D01*
X113498Y221280D01*
X113389Y221194D01*
X113377Y221177D01*
X113362Y221164D01*
X113282Y221051D01*
X113198Y220939D01*
X113186Y220914D01*
X113179Y220904D01*
X113172Y220887D01*
X110640Y218355D01*
X110567Y218261D01*
X110488Y218171D01*
X110470Y218135D01*
X110445Y218103D01*
X110398Y217994D01*
X110344Y217888D01*
X110335Y217849D01*
X110319Y217812D01*
X110300Y217694D01*
X110274Y217578D01*
X110275Y217538D01*
X110269Y217498D01*
X110280Y217379D01*
X110284Y217260D01*
X110295Y217221D01*
X110299Y217181D01*
X110339Y217069D01*
X110372Y216955D01*
X110393Y216920D01*
X110406Y216882D01*
X110473Y216783D01*
X110534Y216681D01*
X110573Y216635D01*
X110585Y216618D01*
X110600Y216605D01*
X110640Y216560D01*
X185921Y141279D01*
X185999Y141218D01*
X186071Y141150D01*
X186124Y141121D01*
X186172Y141084D01*
X186263Y141045D01*
X186350Y140997D01*
X186408Y140982D01*
X186464Y140958D01*
X186562Y140942D01*
X186658Y140917D01*
X186758Y140911D01*
X186778Y140908D01*
X186790Y140909D01*
X186818Y140907D01*
X193871Y140907D01*
X193880Y140908D01*
X193889Y140907D01*
X194038Y140928D01*
X194187Y140947D01*
X194195Y140950D01*
X194204Y140952D01*
X194357Y141004D01*
X194737Y141161D01*
X232934Y141161D01*
X235549Y140078D01*
X241678Y133949D01*
X242761Y131334D01*
X242761Y127644D01*
X242774Y127546D01*
X242777Y127447D01*
X242793Y127389D01*
X242801Y127329D01*
X242838Y127237D01*
X242865Y127141D01*
X242896Y127089D01*
X242918Y127033D01*
X242976Y126953D01*
X243027Y126868D01*
X243093Y126792D01*
X243105Y126776D01*
X243114Y126768D01*
X243133Y126747D01*
X244254Y125625D01*
X245792Y121914D01*
X245792Y117897D01*
X244254Y114186D01*
X243659Y113591D01*
X243641Y113568D01*
X243619Y113548D01*
X243544Y113442D01*
X243464Y113340D01*
X243453Y113313D01*
X243436Y113288D01*
X243390Y113167D01*
X243338Y113048D01*
X243333Y113019D01*
X243323Y112991D01*
X243309Y112862D01*
X243288Y112734D01*
X243291Y112704D01*
X243288Y112675D01*
X243306Y112546D01*
X243318Y112417D01*
X243328Y112389D01*
X243332Y112360D01*
X243384Y112208D01*
X243799Y111207D01*
X243799Y107190D01*
X242262Y103479D01*
X239421Y100638D01*
X235696Y99095D01*
X235605Y99084D01*
X235466Y99071D01*
X235447Y99064D01*
X235427Y99061D01*
X235298Y99010D01*
X235167Y98963D01*
X235150Y98952D01*
X235131Y98944D01*
X235019Y98863D01*
X234904Y98785D01*
X234890Y98769D01*
X234874Y98758D01*
X234785Y98650D01*
X234693Y98546D01*
X234684Y98528D01*
X234671Y98513D01*
X234612Y98387D01*
X234549Y98263D01*
X234544Y98243D01*
X234536Y98225D01*
X234510Y98089D01*
X234479Y97953D01*
X234480Y97932D01*
X234476Y97912D01*
X234485Y97774D01*
X234489Y97635D01*
X234494Y97615D01*
X234496Y97595D01*
X234538Y97463D01*
X234577Y97329D01*
X234587Y97312D01*
X234594Y97293D01*
X234668Y97175D01*
X234739Y97055D01*
X234757Y97034D01*
X234764Y97024D01*
X234779Y97010D01*
X234845Y96934D01*
X237160Y94620D01*
X238697Y90909D01*
X238697Y86891D01*
X237160Y83180D01*
X235911Y81931D01*
X235838Y81837D01*
X235759Y81748D01*
X235741Y81712D01*
X235716Y81680D01*
X235669Y81570D01*
X235614Y81465D01*
X235606Y81425D01*
X235590Y81388D01*
X235571Y81270D01*
X235545Y81154D01*
X235546Y81114D01*
X235540Y81074D01*
X235551Y80955D01*
X235554Y80836D01*
X235566Y80798D01*
X235570Y80757D01*
X235610Y80645D01*
X235643Y80531D01*
X235663Y80496D01*
X235677Y80458D01*
X235744Y80360D01*
X235804Y80257D01*
X235844Y80212D01*
X235856Y80195D01*
X235871Y80181D01*
X235911Y80136D01*
X236627Y79420D01*
X238165Y75709D01*
X238165Y71691D01*
X236627Y67980D01*
X233787Y65140D01*
X230076Y63603D01*
X226059Y63603D01*
X222469Y65090D01*
X222374Y65116D01*
X222281Y65151D01*
X222221Y65158D01*
X222163Y65174D01*
X222064Y65175D01*
X221965Y65186D01*
X221905Y65178D01*
X221845Y65179D01*
X221748Y65155D01*
X221650Y65142D01*
X221555Y65109D01*
X221535Y65104D01*
X221524Y65099D01*
X221498Y65090D01*
X217909Y63603D01*
X213891Y63603D01*
G37*
%LPD*%
%LPC*%
G36*
X238587Y170513D02*
X238587Y170513D01*
X233575Y172589D01*
X229739Y176425D01*
X228333Y179821D01*
X228308Y179864D01*
X228291Y179911D01*
X228230Y180002D01*
X228175Y180097D01*
X228141Y180133D01*
X228113Y180174D01*
X228030Y180247D01*
X227954Y180326D01*
X227912Y180352D01*
X227874Y180385D01*
X227776Y180435D01*
X227683Y180492D01*
X227635Y180507D01*
X227591Y180529D01*
X227484Y180553D01*
X227379Y180586D01*
X227329Y180588D01*
X227281Y180599D01*
X227171Y180596D01*
X227061Y180601D01*
X227013Y180591D01*
X226963Y180589D01*
X226857Y180559D01*
X226750Y180537D01*
X226705Y180515D01*
X226657Y180501D01*
X226563Y180445D01*
X226464Y180397D01*
X226426Y180365D01*
X226383Y180339D01*
X226263Y180233D01*
X224160Y178130D01*
X220449Y176593D01*
X216431Y176593D01*
X212720Y178130D01*
X209880Y180970D01*
X208343Y184681D01*
X208343Y188699D01*
X209880Y192410D01*
X211391Y193921D01*
X211476Y194030D01*
X211565Y194137D01*
X211573Y194156D01*
X211586Y194172D01*
X211641Y194300D01*
X211700Y194425D01*
X211704Y194445D01*
X211712Y194464D01*
X211734Y194602D01*
X211760Y194738D01*
X211759Y194758D01*
X211762Y194778D01*
X211749Y194917D01*
X211740Y195055D01*
X211734Y195074D01*
X211732Y195094D01*
X211685Y195226D01*
X211642Y195357D01*
X211631Y195375D01*
X211625Y195394D01*
X211547Y195509D01*
X211472Y195626D01*
X211457Y195640D01*
X211446Y195657D01*
X211342Y195749D01*
X211241Y195844D01*
X211223Y195854D01*
X211208Y195867D01*
X211083Y195931D01*
X210962Y195998D01*
X210942Y196003D01*
X210924Y196012D01*
X210789Y196042D01*
X210654Y196077D01*
X210626Y196079D01*
X210614Y196082D01*
X210594Y196081D01*
X210493Y196087D01*
X199815Y196087D01*
X199796Y196085D01*
X199686Y196081D01*
X198701Y195981D01*
X198524Y196034D01*
X198421Y196051D01*
X198320Y196077D01*
X198232Y196083D01*
X198211Y196086D01*
X198196Y196085D01*
X198160Y196087D01*
X197975Y196087D01*
X197061Y196466D01*
X197042Y196471D01*
X196940Y196509D01*
X187560Y199323D01*
X187518Y199330D01*
X187478Y199345D01*
X187362Y199356D01*
X187247Y199376D01*
X187204Y199372D01*
X187162Y199376D01*
X187046Y199358D01*
X186930Y199348D01*
X186889Y199334D01*
X186847Y199328D01*
X186695Y199274D01*
X184856Y198486D01*
X184838Y198475D01*
X184817Y198468D01*
X184701Y198395D01*
X184582Y198325D01*
X184567Y198310D01*
X184548Y198298D01*
X184454Y198198D01*
X184356Y198101D01*
X184345Y198082D01*
X184330Y198066D01*
X184264Y197946D01*
X184194Y197828D01*
X184187Y197807D01*
X184177Y197788D01*
X184143Y197655D01*
X184104Y197523D01*
X184103Y197501D01*
X184097Y197480D01*
X184087Y197319D01*
X184087Y194143D01*
X182550Y190432D01*
X179710Y187591D01*
X175999Y186054D01*
X171981Y186054D01*
X168270Y187591D01*
X165430Y190432D01*
X163893Y194143D01*
X163893Y198160D01*
X165430Y201871D01*
X168270Y204712D01*
X170741Y205735D01*
X170799Y205768D01*
X170837Y205783D01*
X170861Y205801D01*
X170931Y205833D01*
X170971Y205866D01*
X171017Y205892D01*
X171094Y205967D01*
X171177Y206034D01*
X171208Y206077D01*
X171246Y206114D01*
X171301Y206205D01*
X171365Y206291D01*
X171401Y206366D01*
X171412Y206385D01*
X171417Y206400D01*
X171434Y206436D01*
X171721Y207155D01*
X171892Y207330D01*
X171949Y207406D01*
X172014Y207476D01*
X172072Y207568D01*
X172083Y207583D01*
X172088Y207593D01*
X172100Y207613D01*
X172216Y207827D01*
X172939Y208415D01*
X172947Y208423D01*
X173047Y208513D01*
X173698Y209180D01*
X173922Y209276D01*
X174004Y209325D01*
X174091Y209365D01*
X174180Y209428D01*
X174196Y209437D01*
X174203Y209444D01*
X174222Y209458D01*
X174411Y209612D01*
X175305Y209878D01*
X175315Y209883D01*
X175442Y209928D01*
X183545Y213401D01*
X183563Y213411D01*
X183647Y213450D01*
X184220Y213759D01*
X184298Y213814D01*
X184381Y213861D01*
X184427Y213906D01*
X184472Y213938D01*
X184537Y213941D01*
X184695Y213957D01*
X184804Y213982D01*
X184915Y213999D01*
X184984Y214023D01*
X185005Y214028D01*
X185021Y214037D01*
X185067Y214053D01*
X185189Y214105D01*
X186230Y214118D01*
X186251Y214121D01*
X186343Y214124D01*
X187379Y214229D01*
X187505Y214191D01*
X187616Y214173D01*
X187725Y214146D01*
X187798Y214142D01*
X187819Y214139D01*
X187837Y214140D01*
X187886Y214138D01*
X188018Y214139D01*
X188985Y213753D01*
X189006Y213747D01*
X189092Y213715D01*
X200255Y210366D01*
X200358Y210349D01*
X200460Y210323D01*
X200548Y210317D01*
X200569Y210314D01*
X200584Y210315D01*
X200620Y210313D01*
X224949Y210313D01*
X225070Y210328D01*
X225191Y210336D01*
X225227Y210348D01*
X225264Y210353D01*
X225377Y210397D01*
X225493Y210436D01*
X225525Y210456D01*
X225560Y210470D01*
X225659Y210541D01*
X225761Y210607D01*
X225801Y210645D01*
X225817Y210656D01*
X225831Y210673D01*
X225878Y210718D01*
X226350Y211225D01*
X226357Y211229D01*
X226482Y211303D01*
X226496Y211315D01*
X226503Y211320D01*
X226515Y211332D01*
X226518Y211335D01*
X226951Y211514D01*
X227037Y211563D01*
X227127Y211604D01*
X227174Y211642D01*
X227227Y211672D01*
X227298Y211740D01*
X227376Y211802D01*
X227412Y211851D01*
X227456Y211893D01*
X227507Y211977D01*
X227567Y212056D01*
X227611Y212147D01*
X227622Y212164D01*
X227625Y212176D01*
X227638Y212201D01*
X229739Y217275D01*
X233575Y221111D01*
X238587Y223187D01*
X244013Y223187D01*
X245227Y222684D01*
X245275Y222670D01*
X245320Y222649D01*
X245428Y222629D01*
X245534Y222600D01*
X245584Y222599D01*
X245633Y222589D01*
X245742Y222596D01*
X245852Y222595D01*
X245900Y222606D01*
X245950Y222609D01*
X246054Y222643D01*
X246161Y222669D01*
X246205Y222692D01*
X246252Y222707D01*
X246345Y222766D01*
X246442Y222817D01*
X246479Y222851D01*
X246521Y222877D01*
X246596Y222957D01*
X246678Y223031D01*
X246705Y223073D01*
X246739Y223109D01*
X246792Y223205D01*
X246852Y223297D01*
X246869Y223344D01*
X246893Y223388D01*
X246920Y223494D01*
X246956Y223598D01*
X246960Y223647D01*
X246972Y223695D01*
X246982Y223856D01*
X246982Y226926D01*
X248519Y230637D01*
X251360Y233477D01*
X255071Y235014D01*
X259088Y235014D01*
X262799Y233477D01*
X265640Y230637D01*
X267177Y226926D01*
X267177Y222908D01*
X265640Y219197D01*
X262799Y216357D01*
X259088Y214820D01*
X255777Y214820D01*
X255728Y214814D01*
X255678Y214816D01*
X255571Y214794D01*
X255462Y214780D01*
X255415Y214762D01*
X255367Y214752D01*
X255268Y214703D01*
X255166Y214663D01*
X255126Y214634D01*
X255081Y214612D01*
X254997Y214541D01*
X254908Y214476D01*
X254877Y214438D01*
X254839Y214406D01*
X254776Y214316D01*
X254706Y214231D01*
X254684Y214186D01*
X254656Y214145D01*
X254617Y214043D01*
X254570Y213943D01*
X254561Y213895D01*
X254543Y213848D01*
X254531Y213739D01*
X254510Y213631D01*
X254513Y213582D01*
X254508Y213532D01*
X254523Y213423D01*
X254530Y213314D01*
X254545Y213266D01*
X254552Y213217D01*
X254604Y213065D01*
X254972Y212178D01*
X254977Y212139D01*
X255020Y212028D01*
X255057Y211915D01*
X255079Y211881D01*
X255094Y211843D01*
X255163Y211747D01*
X255227Y211646D01*
X255257Y211619D01*
X255280Y211586D01*
X255372Y211510D01*
X255459Y211428D01*
X255494Y211409D01*
X255525Y211383D01*
X255633Y211332D01*
X255737Y211275D01*
X255777Y211265D01*
X255813Y211248D01*
X255930Y211225D01*
X256045Y211195D01*
X256105Y211192D01*
X256125Y211188D01*
X256146Y211189D01*
X256206Y211185D01*
X259007Y211185D01*
X259106Y211198D01*
X259205Y211201D01*
X259263Y211217D01*
X259323Y211225D01*
X259415Y211262D01*
X259510Y211289D01*
X259562Y211320D01*
X259619Y211342D01*
X259699Y211400D01*
X259784Y211451D01*
X259859Y211517D01*
X259876Y211529D01*
X259884Y211538D01*
X259905Y211557D01*
X260980Y212633D01*
X264691Y214170D01*
X268709Y214170D01*
X272420Y212633D01*
X275260Y209792D01*
X276800Y206075D01*
X276806Y206027D01*
X276805Y205957D01*
X276826Y205869D01*
X276837Y205780D01*
X276863Y205715D01*
X276879Y205647D01*
X276921Y205568D01*
X276954Y205485D01*
X276995Y205428D01*
X277028Y205366D01*
X277088Y205300D01*
X277141Y205227D01*
X277195Y205183D01*
X277242Y205131D01*
X277317Y205082D01*
X277386Y205024D01*
X277449Y204995D01*
X277507Y204956D01*
X277592Y204927D01*
X277674Y204889D01*
X277742Y204876D01*
X277808Y204853D01*
X277898Y204846D01*
X277986Y204829D01*
X278056Y204833D01*
X278125Y204828D01*
X278214Y204843D01*
X278303Y204849D01*
X278370Y204870D01*
X278439Y204882D01*
X278521Y204919D01*
X278606Y204947D01*
X278665Y204984D01*
X278729Y205013D01*
X278799Y205069D01*
X278875Y205117D01*
X278922Y205168D01*
X278977Y205211D01*
X279031Y205283D01*
X279093Y205349D01*
X279126Y205410D01*
X279168Y205466D01*
X279239Y205610D01*
X280610Y208920D01*
X283450Y211760D01*
X287161Y213297D01*
X291179Y213297D01*
X294890Y211760D01*
X297730Y208920D01*
X299267Y205209D01*
X299267Y201191D01*
X297730Y197480D01*
X294890Y194640D01*
X291179Y193103D01*
X287161Y193103D01*
X283450Y194640D01*
X280610Y197480D01*
X279070Y201198D01*
X279064Y201246D01*
X279065Y201316D01*
X279044Y201403D01*
X279033Y201492D01*
X279007Y201557D01*
X278991Y201625D01*
X278949Y201704D01*
X278916Y201788D01*
X278875Y201844D01*
X278842Y201906D01*
X278782Y201973D01*
X278729Y202045D01*
X278675Y202090D01*
X278628Y202141D01*
X278553Y202191D01*
X278484Y202248D01*
X278421Y202278D01*
X278363Y202316D01*
X278278Y202345D01*
X278196Y202384D01*
X278128Y202397D01*
X278062Y202419D01*
X277972Y202427D01*
X277884Y202443D01*
X277814Y202439D01*
X277745Y202445D01*
X277656Y202429D01*
X277567Y202424D01*
X277500Y202402D01*
X277431Y202390D01*
X277349Y202353D01*
X277264Y202326D01*
X277205Y202288D01*
X277141Y202260D01*
X277071Y202204D01*
X276995Y202155D01*
X276948Y202105D01*
X276893Y202061D01*
X276839Y201989D01*
X276777Y201924D01*
X276744Y201863D01*
X276702Y201807D01*
X276631Y201662D01*
X275260Y198353D01*
X272420Y195512D01*
X268709Y193975D01*
X264691Y193975D01*
X260980Y195512D01*
X259905Y196588D01*
X259827Y196649D01*
X259754Y196717D01*
X259701Y196746D01*
X259654Y196783D01*
X259563Y196822D01*
X259476Y196870D01*
X259417Y196885D01*
X259362Y196909D01*
X259264Y196925D01*
X259168Y196950D01*
X259068Y196956D01*
X259048Y196959D01*
X259035Y196958D01*
X259007Y196960D01*
X254268Y196960D01*
X254170Y196947D01*
X254071Y196944D01*
X254013Y196928D01*
X253953Y196920D01*
X253861Y196883D01*
X253765Y196856D01*
X253713Y196825D01*
X253657Y196803D01*
X253577Y196745D01*
X253492Y196694D01*
X253416Y196628D01*
X253400Y196616D01*
X253392Y196607D01*
X253371Y196588D01*
X251656Y194874D01*
X251583Y194780D01*
X251505Y194690D01*
X251486Y194655D01*
X251461Y194623D01*
X251414Y194513D01*
X251360Y194407D01*
X251351Y194368D01*
X251335Y194331D01*
X251316Y194213D01*
X251290Y194097D01*
X251292Y194057D01*
X251285Y194017D01*
X251296Y193898D01*
X251300Y193779D01*
X251311Y193740D01*
X251315Y193700D01*
X251355Y193588D01*
X251388Y193474D01*
X251409Y193439D01*
X251423Y193401D01*
X251490Y193302D01*
X251550Y193200D01*
X251590Y193154D01*
X251601Y193138D01*
X251617Y193124D01*
X251656Y193079D01*
X252861Y191875D01*
X254937Y186863D01*
X254937Y181437D01*
X252861Y176425D01*
X249025Y172589D01*
X244013Y170513D01*
X238587Y170513D01*
G37*
%LPD*%
%LPC*%
G36*
X86891Y28003D02*
X86891Y28003D01*
X83180Y29540D01*
X80340Y32380D01*
X78803Y36091D01*
X78803Y40109D01*
X80400Y43964D01*
X80411Y44007D01*
X80426Y44038D01*
X80435Y44084D01*
X80461Y44152D01*
X80468Y44213D01*
X80484Y44271D01*
X80485Y44344D01*
X80486Y44351D01*
X80485Y44365D01*
X80485Y44370D01*
X80496Y44468D01*
X80488Y44528D01*
X80489Y44589D01*
X80466Y44685D01*
X80452Y44783D01*
X80420Y44878D01*
X80415Y44898D01*
X80409Y44909D01*
X80400Y44936D01*
X78803Y48791D01*
X78803Y52809D01*
X80340Y56520D01*
X83180Y59360D01*
X86891Y60897D01*
X90909Y60897D01*
X94620Y59360D01*
X97147Y56833D01*
X97256Y56748D01*
X97363Y56659D01*
X97382Y56651D01*
X97398Y56638D01*
X97526Y56583D01*
X97651Y56524D01*
X97671Y56520D01*
X97690Y56512D01*
X97828Y56490D01*
X97964Y56464D01*
X97984Y56465D01*
X98004Y56462D01*
X98143Y56475D01*
X98281Y56484D01*
X98300Y56490D01*
X98320Y56492D01*
X98452Y56539D01*
X98583Y56582D01*
X98601Y56593D01*
X98620Y56599D01*
X98735Y56677D01*
X98852Y56752D01*
X98866Y56767D01*
X98883Y56778D01*
X98975Y56882D01*
X99070Y56983D01*
X99080Y57001D01*
X99093Y57016D01*
X99157Y57141D01*
X99224Y57262D01*
X99229Y57282D01*
X99238Y57300D01*
X99268Y57435D01*
X99303Y57570D01*
X99305Y57598D01*
X99308Y57610D01*
X99307Y57630D01*
X99313Y57731D01*
X99313Y61148D01*
X101401Y66190D01*
X105260Y70049D01*
X110302Y72137D01*
X115758Y72137D01*
X119935Y70407D01*
X120069Y70370D01*
X120202Y70329D01*
X120222Y70328D01*
X120242Y70323D01*
X120381Y70320D01*
X120520Y70314D01*
X120540Y70318D01*
X120560Y70318D01*
X120696Y70350D01*
X120831Y70378D01*
X120849Y70387D01*
X120869Y70392D01*
X120992Y70457D01*
X121117Y70518D01*
X121132Y70531D01*
X121150Y70541D01*
X121253Y70634D01*
X121359Y70724D01*
X121371Y70741D01*
X121386Y70754D01*
X121462Y70871D01*
X121542Y70984D01*
X121549Y71003D01*
X121560Y71020D01*
X121606Y71152D01*
X121655Y71282D01*
X121657Y71302D01*
X121664Y71321D01*
X121675Y71460D01*
X121690Y71598D01*
X121687Y71618D01*
X121689Y71638D01*
X121665Y71775D01*
X121646Y71913D01*
X121637Y71939D01*
X121634Y71951D01*
X121626Y71970D01*
X121594Y72065D01*
X120713Y74191D01*
X120713Y78209D01*
X122250Y81920D01*
X125090Y84760D01*
X128801Y86297D01*
X132819Y86297D01*
X136530Y84760D01*
X139370Y81920D01*
X140907Y78209D01*
X140907Y74191D01*
X139370Y70480D01*
X136530Y67640D01*
X132819Y66103D01*
X128801Y66103D01*
X126675Y66984D01*
X126541Y67020D01*
X126408Y67061D01*
X126388Y67062D01*
X126368Y67068D01*
X126229Y67070D01*
X126090Y67076D01*
X126071Y67072D01*
X126050Y67073D01*
X125915Y67040D01*
X125779Y67012D01*
X125761Y67003D01*
X125741Y66998D01*
X125618Y66934D01*
X125493Y66872D01*
X125478Y66859D01*
X125460Y66850D01*
X125357Y66756D01*
X125251Y66666D01*
X125240Y66649D01*
X125225Y66636D01*
X125148Y66520D01*
X125068Y66406D01*
X125061Y66387D01*
X125050Y66370D01*
X125005Y66239D01*
X124955Y66109D01*
X124953Y66088D01*
X124947Y66069D01*
X124936Y65931D01*
X124920Y65793D01*
X124923Y65772D01*
X124921Y65752D01*
X124945Y65615D01*
X124965Y65478D01*
X124974Y65451D01*
X124976Y65439D01*
X124984Y65420D01*
X125017Y65325D01*
X126747Y61148D01*
X126747Y55692D01*
X124659Y50650D01*
X120800Y46791D01*
X115758Y44703D01*
X110302Y44703D01*
X105260Y46791D01*
X101387Y50665D01*
X101379Y50685D01*
X101326Y50757D01*
X101282Y50835D01*
X101233Y50886D01*
X101192Y50942D01*
X101123Y50999D01*
X101060Y51064D01*
X101001Y51100D01*
X100947Y51145D01*
X100866Y51183D01*
X100789Y51230D01*
X100722Y51251D01*
X100659Y51281D01*
X100571Y51297D01*
X100485Y51324D01*
X100416Y51327D01*
X100347Y51340D01*
X100257Y51335D01*
X100168Y51339D01*
X100099Y51325D01*
X100030Y51321D01*
X99944Y51293D01*
X99856Y51275D01*
X99793Y51244D01*
X99727Y51223D01*
X99651Y51175D01*
X99571Y51135D01*
X99517Y51090D01*
X99458Y51052D01*
X99397Y50987D01*
X99329Y50929D01*
X99288Y50872D01*
X99240Y50821D01*
X99197Y50742D01*
X99145Y50669D01*
X99121Y50603D01*
X99087Y50542D01*
X99064Y50455D01*
X99033Y50371D01*
X99025Y50302D01*
X99007Y50234D01*
X98997Y50074D01*
X98997Y48791D01*
X97400Y44936D01*
X97374Y44840D01*
X97339Y44748D01*
X97332Y44687D01*
X97316Y44629D01*
X97315Y44530D01*
X97304Y44432D01*
X97312Y44372D01*
X97311Y44311D01*
X97332Y44225D01*
X97334Y44194D01*
X97340Y44175D01*
X97348Y44117D01*
X97380Y44022D01*
X97385Y44002D01*
X97391Y43991D01*
X97400Y43964D01*
X98997Y40109D01*
X98997Y36091D01*
X97460Y32380D01*
X94620Y29540D01*
X90909Y28003D01*
X86891Y28003D01*
G37*
%LPD*%
G36*
X212999Y122667D02*
X212999Y122667D01*
X213049Y122665D01*
X213156Y122687D01*
X213265Y122701D01*
X213311Y122719D01*
X213360Y122729D01*
X213459Y122778D01*
X213561Y122818D01*
X213601Y122847D01*
X213646Y122869D01*
X213729Y122940D01*
X213818Y123005D01*
X213850Y123043D01*
X213888Y123075D01*
X213951Y123165D01*
X214021Y123250D01*
X214042Y123295D01*
X214071Y123336D01*
X214110Y123438D01*
X214157Y123538D01*
X214166Y123586D01*
X214184Y123633D01*
X214196Y123742D01*
X214216Y123850D01*
X214213Y123899D01*
X214219Y123949D01*
X214203Y124058D01*
X214197Y124167D01*
X214181Y124215D01*
X214174Y124264D01*
X214122Y124416D01*
X213884Y124992D01*
X213884Y125667D01*
X213869Y125785D01*
X213862Y125903D01*
X213849Y125942D01*
X213844Y125982D01*
X213800Y126093D01*
X213764Y126206D01*
X213742Y126240D01*
X213727Y126278D01*
X213657Y126374D01*
X213594Y126475D01*
X213564Y126502D01*
X213540Y126535D01*
X213449Y126611D01*
X213362Y126693D01*
X213326Y126712D01*
X213295Y126738D01*
X213188Y126789D01*
X213083Y126846D01*
X213044Y126856D01*
X213008Y126873D01*
X212891Y126896D01*
X212775Y126926D01*
X212715Y126929D01*
X212695Y126933D01*
X212675Y126932D01*
X212615Y126936D01*
X194737Y126936D01*
X194357Y127093D01*
X194348Y127096D01*
X194340Y127100D01*
X194195Y127137D01*
X194050Y127177D01*
X194041Y127177D01*
X194032Y127180D01*
X193871Y127190D01*
X182087Y127190D01*
X179566Y128234D01*
X95785Y212015D01*
X94741Y214536D01*
X94741Y215833D01*
X94738Y215862D01*
X94740Y215891D01*
X94719Y216009D01*
X94719Y216017D01*
X94717Y216022D01*
X94701Y216148D01*
X94691Y216176D01*
X94686Y216205D01*
X94632Y216323D01*
X94584Y216444D01*
X94567Y216468D01*
X94555Y216495D01*
X94474Y216596D01*
X94398Y216701D01*
X94375Y216720D01*
X94356Y216743D01*
X94253Y216821D01*
X94153Y216904D01*
X94126Y216917D01*
X94102Y216934D01*
X93958Y217005D01*
X93875Y217039D01*
X90010Y220905D01*
X90004Y220916D01*
X89939Y221039D01*
X89925Y221054D01*
X89915Y221071D01*
X89818Y221171D01*
X89725Y221274D01*
X89708Y221285D01*
X89694Y221300D01*
X89575Y221372D01*
X89459Y221449D01*
X89440Y221455D01*
X89423Y221466D01*
X89290Y221507D01*
X89158Y221552D01*
X89138Y221554D01*
X89119Y221560D01*
X88980Y221566D01*
X88841Y221577D01*
X88821Y221574D01*
X88801Y221575D01*
X88664Y221547D01*
X88528Y221523D01*
X88509Y221515D01*
X88490Y221510D01*
X88364Y221449D01*
X88238Y221392D01*
X88222Y221380D01*
X88204Y221371D01*
X88098Y221280D01*
X87989Y221194D01*
X87977Y221177D01*
X87962Y221164D01*
X87882Y221051D01*
X87798Y220939D01*
X87786Y220914D01*
X87779Y220904D01*
X87772Y220887D01*
X83862Y216977D01*
X83820Y216953D01*
X83799Y216932D01*
X83774Y216917D01*
X83685Y216822D01*
X83592Y216732D01*
X83576Y216707D01*
X83556Y216685D01*
X83493Y216571D01*
X83425Y216461D01*
X83417Y216432D01*
X83402Y216406D01*
X83370Y216281D01*
X83332Y216157D01*
X83330Y216127D01*
X83323Y216099D01*
X83313Y215938D01*
X83313Y196704D01*
X83325Y196606D01*
X83328Y196507D01*
X83345Y196448D01*
X83353Y196388D01*
X83389Y196296D01*
X83417Y196201D01*
X83447Y196149D01*
X83470Y196093D01*
X83528Y196013D01*
X83578Y195927D01*
X83644Y195852D01*
X83656Y195835D01*
X83666Y195827D01*
X83684Y195806D01*
X93608Y185883D01*
X93702Y185810D01*
X93791Y185731D01*
X93827Y185713D01*
X93859Y185688D01*
X93969Y185640D01*
X94075Y185586D01*
X94114Y185578D01*
X94151Y185561D01*
X94269Y185543D01*
X94385Y185517D01*
X94425Y185518D01*
X94465Y185512D01*
X94584Y185523D01*
X94703Y185526D01*
X94742Y185538D01*
X94782Y185541D01*
X94894Y185582D01*
X95008Y185615D01*
X95043Y185635D01*
X95081Y185649D01*
X95180Y185716D01*
X95282Y185776D01*
X95327Y185816D01*
X95344Y185828D01*
X95358Y185843D01*
X95403Y185883D01*
X96248Y186728D01*
X99960Y188265D01*
X103977Y188265D01*
X107688Y186728D01*
X110528Y183888D01*
X112065Y180177D01*
X112065Y177353D01*
X112080Y177235D01*
X112088Y177116D01*
X112100Y177077D01*
X112105Y177037D01*
X112149Y176926D01*
X112186Y176813D01*
X112207Y176779D01*
X112222Y176742D01*
X112292Y176645D01*
X112356Y176545D01*
X112385Y176517D01*
X112409Y176484D01*
X112501Y176408D01*
X112587Y176327D01*
X112623Y176307D01*
X112654Y176281D01*
X112762Y176231D01*
X112866Y176173D01*
X112905Y176163D01*
X112942Y176146D01*
X113059Y176123D01*
X113174Y176094D01*
X113234Y176090D01*
X113254Y176086D01*
X113274Y176087D01*
X113335Y176083D01*
X115422Y176083D01*
X119133Y174546D01*
X121974Y171706D01*
X122282Y170963D01*
X122296Y170937D01*
X122305Y170909D01*
X122375Y170799D01*
X122439Y170687D01*
X122460Y170665D01*
X122475Y170640D01*
X122570Y170552D01*
X122660Y170458D01*
X122686Y170443D01*
X122707Y170423D01*
X122821Y170360D01*
X122931Y170292D01*
X122960Y170283D01*
X122986Y170269D01*
X123111Y170237D01*
X123235Y170198D01*
X123265Y170197D01*
X123293Y170190D01*
X123454Y170179D01*
X130448Y170179D01*
X133062Y169097D01*
X179126Y123033D01*
X179204Y122972D01*
X179276Y122904D01*
X179329Y122875D01*
X179377Y122838D01*
X179468Y122799D01*
X179555Y122751D01*
X179613Y122736D01*
X179669Y122712D01*
X179767Y122696D01*
X179863Y122671D01*
X179963Y122665D01*
X179983Y122662D01*
X179995Y122663D01*
X180023Y122661D01*
X212950Y122661D01*
X212999Y122667D01*
G37*
%LPC*%
G36*
X44446Y113723D02*
X44446Y113723D01*
X40077Y115533D01*
X36733Y118877D01*
X34923Y123246D01*
X34923Y127974D01*
X36733Y132343D01*
X40077Y135687D01*
X44446Y137497D01*
X49174Y137497D01*
X53543Y135687D01*
X54828Y134402D01*
X54922Y134330D01*
X55011Y134251D01*
X55047Y134232D01*
X55079Y134208D01*
X55188Y134160D01*
X55294Y134106D01*
X55334Y134097D01*
X55371Y134081D01*
X55489Y134063D01*
X55605Y134036D01*
X55645Y134038D01*
X55685Y134031D01*
X55804Y134043D01*
X55923Y134046D01*
X55961Y134057D01*
X56002Y134061D01*
X56114Y134101D01*
X56228Y134135D01*
X56263Y134155D01*
X56301Y134169D01*
X56400Y134236D01*
X56502Y134296D01*
X56547Y134336D01*
X56564Y134347D01*
X56578Y134363D01*
X56623Y134402D01*
X57780Y135560D01*
X61491Y137097D01*
X64834Y137097D01*
X64952Y137112D01*
X65070Y137120D01*
X65109Y137132D01*
X65149Y137137D01*
X65260Y137181D01*
X65373Y137218D01*
X65407Y137239D01*
X65445Y137254D01*
X65541Y137324D01*
X65642Y137388D01*
X65669Y137417D01*
X65702Y137441D01*
X65778Y137533D01*
X65860Y137619D01*
X65879Y137655D01*
X65905Y137686D01*
X65956Y137794D01*
X66013Y137898D01*
X66023Y137937D01*
X66040Y137974D01*
X66063Y138090D01*
X66093Y138206D01*
X66096Y138266D01*
X66100Y138286D01*
X66099Y138306D01*
X66103Y138366D01*
X66103Y141709D01*
X67700Y145564D01*
X67726Y145660D01*
X67761Y145752D01*
X67768Y145813D01*
X67784Y145871D01*
X67785Y145970D01*
X67796Y146068D01*
X67788Y146128D01*
X67789Y146189D01*
X67766Y146285D01*
X67752Y146383D01*
X67720Y146478D01*
X67715Y146498D01*
X67709Y146509D01*
X67700Y146536D01*
X66103Y150391D01*
X66103Y154409D01*
X67640Y158120D01*
X70480Y160960D01*
X74191Y162497D01*
X78209Y162497D01*
X81920Y160960D01*
X84760Y158120D01*
X86297Y154409D01*
X86297Y150391D01*
X84700Y146536D01*
X84674Y146440D01*
X84639Y146348D01*
X84632Y146287D01*
X84616Y146229D01*
X84615Y146130D01*
X84604Y146032D01*
X84612Y145972D01*
X84611Y145911D01*
X84634Y145814D01*
X84648Y145717D01*
X84680Y145622D01*
X84685Y145602D01*
X84691Y145591D01*
X84700Y145564D01*
X86297Y141709D01*
X86297Y137691D01*
X84760Y133980D01*
X81920Y131140D01*
X78209Y129603D01*
X74866Y129603D01*
X74748Y129588D01*
X74630Y129580D01*
X74591Y129568D01*
X74551Y129563D01*
X74440Y129519D01*
X74327Y129482D01*
X74293Y129461D01*
X74255Y129446D01*
X74159Y129376D01*
X74058Y129312D01*
X74031Y129283D01*
X73998Y129259D01*
X73922Y129167D01*
X73840Y129081D01*
X73821Y129045D01*
X73795Y129014D01*
X73744Y128906D01*
X73687Y128802D01*
X73677Y128763D01*
X73660Y128726D01*
X73637Y128610D01*
X73607Y128494D01*
X73604Y128434D01*
X73600Y128414D01*
X73601Y128394D01*
X73597Y128334D01*
X73597Y124991D01*
X72060Y121280D01*
X69220Y118440D01*
X65509Y116903D01*
X61491Y116903D01*
X57623Y118505D01*
X57595Y118513D01*
X57569Y118526D01*
X57442Y118555D01*
X57317Y118589D01*
X57287Y118589D01*
X57258Y118596D01*
X57129Y118592D01*
X56999Y118594D01*
X56970Y118587D01*
X56940Y118586D01*
X56816Y118550D01*
X56689Y118520D01*
X56663Y118506D01*
X56635Y118498D01*
X56523Y118432D01*
X56408Y118371D01*
X56386Y118351D01*
X56361Y118336D01*
X56240Y118230D01*
X53543Y115533D01*
X49174Y113723D01*
X44446Y113723D01*
G37*
%LPD*%
%LPC*%
G36*
X22687Y214963D02*
X22687Y214963D01*
X17675Y217039D01*
X13839Y220875D01*
X11763Y225887D01*
X11763Y231313D01*
X13839Y236325D01*
X17675Y240161D01*
X22687Y242237D01*
X28113Y242237D01*
X33125Y240161D01*
X36961Y236325D01*
X38866Y231724D01*
X38881Y231698D01*
X38890Y231670D01*
X38960Y231560D01*
X39024Y231448D01*
X39045Y231426D01*
X39061Y231401D01*
X39155Y231313D01*
X39245Y231219D01*
X39271Y231204D01*
X39292Y231183D01*
X39405Y231121D01*
X39516Y231053D01*
X39545Y231044D01*
X39571Y231030D01*
X39696Y230998D01*
X39820Y230960D01*
X39850Y230958D01*
X39879Y230951D01*
X40009Y230951D01*
X40138Y230944D01*
X40167Y230951D01*
X40197Y230950D01*
X40322Y230983D01*
X40449Y231009D01*
X40476Y231022D01*
X40505Y231029D01*
X40618Y231091D01*
X40735Y231148D01*
X40758Y231168D01*
X40784Y231182D01*
X40878Y231271D01*
X40977Y231355D01*
X40994Y231379D01*
X41016Y231400D01*
X41085Y231509D01*
X41160Y231615D01*
X41171Y231643D01*
X41187Y231668D01*
X41246Y231818D01*
X41458Y232470D01*
X42178Y233883D01*
X43111Y235167D01*
X44233Y236289D01*
X45517Y237222D01*
X46930Y237942D01*
X48301Y238387D01*
X48301Y229830D01*
X48316Y229712D01*
X48323Y229593D01*
X48335Y229555D01*
X48341Y229515D01*
X48384Y229404D01*
X48421Y229291D01*
X48443Y229257D01*
X48458Y229219D01*
X48527Y229123D01*
X48591Y229022D01*
X48621Y228994D01*
X48644Y228962D01*
X48736Y228886D01*
X48823Y228804D01*
X48858Y228785D01*
X48889Y228759D01*
X48997Y228708D01*
X49101Y228651D01*
X49141Y228641D01*
X49177Y228623D01*
X49284Y228603D01*
X49254Y228599D01*
X49144Y228555D01*
X49031Y228519D01*
X48996Y228497D01*
X48959Y228482D01*
X48862Y228412D01*
X48762Y228349D01*
X48734Y228319D01*
X48701Y228295D01*
X48625Y228204D01*
X48544Y228117D01*
X48524Y228082D01*
X48499Y228050D01*
X48448Y227943D01*
X48390Y227838D01*
X48380Y227799D01*
X48363Y227763D01*
X48341Y227646D01*
X48311Y227530D01*
X48307Y227470D01*
X48303Y227450D01*
X48305Y227430D01*
X48301Y227370D01*
X48301Y218813D01*
X46930Y219258D01*
X45517Y219978D01*
X44233Y220911D01*
X43111Y222033D01*
X42178Y223317D01*
X41458Y224730D01*
X41246Y225382D01*
X41233Y225409D01*
X41226Y225438D01*
X41166Y225553D01*
X41111Y225670D01*
X41092Y225693D01*
X41078Y225720D01*
X40991Y225815D01*
X40908Y225915D01*
X40884Y225933D01*
X40864Y225955D01*
X40755Y226026D01*
X40651Y226102D01*
X40623Y226113D01*
X40598Y226130D01*
X40475Y226172D01*
X40355Y226219D01*
X40325Y226223D01*
X40297Y226233D01*
X40168Y226243D01*
X40040Y226259D01*
X40010Y226256D01*
X39980Y226258D01*
X39852Y226236D01*
X39724Y226220D01*
X39696Y226209D01*
X39667Y226204D01*
X39549Y226150D01*
X39428Y226103D01*
X39404Y226085D01*
X39377Y226073D01*
X39276Y225992D01*
X39171Y225916D01*
X39152Y225893D01*
X39128Y225874D01*
X39050Y225771D01*
X38968Y225671D01*
X38955Y225644D01*
X38937Y225620D01*
X38866Y225476D01*
X36961Y220875D01*
X33125Y217039D01*
X28113Y214963D01*
X22687Y214963D01*
G37*
%LPD*%
%LPC*%
G36*
X44446Y162223D02*
X44446Y162223D01*
X40077Y164033D01*
X36733Y167377D01*
X34923Y171746D01*
X34923Y176474D01*
X36733Y180843D01*
X40077Y184187D01*
X44446Y185997D01*
X49174Y185997D01*
X53543Y184187D01*
X56887Y180843D01*
X58697Y176474D01*
X58697Y171746D01*
X56887Y167377D01*
X53543Y164033D01*
X49174Y162223D01*
X44446Y162223D01*
G37*
%LPD*%
%LPC*%
G36*
X277391Y231203D02*
X277391Y231203D01*
X273680Y232740D01*
X270840Y235580D01*
X269303Y239291D01*
X269303Y243309D01*
X270840Y247020D01*
X273680Y249860D01*
X277391Y251397D01*
X281409Y251397D01*
X285120Y249860D01*
X287960Y247020D01*
X289497Y243309D01*
X289497Y239291D01*
X287960Y235580D01*
X285120Y232740D01*
X281409Y231203D01*
X277391Y231203D01*
G37*
%LPD*%
%LPC*%
G36*
X61491Y91503D02*
X61491Y91503D01*
X57780Y93040D01*
X54940Y95880D01*
X53403Y99591D01*
X53403Y103609D01*
X54940Y107320D01*
X57780Y110160D01*
X61491Y111697D01*
X65509Y111697D01*
X69220Y110160D01*
X72060Y107320D01*
X73597Y103609D01*
X73597Y99591D01*
X72060Y95880D01*
X69220Y93040D01*
X65509Y91503D01*
X61491Y91503D01*
G37*
%LPD*%
%LPC*%
G36*
X259611Y59753D02*
X259611Y59753D01*
X255900Y61290D01*
X253060Y64130D01*
X251523Y67841D01*
X251523Y71859D01*
X253060Y75570D01*
X255900Y78410D01*
X259611Y79947D01*
X263629Y79947D01*
X267340Y78410D01*
X270180Y75570D01*
X271717Y71859D01*
X271717Y67841D01*
X270180Y64130D01*
X267340Y61290D01*
X263629Y59753D01*
X259611Y59753D01*
G37*
%LPD*%
%LPC*%
G36*
X290091Y15303D02*
X290091Y15303D01*
X286380Y16840D01*
X283540Y19680D01*
X282003Y23391D01*
X282003Y27409D01*
X283540Y31120D01*
X286380Y33960D01*
X290091Y35497D01*
X294109Y35497D01*
X297820Y33960D01*
X300660Y31120D01*
X302197Y27409D01*
X302197Y23391D01*
X300660Y19680D01*
X297820Y16840D01*
X294109Y15303D01*
X290091Y15303D01*
G37*
%LPD*%
D10*
X12700Y50800D03*
X12700Y76200D03*
X25400Y228600D03*
X50800Y228600D03*
X76200Y228600D03*
X101600Y228600D03*
X127000Y228600D03*
X152400Y228600D03*
X177800Y228600D03*
X203200Y228600D03*
X241300Y184150D03*
X241300Y209550D03*
D11*
X125730Y114300D03*
D12*
X46810Y174110D03*
X46810Y125610D03*
D13*
X16510Y177110D03*
X16510Y122610D03*
D10*
X317500Y63500D03*
X317500Y88900D03*
X317500Y114300D03*
X317500Y139700D03*
D11*
X215900Y0D03*
X113030Y58420D03*
D14*
X50800Y0D03*
X38100Y50800D03*
X63500Y127000D03*
X292100Y25400D03*
X289170Y203200D03*
X130810Y76200D03*
X101968Y178168D03*
X215900Y73700D03*
X25400Y368300D03*
X279400Y241300D03*
X63500Y101600D03*
X179515Y101600D03*
X76200Y306795D03*
X76200Y279400D03*
X159449Y103373D03*
X169482Y101600D03*
X218440Y186690D03*
X235694Y119906D03*
D15*
X235649Y119952D01*
X235649Y129920D01*
X231520Y134049D01*
X196152Y134049D01*
D16*
X183452Y134049D01*
X101600Y215900D01*
X101600Y228600D01*
D14*
X143510Y210820D03*
X228600Y150312D03*
X187833Y196646D03*
X292100Y101600D03*
X260350Y187960D03*
X145352Y191923D03*
X203200Y25400D03*
X88900Y127000D03*
X106584Y195484D03*
X190500Y88900D03*
X245500Y76200D03*
X140843Y76560D03*
X25400Y304800D03*
X173990Y54610D03*
X114316Y126984D03*
X266700Y204073D03*
D15*
X245686Y198962D02*
X236914Y198962D01*
X245686Y198962D02*
X250796Y204073D01*
X266700Y204073D01*
D14*
X173990Y196152D03*
D15*
X230564Y205312D02*
X236914Y198962D01*
X230564Y205312D02*
X228600Y203200D01*
X177800Y203200D02*
X173990Y196152D01*
X177800Y203200D02*
X186690Y207010D01*
X199390Y203200D01*
X228600Y203200D01*
D14*
X144288Y114300D03*
X127000Y139700D03*
D15*
X116333Y158938D02*
X120462Y163067D01*
X116333Y158938D02*
X110494Y158938D01*
X120462Y163067D02*
X129033Y163067D01*
D14*
X225863Y115549D03*
D15*
X176552Y115549D01*
X129033Y163067D01*
X76200Y193232D02*
X76200Y228600D01*
X76200Y193232D02*
X110494Y158938D01*
D14*
X76200Y342900D03*
X190500Y419100D03*
X223981Y127000D03*
X153670Y7620D03*
X190500Y11066D03*
X317500Y38100D03*
X203200Y101600D03*
X228067Y73700D03*
X25400Y330200D03*
X76200Y139700D03*
X76200Y152400D03*
X123382Y156018D03*
X113414Y165986D03*
X257080Y224917D03*
X88900Y50800D03*
X261620Y69850D03*
X228600Y88900D03*
X233702Y109198D03*
X152400Y25400D03*
X88900Y38100D03*
M02*
