G04 EAGLE Gerber RS-274X export*
G75*
%MOMM*%
%FSLAX34Y34*%
%LPD*%
%INTop Copper*%
%IPPOS*%
%AMOC8*
5,1,8,0,0,1.08239X$1,22.5*%
G01*
%ADD10R,1.500000X1.300000*%
%ADD11R,1.200000X0.550000*%
%ADD12R,1.400000X1.400000*%
%ADD13R,1.100000X1.000000*%
%ADD14R,1.200000X1.200000*%
%ADD15R,0.900000X0.850000*%
%ADD16R,1.000000X1.100000*%
%ADD17R,1.508000X1.508000*%
%ADD18C,1.508000*%
%ADD19C,1.778000*%
%ADD20R,0.850000X1.000000*%
%ADD21R,0.800000X1.700000*%
%ADD22R,1.750000X0.400000*%
%ADD23R,2.500000X1.425000*%
%ADD24C,1.158000*%
%ADD25C,1.208000*%
%ADD26R,2.450000X1.000000*%
%ADD27R,1.000000X2.450000*%
%ADD28R,11.000000X9.000000*%
%ADD29R,1.200000X0.800000*%
%ADD30C,0.127000*%
%ADD31C,0.406400*%
%ADD32C,0.800100*%
%ADD33C,0.203200*%
%ADD34C,0.152400*%
%ADD35C,0.254000*%

G36*
X37057Y170597D02*
X37057Y170597D01*
X37052Y170604D01*
X37059Y170610D01*
X37059Y188860D01*
X37023Y188907D01*
X37016Y188902D01*
X37010Y188909D01*
X30010Y188909D01*
X29963Y188873D01*
X29968Y188866D01*
X29961Y188860D01*
X29961Y183659D01*
X8510Y183659D01*
X8507Y183657D01*
X8505Y183659D01*
X7614Y183559D01*
X7608Y183553D01*
X7604Y183556D01*
X6758Y183260D01*
X6754Y183254D01*
X6748Y183256D01*
X5990Y182779D01*
X5987Y182771D01*
X5981Y182772D01*
X5348Y182139D01*
X5347Y182131D01*
X5341Y182130D01*
X4864Y181372D01*
X4865Y181364D01*
X4864Y181363D01*
X4860Y181362D01*
X4564Y180516D01*
X4566Y180509D01*
X4561Y180506D01*
X4461Y179616D01*
X4463Y179612D01*
X4461Y179610D01*
X4461Y174610D01*
X4463Y174607D01*
X4461Y174605D01*
X4561Y173714D01*
X4567Y173708D01*
X4564Y173704D01*
X4860Y172858D01*
X4866Y172854D01*
X4864Y172848D01*
X5341Y172090D01*
X5349Y172087D01*
X5348Y172081D01*
X5981Y171448D01*
X5989Y171447D01*
X5990Y171441D01*
X6748Y170964D01*
X6756Y170965D01*
X6758Y170960D01*
X7604Y170664D01*
X7611Y170666D01*
X7614Y170661D01*
X8505Y170561D01*
X8508Y170563D01*
X8510Y170561D01*
X37010Y170561D01*
X37057Y170597D01*
G37*
G36*
X37057Y110847D02*
X37057Y110847D01*
X37052Y110854D01*
X37059Y110860D01*
X37059Y129110D01*
X37023Y129157D01*
X37016Y129152D01*
X37010Y129159D01*
X8510Y129159D01*
X8507Y129157D01*
X8505Y129159D01*
X7614Y129059D01*
X7608Y129053D01*
X7604Y129056D01*
X6758Y128760D01*
X6754Y128754D01*
X6748Y128756D01*
X5990Y128279D01*
X5987Y128271D01*
X5981Y128272D01*
X5348Y127639D01*
X5347Y127631D01*
X5341Y127630D01*
X4864Y126872D01*
X4865Y126864D01*
X4860Y126862D01*
X4564Y126016D01*
X4566Y126009D01*
X4561Y126006D01*
X4461Y125116D01*
X4463Y125112D01*
X4461Y125110D01*
X4461Y120110D01*
X4463Y120107D01*
X4461Y120105D01*
X4561Y119214D01*
X4567Y119208D01*
X4564Y119204D01*
X4860Y118358D01*
X4866Y118354D01*
X4864Y118348D01*
X5341Y117590D01*
X5349Y117587D01*
X5348Y117581D01*
X5981Y116948D01*
X5989Y116947D01*
X5990Y116941D01*
X6748Y116464D01*
X6756Y116465D01*
X6758Y116460D01*
X7604Y116164D01*
X7611Y116166D01*
X7614Y116161D01*
X8505Y116061D01*
X8508Y116063D01*
X8510Y116061D01*
X29961Y116061D01*
X29961Y110860D01*
X29997Y110813D01*
X30004Y110818D01*
X30010Y110811D01*
X37010Y110811D01*
X37057Y110847D01*
G37*
G36*
X54157Y168847D02*
X54157Y168847D01*
X54152Y168854D01*
X54159Y168860D01*
X54159Y188860D01*
X54123Y188907D01*
X54116Y188902D01*
X54110Y188909D01*
X39510Y188909D01*
X39463Y188873D01*
X39465Y188870D01*
X39463Y188869D01*
X39466Y188864D01*
X39461Y188860D01*
X39461Y168860D01*
X39497Y168813D01*
X39504Y168818D01*
X39510Y168811D01*
X54110Y168811D01*
X54157Y168847D01*
G37*
G36*
X54157Y110847D02*
X54157Y110847D01*
X54152Y110854D01*
X54159Y110860D01*
X54159Y130860D01*
X54123Y130907D01*
X54116Y130902D01*
X54110Y130909D01*
X39510Y130909D01*
X39463Y130873D01*
X39465Y130870D01*
X39463Y130869D01*
X39466Y130864D01*
X39461Y130860D01*
X39461Y110860D01*
X39497Y110813D01*
X39504Y110818D01*
X39510Y110811D01*
X54110Y110811D01*
X54157Y110847D01*
G37*
D10*
X184150Y60300D03*
X184150Y41300D03*
D11*
X75899Y111100D03*
X75899Y101600D03*
X75899Y92100D03*
X101901Y92100D03*
X101901Y111100D03*
D12*
X73872Y77470D03*
X36872Y77470D03*
D10*
X203200Y60300D03*
X203200Y41300D03*
D13*
X72000Y50800D03*
X55000Y50800D03*
D14*
X91780Y190500D03*
X70780Y190500D03*
D13*
X91050Y170180D03*
X74050Y170180D03*
X245500Y101600D03*
X262500Y101600D03*
D10*
X223520Y60300D03*
X223520Y41300D03*
D15*
X119380Y97240D03*
X119380Y85640D03*
D16*
X165100Y59300D03*
X165100Y42300D03*
D10*
X241300Y60300D03*
X241300Y41300D03*
D15*
X259080Y56600D03*
X259080Y45000D03*
X275590Y45000D03*
X275590Y56600D03*
X292100Y56600D03*
X292100Y45000D03*
D13*
X169300Y25400D03*
X186300Y25400D03*
D17*
X12700Y50800D03*
D18*
X12700Y76200D03*
D19*
X25400Y228600D03*
X50800Y228600D03*
X76200Y228600D03*
X101600Y228600D03*
X127000Y228600D03*
X152400Y228600D03*
X177800Y228600D03*
X203200Y228600D03*
D17*
X241300Y184150D03*
D18*
X241300Y209550D03*
D20*
X270650Y122200D03*
X270650Y157200D03*
X288150Y122200D03*
X288150Y157200D03*
D19*
X125730Y114300D03*
D13*
X186300Y152400D03*
X169300Y152400D03*
D21*
X136380Y5080D03*
X102380Y5080D03*
D22*
X44760Y162860D03*
X44760Y156360D03*
X44760Y149860D03*
X44760Y143360D03*
X44760Y136860D03*
D23*
X14010Y159485D03*
X14010Y140235D03*
D24*
X41020Y174110D02*
X52600Y174110D01*
X52600Y125610D02*
X41020Y125610D01*
D25*
X22550Y177110D02*
X10470Y177110D01*
X10470Y122610D02*
X22550Y122610D01*
D19*
X317500Y63500D03*
X317500Y88900D03*
X317500Y114300D03*
X317500Y139700D03*
D11*
X54309Y32360D03*
X54309Y22860D03*
X54309Y13360D03*
X80311Y13360D03*
X80311Y32360D03*
D26*
X114300Y368300D03*
X114300Y382300D03*
X114300Y354300D03*
X114300Y340300D03*
X114300Y326300D03*
X114300Y312300D03*
X114300Y298300D03*
X114300Y284300D03*
D27*
X142300Y396300D03*
X156300Y396300D03*
X170300Y396300D03*
X184300Y396300D03*
X198300Y396300D03*
X212300Y396300D03*
X142300Y270300D03*
X156300Y270300D03*
X170300Y270300D03*
X184300Y270300D03*
X198300Y270300D03*
X226300Y270300D03*
X212300Y270300D03*
X226300Y396300D03*
X240300Y396300D03*
X240300Y270300D03*
D28*
X189300Y333300D03*
D13*
X245500Y241300D03*
X262500Y241300D03*
D29*
X36830Y393810D03*
X36830Y375810D03*
X58420Y406510D03*
X58420Y388510D03*
X80010Y406510D03*
X80010Y388510D03*
D19*
X215900Y0D03*
X113030Y58420D03*
D30*
X38100Y76242D02*
X36872Y77470D01*
D31*
X12742Y76242D02*
X12700Y76200D01*
X12742Y76242D02*
X38100Y76242D01*
D32*
X50800Y0D03*
D33*
X50800Y9851D01*
X54309Y13360D01*
D32*
X38100Y50800D03*
X63500Y127000D03*
X292100Y25400D03*
X289170Y203200D03*
X130810Y76200D03*
X101968Y178168D03*
D31*
X275590Y45000D02*
X292100Y45000D01*
X275590Y45000D02*
X259080Y45000D01*
X255380Y41300D01*
X241300Y41300D01*
X223520Y41300D01*
X130810Y76200D02*
X128820Y76200D01*
X292100Y45000D02*
X292100Y25400D01*
X38100Y50800D02*
X12700Y50800D01*
X101968Y180312D02*
X91780Y190500D01*
X101968Y180312D02*
X101968Y178168D01*
X270650Y184680D02*
X289170Y203200D01*
X270650Y184680D02*
X270650Y157200D01*
D30*
X130810Y76200D02*
X130810Y33510D01*
X102380Y5080D01*
D31*
X53640Y136860D02*
X44760Y136860D01*
X53640Y136860D02*
X63500Y127000D01*
X62110Y125610D02*
X46810Y125610D01*
X62110Y125610D02*
X63500Y127000D01*
X46810Y125610D02*
X19510Y125610D01*
X16510Y122610D01*
X14010Y125110D01*
X14010Y140235D01*
X14010Y159485D01*
X14010Y174610D01*
X16510Y177110D01*
X43810Y177110D01*
X46810Y174110D01*
D34*
X203200Y41300D02*
X203200Y38100D01*
D31*
X203200Y41300D02*
X184150Y41300D01*
X203200Y41300D02*
X223520Y41300D01*
X166100Y41300D02*
X165100Y42300D01*
X166100Y41300D02*
X184150Y41300D01*
D32*
X215900Y73700D03*
D31*
X128820Y76200D02*
X119380Y85640D01*
D35*
X38100Y50800D02*
X38100Y35149D01*
X50389Y22860D02*
X54309Y22860D01*
X50389Y22860D02*
X38100Y35149D01*
D31*
X142300Y393700D02*
X142300Y396300D01*
X142300Y393700D02*
X142300Y378400D01*
X198300Y322400D02*
X198300Y317500D01*
X198300Y270300D01*
X198300Y322400D02*
X142300Y378400D01*
X226300Y294400D02*
X226300Y270300D01*
X226300Y294400D02*
X198300Y322400D01*
X226300Y270300D02*
X240300Y270300D01*
X142300Y393700D02*
X129600Y406400D01*
X131900Y284300D02*
X114300Y284300D01*
X165100Y317500D02*
X198300Y317500D01*
X165100Y317500D02*
X131900Y284300D01*
X45720Y375810D02*
X58420Y388510D01*
X45720Y375810D02*
X36830Y375810D01*
X58420Y388510D02*
X80010Y388510D01*
X83710Y388510D01*
X101600Y406400D02*
X129600Y406400D01*
X101600Y406400D02*
X83710Y388510D01*
D32*
X25400Y368300D03*
D31*
X29320Y368300D01*
X36830Y375810D01*
D32*
X279400Y241300D03*
D31*
X262500Y248100D02*
X240300Y270300D01*
X262500Y248100D02*
X262500Y241300D01*
X279400Y241300D01*
D30*
X75899Y101600D02*
X63500Y101600D01*
D32*
X63500Y101600D03*
X179515Y101600D03*
X76200Y306795D03*
D34*
X76200Y279400D01*
D32*
X76200Y279400D03*
D34*
X152400Y266400D02*
X156300Y270300D01*
X152400Y266400D02*
X152400Y228600D01*
D32*
X159449Y103373D03*
D34*
X170300Y236100D02*
X170300Y270300D01*
X170300Y236100D02*
X177800Y228600D01*
D32*
X169482Y101600D03*
D34*
X184300Y247500D02*
X184300Y270300D01*
X184300Y247500D02*
X203200Y228600D01*
D32*
X218440Y186690D03*
D34*
X142300Y243900D02*
X142300Y270300D01*
X142300Y243900D02*
X127000Y228600D01*
X127000Y215900D02*
X139700Y203200D01*
X184778Y203200D01*
X185019Y203441D01*
X201689Y203441D01*
D30*
X127000Y215900D02*
X127000Y228600D01*
X201689Y203441D02*
X218440Y186690D01*
D32*
X235694Y119906D03*
D34*
X212300Y244900D02*
X212300Y270300D01*
X219710Y237490D02*
X219710Y219710D01*
X219710Y237490D02*
X212300Y244900D01*
X219710Y219710D02*
X210820Y210820D01*
X143510Y210820D01*
D32*
X143510Y210820D03*
D34*
X223520Y241300D02*
X245500Y241300D01*
X223520Y241300D02*
X219710Y237490D01*
D32*
X228600Y150312D03*
X187833Y196646D03*
D30*
X105520Y111100D02*
X101901Y111100D01*
X105520Y111100D02*
X119380Y97240D01*
X203200Y60300D02*
X223520Y60300D01*
X228600Y60300D01*
X241300Y60300D01*
D32*
X292100Y101600D03*
X260350Y187960D03*
X145352Y191923D03*
D30*
X185865Y194678D02*
X187833Y196646D01*
X245500Y101600D02*
X245500Y76200D01*
X245500Y64500D01*
X241300Y60300D01*
D32*
X203200Y25400D03*
D30*
X101901Y111100D02*
X88900Y124101D01*
X88900Y127000D01*
D32*
X88900Y127000D03*
X106584Y195484D03*
D31*
X166100Y60300D02*
X165100Y59300D01*
X166100Y60300D02*
X184150Y60300D01*
X203200Y60300D01*
X228600Y60300D01*
X223520Y60300D02*
X241300Y60300D01*
X255380Y60300D01*
X259080Y56600D01*
X275590Y56600D01*
X292100Y56600D01*
X292100Y118250D02*
X288150Y122200D01*
X292100Y118250D02*
X292100Y101600D01*
X292100Y56600D01*
X203200Y25400D02*
X186300Y25400D01*
X228600Y150312D02*
X187833Y191079D01*
X187833Y196646D01*
X190500Y127000D02*
X190500Y88900D01*
X190500Y66650D01*
X184150Y60300D01*
X173600Y182413D02*
X187833Y196646D01*
X186300Y131200D02*
X190500Y127000D01*
X186300Y131200D02*
X186300Y152400D01*
X173600Y165100D02*
X173600Y182413D01*
X173600Y165100D02*
X186300Y152400D01*
D32*
X190500Y88900D03*
X245500Y76200D03*
X140843Y76560D03*
D30*
X140060Y76560D01*
D35*
X139700Y88900D02*
X119380Y97240D01*
X139700Y88900D02*
X140060Y76560D01*
X140843Y76560D02*
X165100Y59300D01*
D32*
X25400Y304800D03*
D31*
X25400Y254000D01*
X50800Y228600D01*
X156300Y396300D02*
X170300Y396300D01*
X184300Y396300D01*
X170300Y401200D02*
X152400Y419100D01*
X170300Y401200D02*
X170300Y396300D01*
X58420Y406510D02*
X45720Y393810D01*
X36830Y393810D01*
X58420Y406510D02*
X80010Y406510D01*
X92600Y419100D01*
X152400Y419100D01*
X38100Y330200D02*
X12700Y355600D01*
X38100Y317500D02*
X25400Y304800D01*
X38100Y317500D02*
X38100Y330200D01*
X12700Y355600D02*
X12700Y369680D01*
X36830Y393810D01*
D32*
X173990Y54610D03*
D35*
X171790Y54610D01*
X166100Y60300D01*
D30*
X114316Y142416D02*
X91050Y165682D01*
X91050Y170180D01*
D32*
X114316Y126984D03*
D30*
X114316Y142416D01*
D32*
X266700Y204073D03*
X173990Y196152D03*
X144288Y114300D03*
X127000Y139700D03*
D30*
X139700Y152400D01*
X169300Y152400D01*
X144288Y147813D02*
X139700Y152400D01*
X144288Y147813D02*
X144288Y114300D01*
D32*
X225863Y115549D03*
D34*
X76200Y228600D02*
X76200Y241300D01*
X63500Y254000D01*
X63500Y330200D01*
X76200Y342900D01*
D32*
X76200Y342900D03*
X190500Y419100D03*
D34*
X203200Y419100D01*
X215900Y406400D01*
X215900Y399900D01*
X212300Y396300D01*
D32*
X223981Y127000D03*
D30*
X265850Y127000D02*
X270650Y122200D01*
X265850Y127000D02*
X223981Y127000D01*
D32*
X153670Y7620D03*
D30*
X187055Y7620D01*
X190500Y11066D01*
D32*
X190500Y11066D03*
D33*
X192135Y12700D01*
X304800Y12700D01*
X317500Y25400D01*
X317500Y38100D01*
D32*
X317500Y38100D03*
X203200Y101600D03*
X228067Y73700D03*
D30*
X203200Y98567D01*
X203200Y101600D01*
D34*
X121110Y129799D02*
X117745Y133164D01*
X117745Y143837D01*
X121110Y118920D02*
X125730Y114300D01*
X121110Y118920D02*
X121110Y129799D01*
X117745Y143837D02*
X106619Y154962D01*
X106619Y173210D01*
X113379Y179970D01*
X113379Y198298D01*
X108477Y203200D01*
X12700Y203200D02*
X12700Y317500D01*
X25400Y330200D01*
D32*
X25400Y330200D03*
D34*
X12700Y203200D02*
X108477Y203200D01*
D32*
X76200Y139700D03*
D30*
X66040Y149860D02*
X44760Y149860D01*
X66040Y149860D02*
X76200Y139700D01*
D32*
X76200Y152400D03*
X123382Y156018D03*
D30*
X113414Y165986D01*
D32*
X113414Y165986D03*
D30*
X72240Y156360D02*
X44760Y156360D01*
X72240Y156360D02*
X76200Y152400D01*
X301117Y215900D02*
X301117Y20447D01*
X298403Y17733D02*
X149033Y17733D01*
X136380Y5080D01*
X298403Y17733D02*
X301117Y20447D01*
X301117Y215900D02*
X300990Y227330D01*
X299720Y228600D01*
X260763Y228600D02*
X257080Y224917D01*
D32*
X257080Y224917D03*
D30*
X260763Y228600D02*
X299720Y228600D01*
D32*
X88900Y50800D03*
D30*
X73872Y77470D02*
X69126Y82216D01*
X60216Y82216D01*
D31*
X72000Y50800D02*
X88900Y50800D01*
X88900Y81875D01*
X89000Y81975D01*
X83582Y108414D02*
X78585Y108414D01*
X75899Y111100D01*
X89000Y102996D02*
X89000Y81975D01*
X89000Y102996D02*
X83582Y108414D01*
X75899Y111100D02*
X75899Y127994D01*
X84265Y136360D02*
X84265Y155740D01*
X84265Y136360D02*
X75899Y127994D01*
X84265Y155740D02*
X78889Y161116D01*
D35*
X72000Y50800D02*
X72000Y37469D01*
X71009Y36478D01*
X71009Y22662D01*
X80311Y13360D01*
D31*
X78889Y161116D02*
X66867Y161116D01*
X65123Y162860D01*
X44760Y162860D01*
D30*
X60300Y111100D02*
X75899Y111100D01*
X60300Y111100D02*
X50800Y101600D01*
X50800Y91632D01*
X60216Y82216D01*
X55000Y58501D02*
X55000Y50800D01*
X82135Y67422D02*
X83920Y69208D01*
X63921Y67422D02*
X55000Y58501D01*
X83920Y69208D02*
X83920Y84079D01*
X82135Y67422D02*
X63921Y67422D01*
D33*
X83920Y84079D02*
X83920Y85733D01*
X82135Y87518D01*
X80481Y87518D01*
X75899Y92100D01*
D30*
X74050Y187230D02*
X70780Y190500D01*
X74050Y187230D02*
X74050Y170180D01*
D32*
X261620Y69850D03*
D30*
X261620Y100720D01*
X262500Y101600D01*
D32*
X228600Y88900D03*
D30*
X228600Y104097D01*
X233702Y109198D01*
D32*
X233702Y109198D03*
X152400Y25400D03*
D30*
X169300Y25400D01*
D33*
X86051Y38100D02*
X80311Y32360D01*
X86051Y38100D02*
X88900Y38100D01*
D32*
X88900Y38100D03*
M02*
