G04 EAGLE Gerber RS-274X export*
G75*
%MOMM*%
%FSLAX34Y34*%
%LPD*%
%INCopper Layer 2*%
%IPPOS*%
%AMOC8*
5,1,8,0,0,1.08239X$1,22.5*%
G01*
%ADD10C,1.508000*%
%ADD11C,1.524000*%
%ADD12C,1.158000*%
%ADD13C,1.208000*%
%ADD14C,0.800100*%
%ADD15C,0.203200*%

G36*
X143500Y11434D02*
X143500Y11434D01*
X143530Y11432D01*
X143658Y11454D01*
X143787Y11471D01*
X143814Y11481D01*
X143843Y11486D01*
X143962Y11540D01*
X144082Y11588D01*
X144106Y11605D01*
X144133Y11617D01*
X144235Y11698D01*
X144340Y11774D01*
X144359Y11797D01*
X144382Y11816D01*
X144460Y11919D01*
X144543Y12019D01*
X144555Y12046D01*
X144573Y12070D01*
X144644Y12214D01*
X145110Y13340D01*
X146748Y14978D01*
X146821Y15072D01*
X146900Y15161D01*
X146918Y15197D01*
X146943Y15229D01*
X146990Y15338D01*
X147044Y15444D01*
X147053Y15483D01*
X147069Y15521D01*
X147088Y15638D01*
X147114Y15754D01*
X147113Y15795D01*
X147119Y15835D01*
X147108Y15953D01*
X147104Y16072D01*
X147093Y16111D01*
X147089Y16151D01*
X147049Y16264D01*
X147016Y16378D01*
X146995Y16413D01*
X146982Y16451D01*
X146915Y16549D01*
X146854Y16652D01*
X146814Y16697D01*
X146803Y16714D01*
X146788Y16727D01*
X146748Y16773D01*
X143840Y19680D01*
X142303Y23391D01*
X142303Y27409D01*
X143840Y31120D01*
X146680Y33960D01*
X150391Y35497D01*
X154409Y35497D01*
X158120Y33960D01*
X160960Y31120D01*
X162497Y27409D01*
X162497Y23391D01*
X160960Y19680D01*
X159322Y18043D01*
X159249Y17948D01*
X159170Y17859D01*
X159152Y17823D01*
X159127Y17791D01*
X159080Y17682D01*
X159026Y17576D01*
X159017Y17537D01*
X159001Y17499D01*
X158982Y17382D01*
X158956Y17266D01*
X158957Y17225D01*
X158951Y17185D01*
X158962Y17067D01*
X158966Y16948D01*
X158977Y16909D01*
X158981Y16869D01*
X159021Y16756D01*
X159054Y16642D01*
X159075Y16608D01*
X159088Y16569D01*
X159155Y16471D01*
X159216Y16368D01*
X159256Y16323D01*
X159267Y16306D01*
X159282Y16293D01*
X159322Y16248D01*
X162230Y13340D01*
X162696Y12214D01*
X162711Y12189D01*
X162720Y12161D01*
X162789Y12051D01*
X162854Y11938D01*
X162874Y11917D01*
X162890Y11892D01*
X162985Y11803D01*
X163075Y11710D01*
X163100Y11694D01*
X163122Y11674D01*
X163235Y11611D01*
X163346Y11543D01*
X163374Y11535D01*
X163400Y11520D01*
X163526Y11488D01*
X163650Y11450D01*
X163680Y11448D01*
X163708Y11441D01*
X163869Y11431D01*
X179134Y11431D01*
X179252Y11446D01*
X179370Y11453D01*
X179409Y11466D01*
X179449Y11471D01*
X179560Y11514D01*
X179673Y11551D01*
X179707Y11573D01*
X179745Y11588D01*
X179841Y11657D01*
X179942Y11721D01*
X179969Y11751D01*
X180002Y11774D01*
X180078Y11866D01*
X180160Y11953D01*
X180179Y11988D01*
X180205Y12019D01*
X180256Y12127D01*
X180313Y12231D01*
X180323Y12271D01*
X180340Y12307D01*
X180363Y12424D01*
X180393Y12539D01*
X180396Y12599D01*
X180400Y12619D01*
X180399Y12640D01*
X180403Y12700D01*
X180403Y13074D01*
X181940Y16785D01*
X184780Y19626D01*
X188491Y21163D01*
X192126Y21163D01*
X192176Y21169D01*
X192225Y21167D01*
X192333Y21189D01*
X192442Y21203D01*
X192488Y21221D01*
X192537Y21231D01*
X192636Y21279D01*
X192738Y21320D01*
X192778Y21349D01*
X192823Y21371D01*
X192906Y21442D01*
X192995Y21506D01*
X193027Y21545D01*
X193065Y21577D01*
X193128Y21667D01*
X193198Y21751D01*
X193219Y21796D01*
X193248Y21837D01*
X193287Y21940D01*
X193333Y22039D01*
X193343Y22088D01*
X193360Y22134D01*
X193372Y22244D01*
X193393Y22351D01*
X193390Y22401D01*
X193396Y22450D01*
X193380Y22559D01*
X193373Y22669D01*
X193358Y22716D01*
X193351Y22765D01*
X193299Y22918D01*
X193103Y23392D01*
X193103Y27409D01*
X194640Y31120D01*
X197480Y33960D01*
X201191Y35497D01*
X205209Y35497D01*
X208920Y33960D01*
X211760Y31120D01*
X213297Y27409D01*
X213297Y23391D01*
X211760Y19680D01*
X208920Y16840D01*
X205209Y15303D01*
X201574Y15303D01*
X201524Y15297D01*
X201475Y15299D01*
X201367Y15277D01*
X201258Y15263D01*
X201212Y15245D01*
X201163Y15235D01*
X201064Y15186D01*
X200962Y15146D01*
X200922Y15117D01*
X200878Y15095D01*
X200794Y15024D01*
X200705Y14959D01*
X200673Y14921D01*
X200636Y14889D01*
X200572Y14799D01*
X200502Y14714D01*
X200481Y14669D01*
X200452Y14629D01*
X200413Y14526D01*
X200367Y14426D01*
X200357Y14378D01*
X200340Y14331D01*
X200328Y14222D01*
X200307Y14114D01*
X200310Y14065D01*
X200304Y14015D01*
X200320Y13906D01*
X200327Y13797D01*
X200342Y13749D01*
X200349Y13700D01*
X200401Y13548D01*
X200597Y13074D01*
X200597Y12700D01*
X200612Y12582D01*
X200620Y12463D01*
X200632Y12425D01*
X200637Y12384D01*
X200681Y12274D01*
X200718Y12161D01*
X200739Y12126D01*
X200754Y12089D01*
X200824Y11993D01*
X200888Y11892D01*
X200917Y11864D01*
X200941Y11831D01*
X201033Y11755D01*
X201119Y11674D01*
X201155Y11654D01*
X201186Y11629D01*
X201294Y11578D01*
X201398Y11520D01*
X201437Y11510D01*
X201474Y11493D01*
X201590Y11471D01*
X201706Y11441D01*
X201766Y11437D01*
X201786Y11433D01*
X201806Y11435D01*
X201866Y11431D01*
X207407Y11431D01*
X207507Y11443D01*
X207608Y11447D01*
X207664Y11463D01*
X207722Y11471D01*
X207752Y11482D01*
X207888Y11529D01*
X207913Y11536D01*
X207927Y11544D01*
X213172Y13717D01*
X218628Y13717D01*
X223903Y11532D01*
X223905Y11531D01*
X223925Y11520D01*
X223983Y11505D01*
X224039Y11481D01*
X224137Y11466D01*
X224233Y11441D01*
X224333Y11435D01*
X224353Y11431D01*
X224365Y11433D01*
X224393Y11431D01*
X304017Y11431D01*
X304046Y11434D01*
X304076Y11432D01*
X304204Y11454D01*
X304333Y11471D01*
X304360Y11481D01*
X304389Y11487D01*
X304508Y11540D01*
X304628Y11588D01*
X304652Y11605D01*
X304679Y11617D01*
X304780Y11698D01*
X304886Y11774D01*
X304904Y11797D01*
X304927Y11816D01*
X305005Y11919D01*
X305088Y12019D01*
X305101Y12046D01*
X305119Y12070D01*
X305190Y12214D01*
X306645Y15727D01*
X311933Y21015D01*
X318841Y23877D01*
X326319Y23877D01*
X329714Y22470D01*
X329762Y22457D01*
X329807Y22436D01*
X329915Y22415D01*
X330021Y22386D01*
X330071Y22386D01*
X330120Y22376D01*
X330229Y22383D01*
X330339Y22381D01*
X330387Y22393D01*
X330437Y22396D01*
X330541Y22430D01*
X330648Y22455D01*
X330692Y22479D01*
X330739Y22494D01*
X330832Y22553D01*
X330929Y22604D01*
X330966Y22638D01*
X331008Y22664D01*
X331083Y22744D01*
X331165Y22818D01*
X331192Y22860D01*
X331226Y22896D01*
X331279Y22992D01*
X331339Y23084D01*
X331356Y23131D01*
X331380Y23174D01*
X331407Y23281D01*
X331443Y23385D01*
X331447Y23434D01*
X331459Y23482D01*
X331469Y23643D01*
X331469Y55209D01*
X331461Y55279D01*
X331462Y55348D01*
X331441Y55436D01*
X331429Y55525D01*
X331404Y55590D01*
X331387Y55658D01*
X331345Y55737D01*
X331312Y55821D01*
X331271Y55877D01*
X331239Y55939D01*
X331178Y56005D01*
X331126Y56078D01*
X331072Y56123D01*
X331025Y56174D01*
X330950Y56223D01*
X330881Y56281D01*
X330817Y56311D01*
X330759Y56349D01*
X330674Y56378D01*
X330593Y56416D01*
X330524Y56429D01*
X330458Y56452D01*
X330369Y56459D01*
X330281Y56476D01*
X330211Y56472D01*
X330141Y56477D01*
X330053Y56462D01*
X329963Y56456D01*
X329897Y56435D01*
X329828Y56423D01*
X329746Y56386D01*
X329661Y56358D01*
X329602Y56321D01*
X329538Y56292D01*
X329468Y56236D01*
X329392Y56188D01*
X329344Y56137D01*
X329290Y56094D01*
X329236Y56022D01*
X329174Y55956D01*
X329140Y55895D01*
X329098Y55840D01*
X329073Y55787D01*
X325225Y51939D01*
X320680Y50057D01*
X320560Y49988D01*
X320437Y49923D01*
X320422Y49910D01*
X320404Y49900D01*
X320304Y49803D01*
X320201Y49709D01*
X320190Y49692D01*
X320176Y49678D01*
X320103Y49560D01*
X320027Y49444D01*
X320020Y49424D01*
X320009Y49407D01*
X319969Y49275D01*
X319923Y49143D01*
X319922Y49123D01*
X319916Y49103D01*
X319909Y48965D01*
X319898Y48826D01*
X319902Y48806D01*
X319901Y48786D01*
X319929Y48650D01*
X319953Y48512D01*
X319961Y48494D01*
X319965Y48474D01*
X320026Y48349D01*
X320083Y48222D01*
X320096Y48207D01*
X320105Y48188D01*
X320195Y48082D01*
X320282Y47974D01*
X320298Y47962D01*
X320311Y47946D01*
X320425Y47866D01*
X320536Y47783D01*
X320561Y47770D01*
X320571Y47763D01*
X320590Y47756D01*
X320680Y47712D01*
X323220Y46660D01*
X326060Y43820D01*
X327597Y40109D01*
X327597Y36091D01*
X326060Y32380D01*
X323220Y29540D01*
X319509Y28003D01*
X315491Y28003D01*
X311780Y29540D01*
X308940Y32380D01*
X307403Y36091D01*
X307403Y40109D01*
X308940Y43820D01*
X311780Y46660D01*
X314320Y47712D01*
X314440Y47781D01*
X314563Y47846D01*
X314578Y47859D01*
X314596Y47869D01*
X314696Y47966D01*
X314799Y48060D01*
X314810Y48076D01*
X314824Y48091D01*
X314897Y48209D01*
X314973Y48325D01*
X314980Y48345D01*
X314991Y48362D01*
X315031Y48494D01*
X315077Y48626D01*
X315078Y48646D01*
X315084Y48666D01*
X315091Y48804D01*
X315102Y48943D01*
X315098Y48963D01*
X315099Y48983D01*
X315071Y49119D01*
X315047Y49257D01*
X315039Y49275D01*
X315035Y49295D01*
X314974Y49420D01*
X314917Y49546D01*
X314904Y49562D01*
X314895Y49581D01*
X314805Y49687D01*
X314718Y49795D01*
X314702Y49807D01*
X314689Y49823D01*
X314575Y49903D01*
X314464Y49986D01*
X314439Y49999D01*
X314429Y50006D01*
X314410Y50013D01*
X314320Y50057D01*
X309775Y51939D01*
X305939Y55775D01*
X303863Y60787D01*
X303863Y66213D01*
X305939Y71225D01*
X309805Y75090D01*
X309816Y75096D01*
X309939Y75161D01*
X309954Y75175D01*
X309971Y75185D01*
X310072Y75282D01*
X310174Y75375D01*
X310185Y75392D01*
X310200Y75406D01*
X310272Y75525D01*
X310349Y75641D01*
X310355Y75660D01*
X310366Y75677D01*
X310407Y75810D01*
X310452Y75942D01*
X310454Y75962D01*
X310460Y75981D01*
X310466Y76120D01*
X310477Y76259D01*
X310474Y76279D01*
X310475Y76299D01*
X310447Y76435D01*
X310423Y76572D01*
X310415Y76591D01*
X310411Y76610D01*
X310350Y76735D01*
X310292Y76862D01*
X310280Y76878D01*
X310271Y76896D01*
X310180Y77002D01*
X310094Y77110D01*
X310078Y77122D01*
X310065Y77138D01*
X309950Y77218D01*
X309840Y77302D01*
X309815Y77314D01*
X309805Y77321D01*
X309787Y77328D01*
X305939Y81175D01*
X303863Y86187D01*
X303863Y91613D01*
X305939Y96625D01*
X309805Y100490D01*
X309816Y100496D01*
X309939Y100561D01*
X309954Y100575D01*
X309971Y100585D01*
X310072Y100682D01*
X310174Y100775D01*
X310185Y100792D01*
X310200Y100806D01*
X310272Y100925D01*
X310349Y101041D01*
X310355Y101060D01*
X310366Y101077D01*
X310407Y101210D01*
X310452Y101342D01*
X310454Y101362D01*
X310460Y101381D01*
X310466Y101520D01*
X310477Y101659D01*
X310474Y101679D01*
X310475Y101699D01*
X310447Y101835D01*
X310423Y101972D01*
X310415Y101991D01*
X310411Y102010D01*
X310350Y102135D01*
X310292Y102262D01*
X310280Y102278D01*
X310271Y102296D01*
X310180Y102402D01*
X310094Y102510D01*
X310078Y102522D01*
X310065Y102538D01*
X309950Y102618D01*
X309840Y102702D01*
X309815Y102714D01*
X309805Y102721D01*
X309787Y102728D01*
X305939Y106575D01*
X303863Y111587D01*
X303863Y117013D01*
X305939Y122025D01*
X309775Y125861D01*
X314376Y127766D01*
X314402Y127781D01*
X314430Y127790D01*
X314539Y127859D01*
X314652Y127924D01*
X314674Y127945D01*
X314699Y127961D01*
X314787Y128055D01*
X314881Y128145D01*
X314896Y128171D01*
X314917Y128192D01*
X314979Y128306D01*
X315047Y128416D01*
X315056Y128445D01*
X315070Y128471D01*
X315102Y128596D01*
X315140Y128720D01*
X315142Y128750D01*
X315149Y128779D01*
X315149Y128909D01*
X315155Y129038D01*
X315149Y129067D01*
X315149Y129097D01*
X315117Y129223D01*
X315091Y129349D01*
X315078Y129376D01*
X315071Y129405D01*
X315008Y129518D01*
X314951Y129635D01*
X314932Y129658D01*
X314918Y129684D01*
X314829Y129778D01*
X314745Y129877D01*
X314721Y129894D01*
X314700Y129916D01*
X314591Y129985D01*
X314485Y130060D01*
X314457Y130071D01*
X314432Y130087D01*
X314282Y130146D01*
X313630Y130358D01*
X312217Y131078D01*
X310933Y132011D01*
X309811Y133133D01*
X308878Y134417D01*
X308158Y135830D01*
X307713Y137201D01*
X316270Y137201D01*
X316388Y137216D01*
X316507Y137223D01*
X316545Y137235D01*
X316585Y137241D01*
X316696Y137284D01*
X316809Y137321D01*
X316843Y137343D01*
X316881Y137358D01*
X316977Y137427D01*
X317078Y137491D01*
X317106Y137521D01*
X317138Y137544D01*
X317214Y137636D01*
X317296Y137723D01*
X317315Y137758D01*
X317341Y137789D01*
X317392Y137897D01*
X317449Y138001D01*
X317459Y138041D01*
X317477Y138077D01*
X317497Y138184D01*
X317501Y138154D01*
X317545Y138044D01*
X317581Y137931D01*
X317603Y137896D01*
X317618Y137859D01*
X317688Y137762D01*
X317751Y137662D01*
X317781Y137634D01*
X317805Y137601D01*
X317896Y137525D01*
X317983Y137444D01*
X318018Y137424D01*
X318050Y137399D01*
X318157Y137348D01*
X318262Y137290D01*
X318301Y137280D01*
X318337Y137263D01*
X318454Y137241D01*
X318570Y137211D01*
X318630Y137207D01*
X318650Y137203D01*
X318670Y137205D01*
X318730Y137201D01*
X327287Y137201D01*
X326842Y135830D01*
X326122Y134417D01*
X325189Y133133D01*
X324067Y132011D01*
X322783Y131078D01*
X321370Y130358D01*
X320718Y130146D01*
X320691Y130133D01*
X320662Y130126D01*
X320547Y130066D01*
X320430Y130011D01*
X320407Y129992D01*
X320381Y129978D01*
X320285Y129890D01*
X320185Y129808D01*
X320167Y129784D01*
X320145Y129764D01*
X320074Y129655D01*
X319998Y129551D01*
X319987Y129523D01*
X319970Y129498D01*
X319928Y129375D01*
X319881Y129255D01*
X319877Y129225D01*
X319867Y129197D01*
X319857Y129068D01*
X319841Y128940D01*
X319844Y128910D01*
X319842Y128880D01*
X319864Y128752D01*
X319880Y128624D01*
X319891Y128596D01*
X319896Y128567D01*
X319950Y128449D01*
X319997Y128328D01*
X320015Y128304D01*
X320027Y128277D01*
X320108Y128175D01*
X320184Y128071D01*
X320207Y128052D01*
X320226Y128028D01*
X320329Y127951D01*
X320429Y127868D01*
X320456Y127855D01*
X320480Y127837D01*
X320624Y127766D01*
X325225Y125861D01*
X329076Y122010D01*
X329088Y121979D01*
X329140Y121907D01*
X329185Y121829D01*
X329233Y121779D01*
X329274Y121722D01*
X329344Y121665D01*
X329406Y121600D01*
X329466Y121564D01*
X329519Y121519D01*
X329601Y121481D01*
X329677Y121434D01*
X329744Y121413D01*
X329807Y121384D01*
X329895Y121367D01*
X329981Y121340D01*
X330051Y121337D01*
X330120Y121324D01*
X330209Y121330D01*
X330299Y121325D01*
X330367Y121339D01*
X330437Y121344D01*
X330522Y121371D01*
X330610Y121390D01*
X330673Y121420D01*
X330739Y121442D01*
X330815Y121490D01*
X330896Y121529D01*
X330949Y121574D01*
X331008Y121612D01*
X331070Y121677D01*
X331138Y121736D01*
X331178Y121793D01*
X331226Y121844D01*
X331269Y121922D01*
X331321Y121996D01*
X331346Y122061D01*
X331380Y122122D01*
X331402Y122209D01*
X331434Y122293D01*
X331442Y122362D01*
X331459Y122430D01*
X331469Y122591D01*
X331469Y189717D01*
X331463Y189766D01*
X331465Y189816D01*
X331443Y189923D01*
X331429Y190033D01*
X331411Y190079D01*
X331401Y190127D01*
X331353Y190226D01*
X331312Y190328D01*
X331283Y190368D01*
X331261Y190413D01*
X331190Y190497D01*
X331126Y190586D01*
X331087Y190617D01*
X331055Y190655D01*
X330965Y190718D01*
X330881Y190788D01*
X330836Y190810D01*
X330795Y190838D01*
X330692Y190877D01*
X330593Y190924D01*
X330544Y190933D01*
X330498Y190951D01*
X330388Y190963D01*
X330281Y190984D01*
X330231Y190981D01*
X330182Y190986D01*
X330073Y190971D01*
X329963Y190964D01*
X329916Y190949D01*
X329867Y190942D01*
X329714Y190890D01*
X326319Y189483D01*
X318841Y189483D01*
X311933Y192345D01*
X306645Y197633D01*
X303783Y204541D01*
X303783Y212019D01*
X306645Y218927D01*
X311933Y224215D01*
X318841Y227077D01*
X326319Y227077D01*
X329714Y225670D01*
X329762Y225657D01*
X329807Y225636D01*
X329915Y225615D01*
X330021Y225586D01*
X330071Y225586D01*
X330120Y225576D01*
X330229Y225583D01*
X330339Y225581D01*
X330387Y225593D01*
X330437Y225596D01*
X330541Y225630D01*
X330648Y225655D01*
X330692Y225679D01*
X330739Y225694D01*
X330832Y225753D01*
X330929Y225804D01*
X330966Y225838D01*
X331008Y225864D01*
X331083Y225944D01*
X331165Y226018D01*
X331192Y226060D01*
X331226Y226096D01*
X331279Y226192D01*
X331339Y226284D01*
X331356Y226331D01*
X331380Y226374D01*
X331407Y226481D01*
X331443Y226585D01*
X331447Y226634D01*
X331459Y226682D01*
X331469Y226843D01*
X331469Y254000D01*
X331454Y254118D01*
X331447Y254237D01*
X331434Y254275D01*
X331429Y254316D01*
X331386Y254426D01*
X331349Y254539D01*
X331327Y254574D01*
X331312Y254611D01*
X331243Y254707D01*
X331179Y254808D01*
X331149Y254836D01*
X331126Y254869D01*
X331034Y254945D01*
X330947Y255026D01*
X330912Y255046D01*
X330881Y255071D01*
X330773Y255122D01*
X330669Y255180D01*
X330629Y255190D01*
X330593Y255207D01*
X330476Y255229D01*
X330361Y255259D01*
X330301Y255263D01*
X330281Y255267D01*
X330260Y255265D01*
X330200Y255269D01*
X7493Y255269D01*
X7375Y255254D01*
X7256Y255247D01*
X7218Y255234D01*
X7177Y255229D01*
X7067Y255186D01*
X6954Y255149D01*
X6919Y255127D01*
X6882Y255112D01*
X6786Y255042D01*
X6685Y254979D01*
X6657Y254949D01*
X6624Y254926D01*
X6548Y254834D01*
X6467Y254747D01*
X6447Y254712D01*
X6422Y254681D01*
X6371Y254573D01*
X6313Y254469D01*
X6303Y254429D01*
X6286Y254393D01*
X6264Y254276D01*
X6234Y254161D01*
X6230Y254100D01*
X6226Y254080D01*
X6228Y254060D01*
X6224Y254000D01*
X6224Y181080D01*
X6232Y181011D01*
X6231Y180941D01*
X6252Y180854D01*
X6264Y180765D01*
X6289Y180700D01*
X6306Y180632D01*
X6348Y180552D01*
X6381Y180469D01*
X6422Y180413D01*
X6454Y180351D01*
X6515Y180284D01*
X6567Y180212D01*
X6621Y180167D01*
X6668Y180115D01*
X6743Y180066D01*
X6812Y180009D01*
X6876Y179979D01*
X6934Y179941D01*
X7019Y179912D01*
X7100Y179873D01*
X7169Y179860D01*
X7235Y179838D01*
X7324Y179830D01*
X7412Y179814D01*
X7482Y179818D01*
X7552Y179812D01*
X7640Y179828D01*
X7730Y179833D01*
X7796Y179855D01*
X7865Y179867D01*
X7947Y179904D01*
X8032Y179931D01*
X8091Y179969D01*
X8155Y179997D01*
X8225Y180053D01*
X8301Y180101D01*
X8349Y180152D01*
X8403Y180196D01*
X8458Y180268D01*
X8519Y180333D01*
X8553Y180394D01*
X8595Y180450D01*
X8666Y180595D01*
X8906Y181175D01*
X9845Y182580D01*
X11040Y183775D01*
X12446Y184714D01*
X14007Y185361D01*
X14761Y185511D01*
X14761Y177590D01*
X14776Y177472D01*
X14783Y177353D01*
X14795Y177315D01*
X14801Y177275D01*
X14844Y177164D01*
X14860Y177116D01*
X14850Y177098D01*
X14840Y177059D01*
X14823Y177023D01*
X14801Y176906D01*
X14771Y176790D01*
X14767Y176730D01*
X14763Y176710D01*
X14765Y176690D01*
X14761Y176630D01*
X14761Y168709D01*
X14007Y168859D01*
X12446Y169506D01*
X11040Y170445D01*
X9845Y171640D01*
X8906Y173045D01*
X8666Y173625D01*
X8631Y173686D01*
X8605Y173751D01*
X8553Y173824D01*
X8508Y173902D01*
X8460Y173952D01*
X8419Y174008D01*
X8349Y174066D01*
X8287Y174130D01*
X8227Y174167D01*
X8174Y174211D01*
X8092Y174249D01*
X8016Y174296D01*
X7949Y174317D01*
X7886Y174347D01*
X7798Y174364D01*
X7712Y174390D01*
X7642Y174393D01*
X7573Y174407D01*
X7484Y174401D01*
X7394Y174405D01*
X7326Y174391D01*
X7256Y174387D01*
X7171Y174359D01*
X7083Y174341D01*
X7020Y174310D01*
X6954Y174289D01*
X6878Y174241D01*
X6797Y174201D01*
X6744Y174156D01*
X6685Y174119D01*
X6623Y174053D01*
X6555Y173995D01*
X6515Y173938D01*
X6467Y173887D01*
X6424Y173808D01*
X6372Y173735D01*
X6347Y173670D01*
X6313Y173608D01*
X6291Y173522D01*
X6259Y173438D01*
X6251Y173368D01*
X6234Y173301D01*
X6224Y173140D01*
X6224Y126580D01*
X6232Y126511D01*
X6231Y126441D01*
X6252Y126354D01*
X6264Y126265D01*
X6289Y126200D01*
X6306Y126132D01*
X6348Y126052D01*
X6381Y125969D01*
X6422Y125913D01*
X6454Y125851D01*
X6515Y125784D01*
X6567Y125712D01*
X6621Y125667D01*
X6668Y125615D01*
X6743Y125566D01*
X6812Y125509D01*
X6876Y125479D01*
X6934Y125441D01*
X7019Y125412D01*
X7100Y125373D01*
X7169Y125360D01*
X7235Y125338D01*
X7324Y125330D01*
X7412Y125314D01*
X7482Y125318D01*
X7552Y125312D01*
X7640Y125328D01*
X7730Y125333D01*
X7796Y125355D01*
X7865Y125367D01*
X7947Y125404D01*
X8032Y125431D01*
X8091Y125469D01*
X8155Y125497D01*
X8225Y125553D01*
X8301Y125601D01*
X8349Y125652D01*
X8403Y125696D01*
X8458Y125768D01*
X8519Y125833D01*
X8553Y125894D01*
X8595Y125950D01*
X8666Y126095D01*
X8906Y126675D01*
X9845Y128080D01*
X11040Y129275D01*
X12446Y130214D01*
X14007Y130861D01*
X14761Y131011D01*
X14761Y123090D01*
X14776Y122972D01*
X14783Y122853D01*
X14795Y122815D01*
X14801Y122775D01*
X14844Y122664D01*
X14860Y122616D01*
X14850Y122598D01*
X14840Y122559D01*
X14823Y122523D01*
X14801Y122406D01*
X14771Y122290D01*
X14767Y122230D01*
X14763Y122210D01*
X14765Y122190D01*
X14761Y122130D01*
X14761Y114209D01*
X14007Y114359D01*
X12446Y115006D01*
X11040Y115945D01*
X9845Y117140D01*
X8906Y118545D01*
X8666Y119125D01*
X8631Y119186D01*
X8605Y119251D01*
X8553Y119324D01*
X8508Y119402D01*
X8460Y119452D01*
X8419Y119508D01*
X8349Y119566D01*
X8287Y119630D01*
X8227Y119667D01*
X8174Y119711D01*
X8092Y119749D01*
X8016Y119796D01*
X7949Y119817D01*
X7886Y119847D01*
X7798Y119864D01*
X7712Y119890D01*
X7642Y119893D01*
X7573Y119906D01*
X7484Y119901D01*
X7394Y119905D01*
X7326Y119891D01*
X7256Y119887D01*
X7171Y119859D01*
X7083Y119841D01*
X7020Y119810D01*
X6954Y119789D01*
X6878Y119741D01*
X6797Y119701D01*
X6744Y119656D01*
X6685Y119619D01*
X6623Y119553D01*
X6555Y119495D01*
X6515Y119438D01*
X6467Y119387D01*
X6424Y119308D01*
X6372Y119235D01*
X6347Y119170D01*
X6313Y119108D01*
X6291Y119021D01*
X6259Y118937D01*
X6251Y118868D01*
X6234Y118800D01*
X6224Y118640D01*
X6224Y90177D01*
X6230Y90128D01*
X6228Y90078D01*
X6250Y89971D01*
X6264Y89862D01*
X6282Y89815D01*
X6292Y89767D01*
X6340Y89668D01*
X6381Y89566D01*
X6410Y89526D01*
X6432Y89481D01*
X6503Y89398D01*
X6567Y89309D01*
X6606Y89277D01*
X6638Y89239D01*
X6728Y89176D01*
X6812Y89106D01*
X6857Y89085D01*
X6898Y89056D01*
X7001Y89017D01*
X7100Y88970D01*
X7149Y88961D01*
X7195Y88943D01*
X7305Y88931D01*
X7412Y88911D01*
X7462Y88914D01*
X7511Y88908D01*
X7620Y88924D01*
X7730Y88930D01*
X7777Y88946D01*
X7826Y88953D01*
X7979Y89005D01*
X9988Y89837D01*
X15413Y89837D01*
X20425Y87761D01*
X24261Y83925D01*
X26337Y78913D01*
X26337Y73487D01*
X24261Y68475D01*
X20425Y64639D01*
X15824Y62734D01*
X15798Y62719D01*
X15770Y62710D01*
X15660Y62640D01*
X15548Y62576D01*
X15526Y62555D01*
X15501Y62539D01*
X15413Y62445D01*
X15319Y62355D01*
X15304Y62329D01*
X15283Y62308D01*
X15221Y62195D01*
X15153Y62084D01*
X15144Y62055D01*
X15130Y62029D01*
X15098Y61904D01*
X15060Y61780D01*
X15058Y61750D01*
X15051Y61721D01*
X15051Y61591D01*
X15044Y61462D01*
X15051Y61433D01*
X15050Y61403D01*
X15083Y61278D01*
X15109Y61151D01*
X15122Y61124D01*
X15129Y61095D01*
X15191Y60982D01*
X15248Y60865D01*
X15268Y60842D01*
X15282Y60816D01*
X15371Y60722D01*
X15455Y60623D01*
X15479Y60606D01*
X15500Y60584D01*
X15609Y60515D01*
X15715Y60440D01*
X15743Y60429D01*
X15768Y60413D01*
X15918Y60354D01*
X16570Y60142D01*
X17983Y59422D01*
X19267Y58489D01*
X20389Y57367D01*
X21322Y56083D01*
X22042Y54670D01*
X22487Y53299D01*
X13930Y53299D01*
X13812Y53284D01*
X13693Y53277D01*
X13655Y53264D01*
X13615Y53259D01*
X13504Y53216D01*
X13391Y53179D01*
X13357Y53157D01*
X13319Y53142D01*
X13223Y53073D01*
X13122Y53009D01*
X13094Y52979D01*
X13062Y52956D01*
X12986Y52864D01*
X12904Y52777D01*
X12885Y52742D01*
X12859Y52711D01*
X12808Y52603D01*
X12751Y52499D01*
X12741Y52459D01*
X12723Y52423D01*
X12701Y52306D01*
X12671Y52191D01*
X12667Y52131D01*
X12664Y52111D01*
X12665Y52090D01*
X12661Y52030D01*
X12661Y50839D01*
X11470Y50839D01*
X11352Y50824D01*
X11233Y50817D01*
X11195Y50804D01*
X11154Y50799D01*
X11044Y50755D01*
X10931Y50719D01*
X10896Y50697D01*
X10859Y50682D01*
X10762Y50612D01*
X10662Y50549D01*
X10634Y50519D01*
X10601Y50495D01*
X10525Y50404D01*
X10444Y50317D01*
X10424Y50282D01*
X10399Y50250D01*
X10348Y50143D01*
X10290Y50038D01*
X10280Y49999D01*
X10263Y49963D01*
X10241Y49846D01*
X10211Y49730D01*
X10207Y49670D01*
X10203Y49650D01*
X10205Y49630D01*
X10201Y49570D01*
X10201Y41013D01*
X8830Y41458D01*
X8069Y41846D01*
X7976Y41879D01*
X7886Y41922D01*
X7827Y41933D01*
X7770Y41953D01*
X7671Y41963D01*
X7573Y41981D01*
X7513Y41978D01*
X7453Y41983D01*
X7355Y41968D01*
X7256Y41962D01*
X7199Y41943D01*
X7139Y41934D01*
X7048Y41894D01*
X6954Y41864D01*
X6903Y41831D01*
X6847Y41808D01*
X6769Y41747D01*
X6685Y41693D01*
X6644Y41650D01*
X6596Y41613D01*
X6535Y41534D01*
X6467Y41462D01*
X6438Y41409D01*
X6401Y41362D01*
X6361Y41270D01*
X6313Y41183D01*
X6298Y41125D01*
X6274Y41070D01*
X6259Y40971D01*
X6234Y40875D01*
X6228Y40776D01*
X6224Y40756D01*
X6226Y40743D01*
X6224Y40715D01*
X6224Y21901D01*
X6241Y21763D01*
X6254Y21624D01*
X6261Y21605D01*
X6264Y21585D01*
X6315Y21456D01*
X6362Y21325D01*
X6373Y21308D01*
X6381Y21289D01*
X6462Y21177D01*
X6540Y21062D01*
X6556Y21048D01*
X6567Y21032D01*
X6675Y20943D01*
X6779Y20851D01*
X6797Y20842D01*
X6812Y20829D01*
X6938Y20770D01*
X7062Y20707D01*
X7082Y20702D01*
X7100Y20694D01*
X7237Y20667D01*
X7372Y20637D01*
X7393Y20638D01*
X7412Y20634D01*
X7551Y20642D01*
X7690Y20647D01*
X7710Y20652D01*
X7730Y20654D01*
X7862Y20696D01*
X7996Y20735D01*
X8013Y20745D01*
X8032Y20752D01*
X8150Y20826D01*
X8270Y20897D01*
X8291Y20915D01*
X8301Y20922D01*
X8315Y20937D01*
X8391Y21003D01*
X8403Y21015D01*
X15311Y23877D01*
X22789Y23877D01*
X29697Y21015D01*
X34985Y15727D01*
X36440Y12214D01*
X36455Y12189D01*
X36464Y12161D01*
X36534Y12051D01*
X36598Y11938D01*
X36618Y11917D01*
X36634Y11892D01*
X36729Y11803D01*
X36819Y11710D01*
X36844Y11694D01*
X36866Y11674D01*
X36979Y11611D01*
X37090Y11543D01*
X37118Y11535D01*
X37144Y11520D01*
X37270Y11488D01*
X37394Y11450D01*
X37424Y11448D01*
X37452Y11441D01*
X37613Y11431D01*
X143471Y11431D01*
X143500Y11434D01*
G37*
%LPC*%
G36*
X171981Y44513D02*
X171981Y44513D01*
X168270Y46050D01*
X165430Y48890D01*
X163893Y52601D01*
X163893Y56619D01*
X165411Y60284D01*
X165424Y60332D01*
X165445Y60377D01*
X165466Y60484D01*
X165495Y60591D01*
X165496Y60640D01*
X165505Y60689D01*
X165498Y60799D01*
X165500Y60909D01*
X165488Y60957D01*
X165485Y61006D01*
X165452Y61111D01*
X165426Y61218D01*
X165403Y61262D01*
X165387Y61309D01*
X165329Y61402D01*
X165277Y61499D01*
X165244Y61536D01*
X165217Y61578D01*
X165137Y61653D01*
X165063Y61734D01*
X165022Y61762D01*
X164985Y61796D01*
X164889Y61849D01*
X164797Y61909D01*
X164750Y61925D01*
X164707Y61949D01*
X164601Y61977D01*
X164497Y62012D01*
X164447Y62016D01*
X164399Y62029D01*
X164238Y62039D01*
X156887Y62039D01*
X154273Y63122D01*
X148876Y68518D01*
X148782Y68591D01*
X148693Y68670D01*
X148657Y68688D01*
X148625Y68713D01*
X148515Y68761D01*
X148409Y68815D01*
X148370Y68824D01*
X148333Y68840D01*
X148215Y68858D01*
X148099Y68884D01*
X148059Y68883D01*
X148019Y68889D01*
X147900Y68878D01*
X147781Y68875D01*
X147742Y68863D01*
X147702Y68860D01*
X147590Y68819D01*
X147476Y68786D01*
X147441Y68766D01*
X147403Y68752D01*
X147304Y68685D01*
X147202Y68625D01*
X147157Y68585D01*
X147140Y68573D01*
X147126Y68558D01*
X147081Y68518D01*
X146563Y68000D01*
X142852Y66463D01*
X138834Y66463D01*
X135123Y68000D01*
X132283Y70840D01*
X130746Y74551D01*
X130746Y78569D01*
X132283Y82280D01*
X135123Y85120D01*
X138834Y86657D01*
X142852Y86657D01*
X143532Y86375D01*
X143580Y86362D01*
X143625Y86341D01*
X143733Y86320D01*
X143839Y86291D01*
X143889Y86291D01*
X143938Y86281D01*
X144047Y86288D01*
X144157Y86286D01*
X144205Y86298D01*
X144255Y86301D01*
X144359Y86335D01*
X144466Y86360D01*
X144510Y86384D01*
X144557Y86399D01*
X144650Y86458D01*
X144747Y86509D01*
X144784Y86543D01*
X144826Y86569D01*
X144901Y86649D01*
X144983Y86723D01*
X145010Y86765D01*
X145044Y86801D01*
X145097Y86897D01*
X145157Y86989D01*
X145174Y87036D01*
X145198Y87079D01*
X145225Y87186D01*
X145261Y87290D01*
X145265Y87339D01*
X145277Y87387D01*
X145284Y87504D01*
X145285Y87505D01*
X145285Y87506D01*
X145287Y87548D01*
X145287Y102934D01*
X145272Y103052D01*
X145265Y103170D01*
X145252Y103209D01*
X145247Y103249D01*
X145204Y103360D01*
X145167Y103473D01*
X145145Y103507D01*
X145130Y103545D01*
X145061Y103641D01*
X144997Y103742D01*
X144967Y103769D01*
X144944Y103802D01*
X144852Y103878D01*
X144765Y103960D01*
X144730Y103979D01*
X144699Y104005D01*
X144591Y104056D01*
X144487Y104113D01*
X144447Y104123D01*
X144411Y104140D01*
X144294Y104163D01*
X144179Y104193D01*
X144119Y104196D01*
X144099Y104200D01*
X144078Y104199D01*
X144018Y104203D01*
X142279Y104203D01*
X138568Y105740D01*
X138466Y105842D01*
X138372Y105915D01*
X138282Y105994D01*
X138246Y106012D01*
X138214Y106037D01*
X138105Y106084D01*
X137999Y106139D01*
X137960Y106147D01*
X137923Y106163D01*
X137805Y106182D01*
X137689Y106208D01*
X137648Y106207D01*
X137608Y106213D01*
X137490Y106202D01*
X137371Y106199D01*
X137332Y106187D01*
X137292Y106184D01*
X137180Y106143D01*
X137065Y106110D01*
X137031Y106090D01*
X136993Y106076D01*
X136894Y106009D01*
X136791Y105949D01*
X136746Y105909D01*
X136729Y105897D01*
X136716Y105882D01*
X136671Y105842D01*
X133500Y102671D01*
X128458Y100583D01*
X123002Y100583D01*
X117960Y102671D01*
X114101Y106530D01*
X112013Y111572D01*
X112013Y116161D01*
X112010Y116190D01*
X112012Y116219D01*
X111990Y116348D01*
X111973Y116476D01*
X111963Y116504D01*
X111958Y116533D01*
X111904Y116651D01*
X111856Y116772D01*
X111839Y116796D01*
X111827Y116823D01*
X111746Y116924D01*
X111670Y117029D01*
X111647Y117048D01*
X111628Y117071D01*
X111525Y117149D01*
X111425Y117232D01*
X111398Y117245D01*
X111374Y117262D01*
X111230Y117333D01*
X108596Y118424D01*
X105756Y121265D01*
X104218Y124976D01*
X104218Y128993D01*
X105756Y132704D01*
X108596Y135544D01*
X112307Y137082D01*
X115634Y137082D01*
X115752Y137097D01*
X115870Y137104D01*
X115909Y137116D01*
X115949Y137121D01*
X116060Y137165D01*
X116173Y137202D01*
X116207Y137224D01*
X116245Y137238D01*
X116341Y137308D01*
X116442Y137372D01*
X116469Y137402D01*
X116502Y137425D01*
X116578Y137517D01*
X116660Y137604D01*
X116679Y137639D01*
X116705Y137670D01*
X116756Y137778D01*
X116813Y137882D01*
X116823Y137921D01*
X116840Y137958D01*
X116863Y138075D01*
X116893Y138190D01*
X116896Y138250D01*
X116900Y138270D01*
X116900Y138274D01*
X116900Y138275D01*
X116899Y138293D01*
X116903Y138351D01*
X116903Y141709D01*
X118473Y145500D01*
X118505Y145541D01*
X118525Y145587D01*
X118552Y145628D01*
X118588Y145732D01*
X118632Y145833D01*
X118639Y145882D01*
X118656Y145929D01*
X118664Y146039D01*
X118682Y146147D01*
X118677Y146197D01*
X118681Y146246D01*
X118662Y146354D01*
X118652Y146464D01*
X118635Y146510D01*
X118626Y146560D01*
X118581Y146660D01*
X118544Y146763D01*
X118516Y146804D01*
X118496Y146850D01*
X118427Y146935D01*
X118366Y147026D01*
X118328Y147059D01*
X118297Y147098D01*
X118209Y147164D01*
X118127Y147237D01*
X118083Y147259D01*
X118043Y147289D01*
X117899Y147360D01*
X117662Y147458D01*
X114822Y150299D01*
X113285Y154010D01*
X113285Y154620D01*
X113270Y154738D01*
X113262Y154857D01*
X113250Y154895D01*
X113245Y154935D01*
X113201Y155046D01*
X113164Y155159D01*
X113143Y155193D01*
X113128Y155231D01*
X113058Y155327D01*
X112994Y155428D01*
X112965Y155456D01*
X112941Y155488D01*
X112849Y155564D01*
X112763Y155646D01*
X112727Y155665D01*
X112696Y155691D01*
X112588Y155742D01*
X112484Y155799D01*
X112445Y155809D01*
X112408Y155827D01*
X112291Y155849D01*
X112176Y155879D01*
X112116Y155883D01*
X112096Y155886D01*
X112076Y155885D01*
X112015Y155889D01*
X111405Y155889D01*
X107694Y157426D01*
X104854Y160267D01*
X103317Y163978D01*
X103317Y167995D01*
X104854Y171706D01*
X107694Y174546D01*
X111405Y176083D01*
X115422Y176083D01*
X119133Y174546D01*
X121974Y171706D01*
X123511Y167995D01*
X123511Y167385D01*
X123526Y167266D01*
X123533Y167148D01*
X123546Y167109D01*
X123551Y167069D01*
X123595Y166958D01*
X123631Y166845D01*
X123653Y166811D01*
X123668Y166773D01*
X123738Y166677D01*
X123801Y166576D01*
X123831Y166549D01*
X123855Y166516D01*
X123946Y166440D01*
X124033Y166359D01*
X124069Y166339D01*
X124100Y166313D01*
X124207Y166263D01*
X124312Y166205D01*
X124351Y166195D01*
X124387Y166178D01*
X124504Y166155D01*
X124620Y166126D01*
X124680Y166122D01*
X124700Y166118D01*
X124720Y166119D01*
X124780Y166115D01*
X125390Y166115D01*
X129101Y164578D01*
X131942Y161738D01*
X133479Y158027D01*
X133479Y154010D01*
X131909Y150218D01*
X131877Y150177D01*
X131857Y150131D01*
X131829Y150090D01*
X131794Y149986D01*
X131750Y149885D01*
X131742Y149836D01*
X131726Y149789D01*
X131718Y149680D01*
X131700Y149571D01*
X131705Y149522D01*
X131701Y149472D01*
X131720Y149364D01*
X131730Y149255D01*
X131747Y149208D01*
X131755Y149159D01*
X131800Y149059D01*
X131838Y148955D01*
X131866Y148914D01*
X131886Y148869D01*
X131955Y148783D01*
X132016Y148692D01*
X132053Y148659D01*
X132085Y148620D01*
X132172Y148554D01*
X132254Y148482D01*
X132299Y148459D01*
X132339Y148429D01*
X132483Y148358D01*
X132720Y148260D01*
X135560Y145420D01*
X137097Y141709D01*
X137097Y137691D01*
X135560Y133980D01*
X132720Y131140D01*
X129650Y129868D01*
X129529Y129800D01*
X129406Y129735D01*
X129391Y129721D01*
X129374Y129711D01*
X129274Y129614D01*
X129171Y129521D01*
X129160Y129504D01*
X129145Y129490D01*
X129073Y129371D01*
X128996Y129255D01*
X128990Y129236D01*
X128979Y129219D01*
X128938Y129086D01*
X128893Y128954D01*
X128891Y128934D01*
X128885Y128915D01*
X128879Y128776D01*
X128868Y128637D01*
X128871Y128617D01*
X128870Y128597D01*
X128898Y128461D01*
X128922Y128324D01*
X128930Y128305D01*
X128935Y128285D01*
X128996Y128160D01*
X129053Y128034D01*
X129065Y128018D01*
X129074Y128000D01*
X129165Y127894D01*
X129251Y127785D01*
X129267Y127773D01*
X129281Y127758D01*
X129395Y127678D01*
X129505Y127594D01*
X129531Y127582D01*
X129541Y127575D01*
X129560Y127567D01*
X129650Y127523D01*
X133500Y125929D01*
X136671Y122758D01*
X136765Y122685D01*
X136854Y122606D01*
X136890Y122588D01*
X136922Y122563D01*
X137031Y122515D01*
X137137Y122461D01*
X137177Y122453D01*
X137214Y122436D01*
X137332Y122418D01*
X137448Y122392D01*
X137488Y122393D01*
X137528Y122387D01*
X137647Y122398D01*
X137765Y122401D01*
X137804Y122413D01*
X137844Y122416D01*
X137957Y122457D01*
X138071Y122490D01*
X138106Y122510D01*
X138144Y122524D01*
X138242Y122591D01*
X138345Y122651D01*
X138390Y122691D01*
X138407Y122703D01*
X138420Y122718D01*
X138466Y122758D01*
X138568Y122860D01*
X142279Y124397D01*
X144018Y124397D01*
X144136Y124412D01*
X144255Y124420D01*
X144293Y124432D01*
X144334Y124437D01*
X144444Y124481D01*
X144557Y124518D01*
X144592Y124539D01*
X144629Y124554D01*
X144725Y124624D01*
X144826Y124688D01*
X144854Y124717D01*
X144887Y124741D01*
X144963Y124833D01*
X145044Y124919D01*
X145064Y124955D01*
X145089Y124986D01*
X145140Y125094D01*
X145198Y125198D01*
X145208Y125237D01*
X145225Y125274D01*
X145247Y125390D01*
X145277Y125506D01*
X145281Y125566D01*
X145285Y125586D01*
X145283Y125606D01*
X145287Y125666D01*
X145287Y180556D01*
X145272Y180674D01*
X145265Y180793D01*
X145252Y180832D01*
X145247Y180872D01*
X145204Y180983D01*
X145167Y181096D01*
X145145Y181130D01*
X145130Y181167D01*
X145061Y181264D01*
X144997Y181364D01*
X144967Y181392D01*
X144944Y181425D01*
X144852Y181501D01*
X144765Y181582D01*
X144730Y181602D01*
X144699Y181628D01*
X144591Y181678D01*
X144487Y181736D01*
X144447Y181746D01*
X144411Y181763D01*
X144294Y181786D01*
X144179Y181815D01*
X144119Y181819D01*
X144099Y181823D01*
X144078Y181822D01*
X144018Y181826D01*
X143343Y181826D01*
X139632Y183363D01*
X136791Y186203D01*
X135254Y189914D01*
X135254Y193931D01*
X136791Y197642D01*
X139006Y199857D01*
X139036Y199896D01*
X139073Y199930D01*
X139134Y200021D01*
X139201Y200108D01*
X139221Y200154D01*
X139248Y200195D01*
X139284Y200299D01*
X139327Y200400D01*
X139335Y200449D01*
X139351Y200496D01*
X139360Y200605D01*
X139377Y200714D01*
X139372Y200764D01*
X139376Y200813D01*
X139358Y200921D01*
X139347Y201031D01*
X139331Y201077D01*
X139322Y201126D01*
X139277Y201227D01*
X139240Y201330D01*
X139212Y201371D01*
X139191Y201416D01*
X139123Y201502D01*
X139061Y201593D01*
X139024Y201626D01*
X138993Y201665D01*
X138905Y201731D01*
X138823Y201804D01*
X138778Y201826D01*
X138739Y201856D01*
X138594Y201927D01*
X137790Y202260D01*
X134950Y205100D01*
X133413Y208811D01*
X133413Y212829D01*
X134074Y214425D01*
X134111Y214559D01*
X134152Y214692D01*
X134152Y214712D01*
X134158Y214731D01*
X134160Y214871D01*
X134167Y215009D01*
X134163Y215029D01*
X134163Y215049D01*
X134130Y215185D01*
X134102Y215321D01*
X134093Y215339D01*
X134089Y215359D01*
X134024Y215481D01*
X133963Y215606D01*
X133949Y215622D01*
X133940Y215640D01*
X133847Y215742D01*
X133756Y215848D01*
X133740Y215860D01*
X133726Y215875D01*
X133610Y215951D01*
X133496Y216031D01*
X133477Y216039D01*
X133460Y216050D01*
X133329Y216095D01*
X133199Y216144D01*
X133179Y216146D01*
X133160Y216153D01*
X133021Y216164D01*
X132883Y216179D01*
X132863Y216177D01*
X132843Y216178D01*
X132706Y216154D01*
X132568Y216135D01*
X132541Y216126D01*
X132529Y216124D01*
X132511Y216115D01*
X132416Y216083D01*
X129713Y214963D01*
X124287Y214963D01*
X119275Y217039D01*
X115410Y220905D01*
X115404Y220916D01*
X115339Y221039D01*
X115325Y221054D01*
X115315Y221071D01*
X115218Y221171D01*
X115125Y221274D01*
X115108Y221285D01*
X115094Y221300D01*
X114975Y221373D01*
X114859Y221449D01*
X114840Y221455D01*
X114823Y221466D01*
X114689Y221507D01*
X114558Y221552D01*
X114538Y221554D01*
X114519Y221560D01*
X114379Y221566D01*
X114241Y221577D01*
X114221Y221574D01*
X114201Y221575D01*
X114065Y221547D01*
X113928Y221523D01*
X113909Y221514D01*
X113890Y221510D01*
X113765Y221449D01*
X113638Y221392D01*
X113622Y221380D01*
X113604Y221371D01*
X113498Y221280D01*
X113389Y221194D01*
X113377Y221177D01*
X113362Y221164D01*
X113282Y221050D01*
X113198Y220939D01*
X113186Y220914D01*
X113179Y220904D01*
X113172Y220887D01*
X109325Y217039D01*
X104313Y214963D01*
X98887Y214963D01*
X93875Y217039D01*
X90010Y220905D01*
X90004Y220916D01*
X89939Y221039D01*
X89925Y221054D01*
X89915Y221071D01*
X89818Y221171D01*
X89725Y221274D01*
X89708Y221285D01*
X89694Y221300D01*
X89575Y221373D01*
X89459Y221449D01*
X89440Y221455D01*
X89423Y221466D01*
X89289Y221507D01*
X89158Y221552D01*
X89138Y221554D01*
X89119Y221560D01*
X88979Y221566D01*
X88841Y221577D01*
X88821Y221574D01*
X88801Y221575D01*
X88665Y221547D01*
X88528Y221523D01*
X88509Y221514D01*
X88490Y221510D01*
X88365Y221449D01*
X88238Y221392D01*
X88222Y221380D01*
X88204Y221371D01*
X88098Y221280D01*
X87989Y221194D01*
X87977Y221177D01*
X87962Y221164D01*
X87882Y221050D01*
X87798Y220939D01*
X87786Y220914D01*
X87779Y220904D01*
X87772Y220887D01*
X83925Y217039D01*
X78913Y214963D01*
X73487Y214963D01*
X68475Y217039D01*
X64610Y220905D01*
X64604Y220916D01*
X64539Y221039D01*
X64525Y221054D01*
X64515Y221071D01*
X64418Y221171D01*
X64325Y221274D01*
X64308Y221285D01*
X64294Y221300D01*
X64175Y221372D01*
X64059Y221449D01*
X64040Y221455D01*
X64023Y221466D01*
X63890Y221507D01*
X63758Y221552D01*
X63738Y221554D01*
X63719Y221560D01*
X63580Y221566D01*
X63441Y221577D01*
X63421Y221574D01*
X63401Y221575D01*
X63264Y221547D01*
X63128Y221523D01*
X63109Y221515D01*
X63090Y221510D01*
X62964Y221449D01*
X62838Y221392D01*
X62822Y221380D01*
X62804Y221371D01*
X62698Y221280D01*
X62589Y221194D01*
X62577Y221177D01*
X62562Y221164D01*
X62482Y221051D01*
X62398Y220939D01*
X62386Y220914D01*
X62379Y220904D01*
X62372Y220887D01*
X58525Y217039D01*
X53513Y214963D01*
X48087Y214963D01*
X43075Y217039D01*
X39239Y220875D01*
X37334Y225476D01*
X37319Y225502D01*
X37310Y225530D01*
X37241Y225639D01*
X37176Y225752D01*
X37155Y225774D01*
X37139Y225799D01*
X37045Y225887D01*
X36955Y225981D01*
X36929Y225996D01*
X36908Y226017D01*
X36794Y226079D01*
X36684Y226147D01*
X36655Y226156D01*
X36629Y226170D01*
X36504Y226202D01*
X36380Y226240D01*
X36350Y226242D01*
X36321Y226249D01*
X36191Y226249D01*
X36062Y226255D01*
X36033Y226249D01*
X36003Y226249D01*
X35877Y226217D01*
X35751Y226191D01*
X35724Y226178D01*
X35695Y226171D01*
X35582Y226108D01*
X35465Y226051D01*
X35442Y226032D01*
X35416Y226018D01*
X35322Y225929D01*
X35223Y225845D01*
X35206Y225821D01*
X35184Y225800D01*
X35114Y225691D01*
X35040Y225585D01*
X35029Y225557D01*
X35013Y225532D01*
X34954Y225382D01*
X34742Y224730D01*
X34022Y223317D01*
X33089Y222033D01*
X31967Y220911D01*
X30683Y219978D01*
X29270Y219258D01*
X27899Y218813D01*
X27899Y227370D01*
X27884Y227488D01*
X27877Y227607D01*
X27864Y227645D01*
X27859Y227685D01*
X27816Y227796D01*
X27779Y227909D01*
X27757Y227943D01*
X27742Y227981D01*
X27673Y228077D01*
X27609Y228178D01*
X27579Y228206D01*
X27556Y228238D01*
X27464Y228314D01*
X27377Y228396D01*
X27342Y228415D01*
X27311Y228441D01*
X27203Y228492D01*
X27099Y228549D01*
X27059Y228559D01*
X27023Y228577D01*
X26916Y228597D01*
X26946Y228601D01*
X27056Y228645D01*
X27169Y228681D01*
X27204Y228703D01*
X27241Y228718D01*
X27337Y228788D01*
X27438Y228851D01*
X27466Y228881D01*
X27499Y228905D01*
X27575Y228996D01*
X27656Y229083D01*
X27676Y229118D01*
X27701Y229150D01*
X27752Y229257D01*
X27810Y229362D01*
X27820Y229401D01*
X27837Y229437D01*
X27859Y229554D01*
X27889Y229670D01*
X27893Y229730D01*
X27897Y229750D01*
X27895Y229770D01*
X27899Y229830D01*
X27899Y238387D01*
X29270Y237942D01*
X30683Y237222D01*
X31967Y236289D01*
X33089Y235167D01*
X34022Y233883D01*
X34742Y232470D01*
X34954Y231818D01*
X34967Y231791D01*
X34974Y231762D01*
X35034Y231647D01*
X35089Y231530D01*
X35108Y231507D01*
X35122Y231481D01*
X35210Y231385D01*
X35292Y231285D01*
X35316Y231267D01*
X35336Y231245D01*
X35445Y231174D01*
X35549Y231098D01*
X35577Y231087D01*
X35602Y231070D01*
X35725Y231028D01*
X35845Y230981D01*
X35875Y230977D01*
X35903Y230967D01*
X36032Y230957D01*
X36160Y230941D01*
X36190Y230944D01*
X36220Y230942D01*
X36348Y230964D01*
X36476Y230980D01*
X36504Y230991D01*
X36533Y230996D01*
X36651Y231050D01*
X36772Y231097D01*
X36796Y231115D01*
X36823Y231127D01*
X36924Y231208D01*
X37029Y231284D01*
X37048Y231307D01*
X37072Y231326D01*
X37149Y231429D01*
X37232Y231529D01*
X37245Y231556D01*
X37263Y231580D01*
X37334Y231724D01*
X39239Y236325D01*
X43075Y240161D01*
X48087Y242237D01*
X53513Y242237D01*
X58525Y240161D01*
X62390Y236295D01*
X62396Y236284D01*
X62461Y236161D01*
X62475Y236146D01*
X62485Y236129D01*
X62582Y236028D01*
X62675Y235926D01*
X62692Y235915D01*
X62706Y235900D01*
X62825Y235828D01*
X62941Y235751D01*
X62960Y235745D01*
X62977Y235734D01*
X63110Y235693D01*
X63242Y235648D01*
X63262Y235646D01*
X63281Y235640D01*
X63420Y235634D01*
X63559Y235623D01*
X63579Y235626D01*
X63599Y235625D01*
X63735Y235653D01*
X63872Y235677D01*
X63891Y235685D01*
X63910Y235689D01*
X64035Y235750D01*
X64162Y235808D01*
X64178Y235820D01*
X64196Y235829D01*
X64302Y235920D01*
X64410Y236006D01*
X64422Y236022D01*
X64438Y236035D01*
X64518Y236150D01*
X64602Y236260D01*
X64614Y236285D01*
X64621Y236295D01*
X64628Y236313D01*
X68475Y240161D01*
X73487Y242237D01*
X78913Y242237D01*
X83925Y240161D01*
X87790Y236295D01*
X87796Y236284D01*
X87861Y236161D01*
X87875Y236146D01*
X87885Y236129D01*
X87981Y236029D01*
X88075Y235926D01*
X88092Y235915D01*
X88106Y235900D01*
X88225Y235828D01*
X88341Y235751D01*
X88360Y235745D01*
X88377Y235734D01*
X88510Y235693D01*
X88642Y235648D01*
X88662Y235646D01*
X88681Y235640D01*
X88819Y235634D01*
X88959Y235623D01*
X88979Y235626D01*
X88999Y235625D01*
X89135Y235653D01*
X89272Y235677D01*
X89290Y235685D01*
X89310Y235690D01*
X89435Y235751D01*
X89562Y235808D01*
X89578Y235820D01*
X89596Y235829D01*
X89702Y235920D01*
X89810Y236006D01*
X89823Y236022D01*
X89838Y236036D01*
X89918Y236149D01*
X90002Y236260D01*
X90014Y236286D01*
X90021Y236296D01*
X90028Y236313D01*
X93875Y240161D01*
X98887Y242237D01*
X104313Y242237D01*
X109325Y240161D01*
X113190Y236295D01*
X113196Y236284D01*
X113261Y236161D01*
X113275Y236146D01*
X113285Y236129D01*
X113381Y236029D01*
X113475Y235926D01*
X113492Y235915D01*
X113506Y235900D01*
X113625Y235828D01*
X113741Y235751D01*
X113760Y235745D01*
X113777Y235734D01*
X113910Y235693D01*
X114042Y235648D01*
X114062Y235646D01*
X114081Y235640D01*
X114219Y235634D01*
X114359Y235623D01*
X114379Y235626D01*
X114399Y235625D01*
X114535Y235653D01*
X114672Y235677D01*
X114690Y235685D01*
X114710Y235690D01*
X114835Y235751D01*
X114962Y235808D01*
X114978Y235820D01*
X114996Y235829D01*
X115102Y235920D01*
X115210Y236006D01*
X115223Y236022D01*
X115238Y236036D01*
X115318Y236149D01*
X115402Y236260D01*
X115414Y236286D01*
X115421Y236296D01*
X115428Y236313D01*
X119275Y240161D01*
X124287Y242237D01*
X129713Y242237D01*
X134725Y240161D01*
X138590Y236295D01*
X138596Y236284D01*
X138661Y236161D01*
X138675Y236146D01*
X138685Y236129D01*
X138781Y236029D01*
X138875Y235926D01*
X138892Y235915D01*
X138906Y235900D01*
X139025Y235828D01*
X139141Y235751D01*
X139160Y235745D01*
X139177Y235734D01*
X139310Y235693D01*
X139442Y235648D01*
X139462Y235646D01*
X139481Y235640D01*
X139619Y235634D01*
X139759Y235623D01*
X139779Y235626D01*
X139799Y235625D01*
X139935Y235653D01*
X140072Y235677D01*
X140090Y235685D01*
X140110Y235690D01*
X140235Y235751D01*
X140362Y235808D01*
X140378Y235820D01*
X140396Y235829D01*
X140502Y235920D01*
X140610Y236006D01*
X140623Y236022D01*
X140638Y236036D01*
X140718Y236149D01*
X140802Y236260D01*
X140814Y236286D01*
X140821Y236296D01*
X140828Y236313D01*
X144675Y240161D01*
X149687Y242237D01*
X155113Y242237D01*
X160125Y240161D01*
X163990Y236295D01*
X163996Y236284D01*
X164061Y236161D01*
X164075Y236146D01*
X164085Y236129D01*
X164181Y236029D01*
X164275Y235926D01*
X164292Y235915D01*
X164306Y235900D01*
X164425Y235828D01*
X164541Y235751D01*
X164560Y235745D01*
X164577Y235734D01*
X164710Y235693D01*
X164842Y235648D01*
X164862Y235646D01*
X164881Y235640D01*
X165019Y235634D01*
X165159Y235623D01*
X165179Y235626D01*
X165199Y235625D01*
X165335Y235653D01*
X165472Y235677D01*
X165490Y235685D01*
X165510Y235690D01*
X165635Y235751D01*
X165762Y235808D01*
X165778Y235820D01*
X165796Y235829D01*
X165902Y235920D01*
X166010Y236006D01*
X166023Y236022D01*
X166038Y236036D01*
X166118Y236149D01*
X166202Y236260D01*
X166214Y236286D01*
X166221Y236296D01*
X166228Y236313D01*
X170075Y240161D01*
X175087Y242237D01*
X180513Y242237D01*
X185525Y240161D01*
X189390Y236295D01*
X189396Y236284D01*
X189461Y236161D01*
X189475Y236146D01*
X189485Y236129D01*
X189581Y236029D01*
X189675Y235926D01*
X189692Y235915D01*
X189706Y235900D01*
X189825Y235828D01*
X189941Y235751D01*
X189960Y235745D01*
X189977Y235734D01*
X190110Y235693D01*
X190242Y235648D01*
X190262Y235646D01*
X190281Y235640D01*
X190419Y235634D01*
X190559Y235623D01*
X190579Y235626D01*
X190599Y235625D01*
X190735Y235653D01*
X190872Y235677D01*
X190890Y235685D01*
X190910Y235690D01*
X191035Y235751D01*
X191162Y235808D01*
X191178Y235820D01*
X191196Y235829D01*
X191302Y235920D01*
X191410Y236006D01*
X191423Y236022D01*
X191438Y236036D01*
X191518Y236149D01*
X191602Y236260D01*
X191614Y236286D01*
X191621Y236296D01*
X191628Y236313D01*
X195475Y240161D01*
X200487Y242237D01*
X205913Y242237D01*
X210925Y240161D01*
X214761Y236325D01*
X216837Y231313D01*
X216837Y225887D01*
X214761Y220875D01*
X210862Y216977D01*
X210820Y216953D01*
X210799Y216932D01*
X210774Y216917D01*
X210685Y216822D01*
X210592Y216732D01*
X210576Y216707D01*
X210556Y216685D01*
X210493Y216571D01*
X210425Y216461D01*
X210417Y216432D01*
X210402Y216406D01*
X210370Y216281D01*
X210332Y216157D01*
X210330Y216127D01*
X210323Y216099D01*
X210313Y215938D01*
X210313Y200630D01*
X209230Y198016D01*
X192528Y181314D01*
X189914Y180231D01*
X182497Y180231D01*
X182399Y180219D01*
X182300Y180216D01*
X182242Y180199D01*
X182182Y180191D01*
X182090Y180155D01*
X181995Y180127D01*
X181943Y180097D01*
X181886Y180074D01*
X181806Y180016D01*
X181721Y179966D01*
X181645Y179900D01*
X181629Y179888D01*
X181621Y179878D01*
X181600Y179860D01*
X176966Y175226D01*
X176905Y175147D01*
X176837Y175075D01*
X176808Y175022D01*
X176771Y174974D01*
X176732Y174883D01*
X176684Y174797D01*
X176669Y174738D01*
X176645Y174682D01*
X176629Y174584D01*
X176604Y174489D01*
X176598Y174389D01*
X176595Y174368D01*
X176596Y174356D01*
X176594Y174328D01*
X176594Y112966D01*
X176609Y112848D01*
X176617Y112730D01*
X176629Y112691D01*
X176634Y112651D01*
X176678Y112540D01*
X176715Y112427D01*
X176736Y112393D01*
X176751Y112355D01*
X176821Y112259D01*
X176885Y112158D01*
X176914Y112131D01*
X176938Y112098D01*
X177030Y112022D01*
X177116Y111940D01*
X177152Y111921D01*
X177183Y111895D01*
X177291Y111844D01*
X177395Y111787D01*
X177434Y111777D01*
X177471Y111760D01*
X177587Y111737D01*
X177703Y111707D01*
X177763Y111704D01*
X177783Y111700D01*
X177803Y111701D01*
X177863Y111697D01*
X181523Y111697D01*
X185234Y110160D01*
X188075Y107320D01*
X189612Y103609D01*
X189612Y100266D01*
X189627Y100148D01*
X189634Y100030D01*
X189647Y99991D01*
X189652Y99951D01*
X189695Y99840D01*
X189732Y99727D01*
X189754Y99693D01*
X189769Y99655D01*
X189838Y99559D01*
X189902Y99458D01*
X189932Y99431D01*
X189955Y99398D01*
X190047Y99322D01*
X190134Y99240D01*
X190169Y99221D01*
X190200Y99195D01*
X190308Y99144D01*
X190412Y99087D01*
X190452Y99077D01*
X190488Y99060D01*
X190605Y99037D01*
X190720Y99007D01*
X190780Y99004D01*
X190800Y99000D01*
X190821Y99001D01*
X190881Y98997D01*
X191834Y98997D01*
X191952Y99012D01*
X192070Y99020D01*
X192109Y99032D01*
X192149Y99037D01*
X192260Y99081D01*
X192373Y99118D01*
X192407Y99139D01*
X192445Y99154D01*
X192541Y99224D01*
X192642Y99288D01*
X192669Y99317D01*
X192702Y99341D01*
X192778Y99433D01*
X192860Y99519D01*
X192879Y99555D01*
X192905Y99586D01*
X192956Y99694D01*
X193013Y99798D01*
X193023Y99837D01*
X193040Y99874D01*
X193063Y99990D01*
X193093Y100106D01*
X193096Y100166D01*
X193100Y100186D01*
X193100Y100195D01*
X193100Y100198D01*
X193099Y100212D01*
X193103Y100266D01*
X193103Y103609D01*
X194640Y107320D01*
X197480Y110160D01*
X201191Y111697D01*
X205209Y111697D01*
X208920Y110160D01*
X211760Y107320D01*
X213297Y103609D01*
X213297Y99591D01*
X211760Y95880D01*
X208920Y93040D01*
X205209Y91503D01*
X201866Y91503D01*
X201748Y91488D01*
X201630Y91480D01*
X201591Y91468D01*
X201551Y91463D01*
X201440Y91419D01*
X201327Y91382D01*
X201293Y91361D01*
X201255Y91346D01*
X201159Y91276D01*
X201058Y91212D01*
X201031Y91183D01*
X200998Y91159D01*
X200922Y91067D01*
X200840Y90981D01*
X200821Y90945D01*
X200795Y90914D01*
X200744Y90806D01*
X200687Y90702D01*
X200677Y90663D01*
X200660Y90626D01*
X200637Y90510D01*
X200607Y90394D01*
X200604Y90334D01*
X200600Y90314D01*
X200601Y90294D01*
X200597Y90234D01*
X200597Y86891D01*
X199060Y83180D01*
X196220Y80340D01*
X192509Y78803D01*
X188491Y78803D01*
X185398Y80084D01*
X185350Y80097D01*
X185305Y80119D01*
X185197Y80139D01*
X185091Y80168D01*
X185041Y80169D01*
X184992Y80178D01*
X184883Y80172D01*
X184773Y80173D01*
X184725Y80162D01*
X184675Y80159D01*
X184571Y80125D01*
X184464Y80099D01*
X184420Y80076D01*
X184373Y80061D01*
X184280Y80002D01*
X184183Y79950D01*
X184146Y79917D01*
X184104Y79890D01*
X184029Y79810D01*
X183947Y79736D01*
X183920Y79695D01*
X183886Y79659D01*
X183833Y79563D01*
X183773Y79471D01*
X183756Y79424D01*
X183732Y79380D01*
X183705Y79274D01*
X183669Y79170D01*
X183665Y79120D01*
X183653Y79072D01*
X183643Y78912D01*
X183643Y71866D01*
X182560Y69251D01*
X178768Y65460D01*
X178738Y65420D01*
X178701Y65387D01*
X178641Y65295D01*
X178573Y65208D01*
X178553Y65163D01*
X178526Y65121D01*
X178491Y65017D01*
X178447Y64916D01*
X178439Y64867D01*
X178423Y64820D01*
X178414Y64711D01*
X178397Y64602D01*
X178402Y64553D01*
X178398Y64503D01*
X178416Y64395D01*
X178427Y64286D01*
X178444Y64239D01*
X178452Y64190D01*
X178497Y64090D01*
X178534Y63986D01*
X178562Y63945D01*
X178583Y63900D01*
X178651Y63814D01*
X178713Y63723D01*
X178750Y63690D01*
X178781Y63652D01*
X178869Y63585D01*
X178951Y63513D01*
X178996Y63490D01*
X179035Y63460D01*
X179180Y63389D01*
X179710Y63170D01*
X182550Y60330D01*
X184087Y56619D01*
X184087Y52601D01*
X182550Y48890D01*
X179710Y46050D01*
X175999Y44513D01*
X171981Y44513D01*
G37*
%LPD*%
%LPC*%
G36*
X238587Y170513D02*
X238587Y170513D01*
X233575Y172589D01*
X229739Y176425D01*
X228333Y179821D01*
X228308Y179864D01*
X228291Y179911D01*
X228230Y180002D01*
X228175Y180097D01*
X228141Y180133D01*
X228113Y180174D01*
X228030Y180247D01*
X227954Y180326D01*
X227912Y180352D01*
X227874Y180385D01*
X227776Y180435D01*
X227683Y180492D01*
X227635Y180507D01*
X227591Y180529D01*
X227484Y180553D01*
X227379Y180586D01*
X227329Y180588D01*
X227281Y180599D01*
X227171Y180596D01*
X227061Y180601D01*
X227013Y180591D01*
X226963Y180589D01*
X226857Y180559D01*
X226750Y180537D01*
X226705Y180515D01*
X226657Y180501D01*
X226563Y180445D01*
X226464Y180397D01*
X226426Y180365D01*
X226383Y180339D01*
X226263Y180233D01*
X224160Y178130D01*
X220449Y176593D01*
X216431Y176593D01*
X212720Y178130D01*
X209880Y180970D01*
X208343Y184681D01*
X208343Y188699D01*
X209880Y192410D01*
X212720Y195250D01*
X216431Y196787D01*
X220449Y196787D01*
X224160Y195250D01*
X227000Y192410D01*
X227308Y191666D01*
X227377Y191546D01*
X227442Y191423D01*
X227455Y191408D01*
X227465Y191390D01*
X227562Y191291D01*
X227656Y191187D01*
X227673Y191176D01*
X227687Y191162D01*
X227805Y191089D01*
X227921Y191013D01*
X227940Y191006D01*
X227958Y190996D01*
X228091Y190954D01*
X228222Y190909D01*
X228242Y190908D01*
X228262Y190902D01*
X228401Y190895D01*
X228539Y190884D01*
X228559Y190888D01*
X228579Y190887D01*
X228716Y190915D01*
X228853Y190939D01*
X228871Y190947D01*
X228891Y190951D01*
X229016Y191012D01*
X229143Y191069D01*
X229158Y191082D01*
X229177Y191091D01*
X229282Y191181D01*
X229391Y191268D01*
X229403Y191284D01*
X229419Y191297D01*
X229498Y191411D01*
X229582Y191522D01*
X229595Y191547D01*
X229602Y191557D01*
X229609Y191576D01*
X229653Y191666D01*
X229739Y191875D01*
X233605Y195740D01*
X233616Y195746D01*
X233739Y195811D01*
X233754Y195825D01*
X233771Y195835D01*
X233871Y195931D01*
X233974Y196025D01*
X233985Y196042D01*
X234000Y196056D01*
X234072Y196175D01*
X234149Y196291D01*
X234155Y196310D01*
X234166Y196327D01*
X234207Y196460D01*
X234252Y196592D01*
X234254Y196612D01*
X234260Y196631D01*
X234266Y196769D01*
X234277Y196909D01*
X234274Y196929D01*
X234275Y196949D01*
X234247Y197085D01*
X234223Y197222D01*
X234215Y197240D01*
X234210Y197260D01*
X234149Y197385D01*
X234092Y197512D01*
X234080Y197528D01*
X234071Y197546D01*
X233980Y197652D01*
X233894Y197760D01*
X233878Y197773D01*
X233864Y197788D01*
X233751Y197868D01*
X233640Y197952D01*
X233614Y197964D01*
X233604Y197971D01*
X233587Y197978D01*
X229739Y201825D01*
X227663Y206837D01*
X227663Y212263D01*
X229739Y217275D01*
X233575Y221111D01*
X238587Y223187D01*
X244013Y223187D01*
X245227Y222684D01*
X245275Y222670D01*
X245320Y222649D01*
X245428Y222629D01*
X245534Y222600D01*
X245584Y222599D01*
X245633Y222589D01*
X245742Y222596D01*
X245852Y222595D01*
X245900Y222606D01*
X245950Y222609D01*
X246054Y222643D01*
X246161Y222669D01*
X246205Y222692D01*
X246252Y222707D01*
X246345Y222766D01*
X246442Y222817D01*
X246479Y222851D01*
X246521Y222877D01*
X246596Y222957D01*
X246678Y223031D01*
X246705Y223073D01*
X246739Y223109D01*
X246792Y223205D01*
X246852Y223297D01*
X246869Y223344D01*
X246893Y223388D01*
X246920Y223494D01*
X246956Y223598D01*
X246960Y223647D01*
X246972Y223695D01*
X246982Y223856D01*
X246982Y226926D01*
X248519Y230637D01*
X251360Y233477D01*
X255071Y235014D01*
X259088Y235014D01*
X262799Y233477D01*
X265640Y230637D01*
X267177Y226926D01*
X267177Y222908D01*
X265640Y219197D01*
X262799Y216357D01*
X259088Y214820D01*
X255777Y214820D01*
X255728Y214814D01*
X255678Y214816D01*
X255571Y214794D01*
X255462Y214780D01*
X255415Y214762D01*
X255367Y214752D01*
X255268Y214703D01*
X255166Y214663D01*
X255126Y214634D01*
X255081Y214612D01*
X254997Y214541D01*
X254908Y214476D01*
X254877Y214438D01*
X254839Y214406D01*
X254776Y214316D01*
X254706Y214231D01*
X254684Y214186D01*
X254656Y214145D01*
X254617Y214043D01*
X254570Y213943D01*
X254561Y213895D01*
X254543Y213848D01*
X254531Y213739D01*
X254510Y213631D01*
X254513Y213582D01*
X254508Y213532D01*
X254523Y213423D01*
X254530Y213314D01*
X254545Y213266D01*
X254552Y213217D01*
X254604Y213065D01*
X254937Y212263D01*
X254937Y208440D01*
X254945Y208371D01*
X254944Y208301D01*
X254965Y208213D01*
X254977Y208124D01*
X255002Y208059D01*
X255019Y207991D01*
X255061Y207912D01*
X255094Y207829D01*
X255135Y207772D01*
X255167Y207710D01*
X255228Y207644D01*
X255280Y207571D01*
X255334Y207527D01*
X255381Y207475D01*
X255456Y207426D01*
X255525Y207368D01*
X255589Y207339D01*
X255647Y207300D01*
X255732Y207271D01*
X255813Y207233D01*
X255882Y207220D01*
X255948Y207197D01*
X256037Y207190D01*
X256125Y207173D01*
X256195Y207177D01*
X256265Y207172D01*
X256353Y207187D01*
X256443Y207193D01*
X256509Y207214D01*
X256578Y207226D01*
X256660Y207263D01*
X256745Y207291D01*
X256804Y207328D01*
X256868Y207357D01*
X256938Y207413D01*
X257014Y207461D01*
X257062Y207512D01*
X257116Y207555D01*
X257171Y207627D01*
X257232Y207693D01*
X257266Y207754D01*
X257308Y207809D01*
X257379Y207954D01*
X258140Y209792D01*
X260980Y212633D01*
X264691Y214170D01*
X268709Y214170D01*
X272420Y212633D01*
X275260Y209792D01*
X276797Y206081D01*
X276797Y202064D01*
X275260Y198353D01*
X272420Y195512D01*
X269949Y194489D01*
X269845Y194430D01*
X269738Y194378D01*
X269707Y194351D01*
X269672Y194331D01*
X269587Y194249D01*
X269496Y194171D01*
X269473Y194138D01*
X269444Y194110D01*
X269382Y194009D01*
X269313Y193911D01*
X269299Y193873D01*
X269278Y193839D01*
X269243Y193725D01*
X269200Y193614D01*
X269196Y193574D01*
X269184Y193535D01*
X269178Y193416D01*
X269165Y193298D01*
X269171Y193258D01*
X269169Y193217D01*
X269193Y193101D01*
X269210Y192983D01*
X269229Y192926D01*
X269233Y192906D01*
X269242Y192887D01*
X269262Y192831D01*
X270447Y189969D01*
X270447Y185951D01*
X268910Y182240D01*
X266070Y179400D01*
X262359Y177863D01*
X258341Y177863D01*
X255344Y179104D01*
X255229Y179136D01*
X255117Y179174D01*
X255076Y179178D01*
X255037Y179188D01*
X254918Y179190D01*
X254800Y179200D01*
X254760Y179193D01*
X254719Y179193D01*
X254603Y179166D01*
X254486Y179145D01*
X254449Y179129D01*
X254410Y179119D01*
X254305Y179063D01*
X254196Y179015D01*
X254165Y178989D01*
X254129Y178970D01*
X254041Y178890D01*
X253948Y178816D01*
X253924Y178784D01*
X253894Y178757D01*
X253828Y178657D01*
X253757Y178562D01*
X253730Y178508D01*
X253719Y178491D01*
X253712Y178471D01*
X253686Y178417D01*
X252861Y176425D01*
X249025Y172589D01*
X244013Y170513D01*
X238587Y170513D01*
G37*
%LPD*%
%LPC*%
G36*
X259611Y59753D02*
X259611Y59753D01*
X255900Y61290D01*
X253060Y64130D01*
X252035Y66604D01*
X251977Y66707D01*
X251924Y66814D01*
X251898Y66845D01*
X251878Y66880D01*
X251795Y66966D01*
X251718Y67056D01*
X251685Y67080D01*
X251657Y67109D01*
X251555Y67171D01*
X251458Y67239D01*
X251420Y67254D01*
X251385Y67275D01*
X251272Y67310D01*
X251160Y67352D01*
X251120Y67357D01*
X251081Y67369D01*
X250963Y67374D01*
X250844Y67387D01*
X250804Y67382D01*
X250764Y67384D01*
X250647Y67360D01*
X250529Y67343D01*
X250472Y67324D01*
X250452Y67319D01*
X250434Y67310D01*
X250377Y67291D01*
X247509Y66103D01*
X243491Y66103D01*
X239780Y67640D01*
X238794Y68626D01*
X238755Y68656D01*
X238722Y68693D01*
X238630Y68754D01*
X238543Y68821D01*
X238498Y68841D01*
X238456Y68868D01*
X238352Y68904D01*
X238251Y68947D01*
X238202Y68955D01*
X238155Y68971D01*
X238046Y68980D01*
X237937Y68997D01*
X237888Y68992D01*
X237838Y68996D01*
X237730Y68978D01*
X237621Y68967D01*
X237574Y68950D01*
X237525Y68942D01*
X237425Y68897D01*
X237321Y68860D01*
X237280Y68832D01*
X237235Y68811D01*
X237149Y68743D01*
X237058Y68681D01*
X237025Y68644D01*
X236986Y68613D01*
X236920Y68525D01*
X236848Y68443D01*
X236825Y68398D01*
X236795Y68359D01*
X236724Y68214D01*
X236627Y67980D01*
X233787Y65140D01*
X230076Y63603D01*
X226059Y63603D01*
X222348Y65140D01*
X219507Y67980D01*
X217970Y71691D01*
X217970Y75709D01*
X219507Y79420D01*
X220757Y80669D01*
X220830Y80763D01*
X220908Y80852D01*
X220927Y80888D01*
X220951Y80920D01*
X220999Y81029D01*
X221053Y81135D01*
X221062Y81175D01*
X221078Y81212D01*
X221097Y81330D01*
X221123Y81446D01*
X221121Y81486D01*
X221128Y81526D01*
X221117Y81645D01*
X221113Y81764D01*
X221102Y81802D01*
X221098Y81843D01*
X221058Y81955D01*
X221024Y82069D01*
X221004Y82104D01*
X220990Y82142D01*
X220923Y82240D01*
X220863Y82343D01*
X220823Y82388D01*
X220812Y82405D01*
X220796Y82419D01*
X220757Y82464D01*
X220040Y83180D01*
X218503Y86891D01*
X218503Y90909D01*
X220040Y94620D01*
X222880Y97460D01*
X226606Y99003D01*
X226696Y99015D01*
X226835Y99028D01*
X226854Y99035D01*
X226874Y99037D01*
X227003Y99088D01*
X227135Y99135D01*
X227151Y99147D01*
X227170Y99154D01*
X227283Y99236D01*
X227398Y99314D01*
X227411Y99329D01*
X227427Y99341D01*
X227516Y99448D01*
X227608Y99552D01*
X227617Y99570D01*
X227630Y99586D01*
X227690Y99712D01*
X227753Y99836D01*
X227757Y99855D01*
X227766Y99874D01*
X227792Y100010D01*
X227822Y100146D01*
X227822Y100166D01*
X227826Y100186D01*
X227817Y100324D01*
X227813Y100464D01*
X227807Y100483D01*
X227806Y100503D01*
X227763Y100635D01*
X227724Y100769D01*
X227714Y100787D01*
X227708Y100806D01*
X227633Y100924D01*
X227563Y101043D01*
X227544Y101064D01*
X227538Y101075D01*
X227527Y101085D01*
X227526Y101086D01*
X227519Y101093D01*
X227456Y101164D01*
X225141Y103479D01*
X224623Y104730D01*
X224574Y104816D01*
X224533Y104907D01*
X224496Y104954D01*
X224466Y105007D01*
X224397Y105078D01*
X224335Y105155D01*
X224286Y105192D01*
X224244Y105235D01*
X224160Y105287D01*
X224081Y105346D01*
X223991Y105391D01*
X223973Y105401D01*
X223961Y105405D01*
X223936Y105417D01*
X220143Y106988D01*
X217303Y109829D01*
X215766Y113540D01*
X215766Y117557D01*
X216431Y119163D01*
X216438Y119191D01*
X216452Y119218D01*
X216480Y119344D01*
X216515Y119470D01*
X216515Y119499D01*
X216522Y119528D01*
X216518Y119658D01*
X216520Y119788D01*
X216513Y119816D01*
X216512Y119846D01*
X216476Y119970D01*
X216446Y120097D01*
X216432Y120123D01*
X216423Y120151D01*
X216358Y120263D01*
X216297Y120378D01*
X216277Y120400D01*
X216262Y120425D01*
X216156Y120546D01*
X215421Y121280D01*
X213884Y124991D01*
X213884Y129009D01*
X215421Y132720D01*
X218262Y135560D01*
X221973Y137097D01*
X225990Y137097D01*
X229701Y135560D01*
X232541Y132720D01*
X233342Y130786D01*
X233357Y130761D01*
X233366Y130733D01*
X233435Y130623D01*
X233500Y130510D01*
X233520Y130489D01*
X233536Y130464D01*
X233630Y130375D01*
X233721Y130282D01*
X233746Y130266D01*
X233768Y130246D01*
X233881Y130183D01*
X233992Y130115D01*
X234020Y130107D01*
X234046Y130093D01*
X234172Y130060D01*
X234296Y130022D01*
X234325Y130020D01*
X234354Y130013D01*
X234515Y130003D01*
X237703Y130003D01*
X241414Y128466D01*
X244254Y125625D01*
X245792Y121914D01*
X245792Y117897D01*
X244254Y114186D01*
X243659Y113591D01*
X243641Y113568D01*
X243619Y113548D01*
X243544Y113442D01*
X243464Y113340D01*
X243453Y113313D01*
X243436Y113288D01*
X243390Y113167D01*
X243338Y113048D01*
X243333Y113019D01*
X243323Y112991D01*
X243309Y112862D01*
X243288Y112734D01*
X243291Y112704D01*
X243288Y112675D01*
X243306Y112546D01*
X243318Y112417D01*
X243328Y112389D01*
X243332Y112360D01*
X243384Y112208D01*
X243799Y111207D01*
X243799Y107190D01*
X242262Y103479D01*
X239421Y100638D01*
X235696Y99095D01*
X235605Y99084D01*
X235466Y99071D01*
X235447Y99064D01*
X235427Y99061D01*
X235298Y99010D01*
X235167Y98963D01*
X235150Y98952D01*
X235131Y98944D01*
X235019Y98863D01*
X234904Y98785D01*
X234890Y98769D01*
X234874Y98758D01*
X234785Y98650D01*
X234693Y98546D01*
X234684Y98528D01*
X234671Y98513D01*
X234612Y98387D01*
X234549Y98263D01*
X234544Y98243D01*
X234536Y98225D01*
X234510Y98089D01*
X234479Y97953D01*
X234480Y97932D01*
X234476Y97912D01*
X234485Y97774D01*
X234489Y97635D01*
X234494Y97615D01*
X234496Y97595D01*
X234538Y97463D01*
X234577Y97329D01*
X234587Y97312D01*
X234594Y97293D01*
X234668Y97175D01*
X234739Y97055D01*
X234757Y97034D01*
X234764Y97024D01*
X234779Y97010D01*
X234845Y96934D01*
X237160Y94620D01*
X238697Y90909D01*
X238697Y86892D01*
X238580Y86608D01*
X238543Y86473D01*
X238502Y86341D01*
X238501Y86321D01*
X238496Y86301D01*
X238494Y86162D01*
X238487Y86023D01*
X238491Y86004D01*
X238491Y85983D01*
X238523Y85848D01*
X238551Y85712D01*
X238560Y85694D01*
X238565Y85674D01*
X238630Y85552D01*
X238691Y85426D01*
X238704Y85411D01*
X238714Y85393D01*
X238807Y85290D01*
X238897Y85184D01*
X238914Y85172D01*
X238928Y85158D01*
X239043Y85081D01*
X239157Y85001D01*
X239176Y84994D01*
X239193Y84983D01*
X239325Y84938D01*
X239455Y84888D01*
X239475Y84886D01*
X239494Y84880D01*
X239633Y84869D01*
X239771Y84853D01*
X239791Y84856D01*
X239811Y84854D01*
X239948Y84878D01*
X240086Y84898D01*
X240112Y84907D01*
X240124Y84909D01*
X240143Y84917D01*
X240238Y84950D01*
X243491Y86297D01*
X247509Y86297D01*
X251220Y84760D01*
X254060Y81920D01*
X255085Y79446D01*
X255091Y79434D01*
X255092Y79431D01*
X255101Y79417D01*
X255143Y79343D01*
X255196Y79236D01*
X255222Y79205D01*
X255242Y79170D01*
X255325Y79084D01*
X255402Y78994D01*
X255435Y78970D01*
X255463Y78941D01*
X255565Y78879D01*
X255662Y78811D01*
X255700Y78796D01*
X255735Y78775D01*
X255848Y78740D01*
X255960Y78698D01*
X256000Y78693D01*
X256039Y78681D01*
X256157Y78676D01*
X256276Y78663D01*
X256316Y78668D01*
X256356Y78666D01*
X256473Y78690D01*
X256591Y78707D01*
X256648Y78726D01*
X256668Y78731D01*
X256686Y78740D01*
X256743Y78759D01*
X259611Y79947D01*
X263629Y79947D01*
X267340Y78410D01*
X270180Y75570D01*
X271717Y71859D01*
X271717Y67841D01*
X270180Y64130D01*
X267340Y61290D01*
X263629Y59753D01*
X259611Y59753D01*
G37*
%LPD*%
%LPC*%
G36*
X86891Y28003D02*
X86891Y28003D01*
X83180Y29540D01*
X80340Y32380D01*
X78803Y36091D01*
X78803Y40109D01*
X80400Y43964D01*
X80411Y44007D01*
X80426Y44038D01*
X80435Y44084D01*
X80461Y44152D01*
X80468Y44213D01*
X80484Y44271D01*
X80485Y44344D01*
X80486Y44351D01*
X80485Y44365D01*
X80485Y44370D01*
X80496Y44468D01*
X80488Y44528D01*
X80489Y44589D01*
X80466Y44685D01*
X80452Y44783D01*
X80420Y44878D01*
X80415Y44898D01*
X80409Y44909D01*
X80400Y44936D01*
X78803Y48791D01*
X78803Y52809D01*
X80340Y56520D01*
X83180Y59360D01*
X86891Y60897D01*
X90909Y60897D01*
X94620Y59360D01*
X97147Y56833D01*
X97256Y56748D01*
X97363Y56659D01*
X97382Y56651D01*
X97398Y56638D01*
X97526Y56583D01*
X97651Y56524D01*
X97671Y56520D01*
X97690Y56512D01*
X97828Y56490D01*
X97964Y56464D01*
X97984Y56465D01*
X98004Y56462D01*
X98143Y56475D01*
X98281Y56484D01*
X98300Y56490D01*
X98320Y56492D01*
X98452Y56539D01*
X98583Y56582D01*
X98601Y56593D01*
X98620Y56599D01*
X98735Y56677D01*
X98852Y56752D01*
X98866Y56767D01*
X98883Y56778D01*
X98975Y56882D01*
X99070Y56983D01*
X99080Y57001D01*
X99093Y57016D01*
X99157Y57141D01*
X99224Y57262D01*
X99229Y57282D01*
X99238Y57300D01*
X99268Y57435D01*
X99303Y57570D01*
X99305Y57598D01*
X99308Y57610D01*
X99307Y57630D01*
X99313Y57731D01*
X99313Y61148D01*
X101401Y66190D01*
X105260Y70049D01*
X110302Y72137D01*
X115758Y72137D01*
X120800Y70049D01*
X124659Y66190D01*
X126747Y61148D01*
X126747Y55692D01*
X124659Y50650D01*
X120800Y46791D01*
X115758Y44703D01*
X110302Y44703D01*
X105260Y46791D01*
X101387Y50665D01*
X101379Y50685D01*
X101326Y50757D01*
X101282Y50835D01*
X101233Y50886D01*
X101192Y50942D01*
X101123Y50999D01*
X101060Y51064D01*
X101001Y51100D01*
X100947Y51145D01*
X100866Y51183D01*
X100789Y51230D01*
X100722Y51251D01*
X100659Y51281D01*
X100571Y51297D01*
X100485Y51324D01*
X100416Y51327D01*
X100347Y51340D01*
X100257Y51335D01*
X100168Y51339D01*
X100099Y51325D01*
X100030Y51321D01*
X99944Y51293D01*
X99856Y51275D01*
X99793Y51244D01*
X99727Y51223D01*
X99651Y51175D01*
X99571Y51135D01*
X99517Y51090D01*
X99458Y51052D01*
X99397Y50987D01*
X99329Y50929D01*
X99288Y50872D01*
X99240Y50821D01*
X99197Y50742D01*
X99145Y50669D01*
X99121Y50603D01*
X99087Y50542D01*
X99064Y50455D01*
X99033Y50371D01*
X99025Y50302D01*
X99007Y50234D01*
X98997Y50074D01*
X98997Y48791D01*
X97400Y44936D01*
X97374Y44840D01*
X97339Y44748D01*
X97332Y44687D01*
X97316Y44629D01*
X97315Y44530D01*
X97304Y44432D01*
X97312Y44372D01*
X97311Y44311D01*
X97332Y44225D01*
X97334Y44194D01*
X97340Y44175D01*
X97348Y44117D01*
X97380Y44022D01*
X97385Y44002D01*
X97391Y43991D01*
X97400Y43964D01*
X98997Y40109D01*
X98997Y36091D01*
X97460Y32380D01*
X94620Y29540D01*
X90909Y28003D01*
X86891Y28003D01*
G37*
%LPD*%
%LPC*%
G36*
X86891Y116903D02*
X86891Y116903D01*
X83180Y118440D01*
X80340Y121280D01*
X78803Y124991D01*
X78803Y128334D01*
X78788Y128452D01*
X78780Y128570D01*
X78768Y128609D01*
X78763Y128649D01*
X78719Y128760D01*
X78682Y128873D01*
X78661Y128907D01*
X78646Y128945D01*
X78576Y129041D01*
X78512Y129142D01*
X78483Y129169D01*
X78459Y129202D01*
X78367Y129278D01*
X78281Y129360D01*
X78245Y129379D01*
X78214Y129405D01*
X78106Y129456D01*
X78002Y129513D01*
X77963Y129523D01*
X77926Y129540D01*
X77810Y129563D01*
X77694Y129593D01*
X77634Y129596D01*
X77614Y129600D01*
X77594Y129599D01*
X77534Y129603D01*
X74191Y129603D01*
X70480Y131140D01*
X67640Y133980D01*
X66103Y137691D01*
X66103Y141709D01*
X67700Y145564D01*
X67726Y145660D01*
X67761Y145752D01*
X67768Y145813D01*
X67784Y145871D01*
X67785Y145970D01*
X67796Y146068D01*
X67788Y146128D01*
X67789Y146189D01*
X67766Y146285D01*
X67752Y146383D01*
X67720Y146478D01*
X67715Y146498D01*
X67709Y146509D01*
X67700Y146536D01*
X66103Y150391D01*
X66103Y154409D01*
X67640Y158120D01*
X70480Y160960D01*
X74191Y162497D01*
X78209Y162497D01*
X81920Y160960D01*
X84760Y158120D01*
X86297Y154409D01*
X86297Y150391D01*
X84700Y146536D01*
X84674Y146440D01*
X84639Y146348D01*
X84632Y146287D01*
X84616Y146229D01*
X84615Y146130D01*
X84604Y146032D01*
X84612Y145972D01*
X84611Y145911D01*
X84634Y145814D01*
X84648Y145717D01*
X84680Y145622D01*
X84685Y145602D01*
X84691Y145591D01*
X84700Y145564D01*
X86297Y141709D01*
X86297Y138366D01*
X86312Y138248D01*
X86320Y138130D01*
X86332Y138091D01*
X86337Y138051D01*
X86381Y137940D01*
X86418Y137827D01*
X86439Y137793D01*
X86454Y137755D01*
X86524Y137659D01*
X86588Y137558D01*
X86617Y137531D01*
X86641Y137498D01*
X86733Y137422D01*
X86819Y137340D01*
X86855Y137321D01*
X86886Y137295D01*
X86994Y137244D01*
X87098Y137187D01*
X87137Y137177D01*
X87174Y137160D01*
X87290Y137137D01*
X87406Y137107D01*
X87466Y137104D01*
X87486Y137100D01*
X87506Y137101D01*
X87566Y137097D01*
X90909Y137097D01*
X94620Y135560D01*
X97460Y132720D01*
X98997Y129009D01*
X98997Y124991D01*
X97460Y121280D01*
X94620Y118440D01*
X90909Y116903D01*
X86891Y116903D01*
G37*
%LPD*%
%LPC*%
G36*
X104576Y185387D02*
X104576Y185387D01*
X100864Y186924D01*
X98024Y189764D01*
X96487Y193476D01*
X96487Y197493D01*
X98024Y201204D01*
X100864Y204044D01*
X104576Y205581D01*
X108593Y205581D01*
X112304Y204044D01*
X115144Y201204D01*
X116681Y197493D01*
X116681Y193476D01*
X115144Y189764D01*
X112304Y186924D01*
X108593Y185387D01*
X104576Y185387D01*
G37*
%LPD*%
%LPC*%
G36*
X226591Y140214D02*
X226591Y140214D01*
X222880Y141751D01*
X220040Y144592D01*
X218503Y148303D01*
X218503Y152320D01*
X220040Y156031D01*
X222880Y158872D01*
X226591Y160409D01*
X230609Y160409D01*
X234320Y158872D01*
X237160Y156031D01*
X238697Y152320D01*
X238697Y148303D01*
X237160Y144592D01*
X234320Y141751D01*
X230609Y140214D01*
X226591Y140214D01*
G37*
%LPD*%
%LPC*%
G36*
X290091Y91503D02*
X290091Y91503D01*
X286380Y93040D01*
X283540Y95880D01*
X282003Y99591D01*
X282003Y103609D01*
X283540Y107320D01*
X286380Y110160D01*
X290091Y111697D01*
X294109Y111697D01*
X297820Y110160D01*
X300660Y107320D01*
X302197Y103609D01*
X302197Y99591D01*
X300660Y95880D01*
X297820Y93040D01*
X294109Y91503D01*
X290091Y91503D01*
G37*
%LPD*%
%LPC*%
G36*
X319999Y142199D02*
X319999Y142199D01*
X319999Y149487D01*
X321370Y149042D01*
X322783Y148322D01*
X324067Y147389D01*
X325189Y146267D01*
X326122Y144983D01*
X326842Y143570D01*
X327287Y142199D01*
X319999Y142199D01*
G37*
%LPD*%
%LPC*%
G36*
X15613Y231099D02*
X15613Y231099D01*
X16058Y232470D01*
X16778Y233883D01*
X17711Y235167D01*
X18833Y236289D01*
X20117Y237222D01*
X21530Y237942D01*
X22901Y238387D01*
X22901Y231099D01*
X15613Y231099D01*
G37*
%LPD*%
%LPC*%
G36*
X307713Y142199D02*
X307713Y142199D01*
X308158Y143570D01*
X308878Y144983D01*
X309811Y146267D01*
X310933Y147389D01*
X312217Y148322D01*
X313630Y149042D01*
X315001Y149487D01*
X315001Y142199D01*
X307713Y142199D01*
G37*
%LPD*%
%LPC*%
G36*
X15199Y48301D02*
X15199Y48301D01*
X22487Y48301D01*
X22042Y46930D01*
X21322Y45517D01*
X20389Y44233D01*
X19267Y43111D01*
X17983Y42178D01*
X16570Y41458D01*
X15199Y41013D01*
X15199Y48301D01*
G37*
%LPD*%
%LPC*%
G36*
X21530Y219258D02*
X21530Y219258D01*
X20117Y219978D01*
X18833Y220911D01*
X17711Y222033D01*
X16778Y223317D01*
X16058Y224730D01*
X15613Y226101D01*
X22901Y226101D01*
X22901Y218813D01*
X21530Y219258D01*
G37*
%LPD*%
%LPC*%
G36*
X18259Y178859D02*
X18259Y178859D01*
X18259Y185511D01*
X19013Y185361D01*
X20574Y184714D01*
X21980Y183775D01*
X23175Y182580D01*
X24114Y181174D01*
X24761Y179613D01*
X24911Y178859D01*
X18259Y178859D01*
G37*
%LPD*%
%LPC*%
G36*
X18259Y124359D02*
X18259Y124359D01*
X18259Y131011D01*
X19013Y130861D01*
X20574Y130214D01*
X21980Y129275D01*
X23175Y128080D01*
X24114Y126674D01*
X24761Y125113D01*
X24911Y124359D01*
X18259Y124359D01*
G37*
%LPD*%
%LPC*%
G36*
X18259Y175361D02*
X18259Y175361D01*
X24911Y175361D01*
X24761Y174607D01*
X24114Y173046D01*
X23175Y171640D01*
X21980Y170445D01*
X20574Y169506D01*
X19013Y168859D01*
X18259Y168709D01*
X18259Y175361D01*
G37*
%LPD*%
%LPC*%
G36*
X18259Y120861D02*
X18259Y120861D01*
X24911Y120861D01*
X24761Y120107D01*
X24114Y118546D01*
X23175Y117140D01*
X21980Y115945D01*
X20574Y115006D01*
X19013Y114359D01*
X18259Y114209D01*
X18259Y120861D01*
G37*
%LPD*%
%LPC*%
G36*
X48434Y175734D02*
X48434Y175734D01*
X48434Y182281D01*
X49240Y182121D01*
X50756Y181493D01*
X52121Y180581D01*
X53281Y179421D01*
X54193Y178056D01*
X54821Y176540D01*
X54981Y175734D01*
X48434Y175734D01*
G37*
%LPD*%
%LPC*%
G36*
X48434Y127234D02*
X48434Y127234D01*
X48434Y133781D01*
X49240Y133621D01*
X50756Y132993D01*
X52121Y132081D01*
X53281Y130921D01*
X54193Y129556D01*
X54821Y128040D01*
X54981Y127234D01*
X48434Y127234D01*
G37*
%LPD*%
%LPC*%
G36*
X38639Y175734D02*
X38639Y175734D01*
X38799Y176540D01*
X39427Y178056D01*
X40339Y179421D01*
X41499Y180581D01*
X42864Y181493D01*
X44380Y182121D01*
X45186Y182281D01*
X45186Y175734D01*
X38639Y175734D01*
G37*
%LPD*%
%LPC*%
G36*
X48434Y172486D02*
X48434Y172486D01*
X54981Y172486D01*
X54821Y171680D01*
X54193Y170164D01*
X53281Y168799D01*
X52121Y167639D01*
X50756Y166727D01*
X49240Y166099D01*
X48434Y165939D01*
X48434Y172486D01*
G37*
%LPD*%
%LPC*%
G36*
X38639Y127234D02*
X38639Y127234D01*
X38799Y128040D01*
X39427Y129556D01*
X40339Y130921D01*
X41499Y132081D01*
X42864Y132993D01*
X44380Y133621D01*
X45186Y133781D01*
X45186Y127234D01*
X38639Y127234D01*
G37*
%LPD*%
%LPC*%
G36*
X48434Y123986D02*
X48434Y123986D01*
X54981Y123986D01*
X54821Y123180D01*
X54193Y121664D01*
X53281Y120299D01*
X52121Y119139D01*
X50756Y118227D01*
X49240Y117599D01*
X48434Y117439D01*
X48434Y123986D01*
G37*
%LPD*%
%LPC*%
G36*
X44380Y166099D02*
X44380Y166099D01*
X42864Y166727D01*
X41499Y167639D01*
X40339Y168799D01*
X39427Y170164D01*
X38799Y171680D01*
X38639Y172486D01*
X45186Y172486D01*
X45186Y165939D01*
X44380Y166099D01*
G37*
%LPD*%
%LPC*%
G36*
X44380Y117599D02*
X44380Y117599D01*
X42864Y118227D01*
X41499Y119139D01*
X40339Y120299D01*
X39427Y121664D01*
X38799Y123180D01*
X38639Y123986D01*
X45186Y123986D01*
X45186Y117439D01*
X44380Y117599D01*
G37*
%LPD*%
D10*
X12700Y50800D03*
X12700Y76200D03*
X25400Y228600D03*
X50800Y228600D03*
X76200Y228600D03*
X101600Y228600D03*
X127000Y228600D03*
X152400Y228600D03*
X177800Y228600D03*
X203200Y228600D03*
X241300Y184150D03*
X241300Y209550D03*
D11*
X125730Y114300D03*
D12*
X46810Y174110D03*
X46810Y125610D03*
D13*
X16510Y177110D03*
X16510Y122610D03*
D10*
X317500Y63500D03*
X317500Y88900D03*
X317500Y114300D03*
X317500Y139700D03*
D11*
X215900Y0D03*
X113030Y58420D03*
D14*
X50800Y0D03*
X38100Y50800D03*
X63500Y127000D03*
D15*
X25400Y203200D02*
X25400Y228600D01*
D14*
X292100Y25400D03*
X289170Y203200D03*
X130810Y76200D03*
X101968Y178168D03*
X215900Y73700D03*
X25400Y368300D03*
X279400Y241300D03*
X63500Y101600D03*
X179515Y101600D03*
D15*
X179231Y101884D01*
X176530Y73280D02*
X172401Y69152D01*
X176530Y73280D02*
X176530Y99184D01*
X179231Y101884D01*
X152400Y75053D02*
X158302Y69152D01*
X172401Y69152D01*
X152400Y75053D02*
X152400Y228600D01*
D14*
X76200Y306795D03*
X76200Y279400D03*
X159449Y103373D03*
D15*
X159449Y210249D01*
X177800Y228600D01*
D14*
X169482Y101600D03*
D15*
X169482Y177800D01*
X179026Y187344D01*
X188499Y187344D01*
X203200Y202045D01*
X203200Y228600D01*
D14*
X218440Y186690D03*
X235694Y119906D03*
X143510Y210820D03*
X228600Y150312D03*
X187833Y196646D03*
X292100Y101600D03*
X260350Y187960D03*
X145352Y191923D03*
X203200Y25400D03*
X88900Y127000D03*
X106584Y195484D03*
X190500Y88900D03*
X245500Y76200D03*
X140843Y76560D03*
X25400Y304800D03*
X173990Y54610D03*
X114316Y126984D03*
X266700Y204073D03*
X173990Y196152D03*
X144288Y114300D03*
X127000Y139700D03*
X225863Y115549D03*
X76200Y342900D03*
X190500Y419100D03*
X223981Y127000D03*
X153670Y7620D03*
X190500Y11066D03*
X317500Y38100D03*
X203200Y101600D03*
X228067Y73700D03*
X25400Y330200D03*
X76200Y139700D03*
X76200Y152400D03*
X123382Y156018D03*
X113414Y165986D03*
X257080Y224917D03*
X88900Y50800D03*
X261620Y69850D03*
X228600Y88900D03*
X233702Y109198D03*
X152400Y25400D03*
X88900Y38100D03*
M02*
