G04 EAGLE Gerber RS-274X export*
G75*
%MOMM*%
%FSLAX34Y34*%
%LPD*%
%IN*%
%IPPOS*%
%AMOC8*
5,1,8,0,0,1.08239X$1,22.5*%
G01*
%ADD10C,0.254000*%


D10*
X0Y-12700D02*
X342900Y-12700D01*
X342900Y444500D01*
X0Y444500D01*
X0Y-12700D01*
X10510Y122410D02*
X10523Y122122D01*
X10560Y121837D01*
X10622Y121556D01*
X10709Y121281D01*
X10819Y121015D01*
X10952Y120760D01*
X11107Y120517D01*
X11282Y120289D01*
X11477Y120077D01*
X11689Y119882D01*
X11917Y119707D01*
X12160Y119552D01*
X12415Y119419D01*
X12681Y119309D01*
X12956Y119222D01*
X13237Y119160D01*
X13522Y119123D01*
X13810Y119110D01*
X19210Y119110D01*
X19498Y119123D01*
X19783Y119160D01*
X20064Y119222D01*
X20339Y119309D01*
X20605Y119419D01*
X20860Y119552D01*
X21103Y119707D01*
X21331Y119882D01*
X21543Y120077D01*
X21738Y120289D01*
X21913Y120517D01*
X22068Y120760D01*
X22201Y121015D01*
X22311Y121281D01*
X22398Y121556D01*
X22460Y121837D01*
X22497Y122122D01*
X22510Y122410D01*
X22510Y122810D01*
X22497Y123098D01*
X22460Y123383D01*
X22398Y123664D01*
X22311Y123939D01*
X22201Y124205D01*
X22068Y124460D01*
X21913Y124703D01*
X21738Y124931D01*
X21543Y125143D01*
X21331Y125338D01*
X21103Y125513D01*
X20860Y125668D01*
X20605Y125801D01*
X20339Y125911D01*
X20064Y125998D01*
X19783Y126060D01*
X19498Y126097D01*
X19210Y126110D01*
X13810Y126110D01*
X13522Y126097D01*
X13237Y126060D01*
X12956Y125998D01*
X12681Y125911D01*
X12415Y125801D01*
X12160Y125668D01*
X11917Y125513D01*
X11689Y125338D01*
X11477Y125143D01*
X11282Y124931D01*
X11107Y124703D01*
X10952Y124460D01*
X10819Y124205D01*
X10709Y123939D01*
X10622Y123664D01*
X10560Y123383D01*
X10523Y123098D01*
X10510Y122810D01*
X10510Y122410D01*
X10510Y176910D02*
X10523Y176622D01*
X10560Y176337D01*
X10622Y176056D01*
X10709Y175781D01*
X10819Y175515D01*
X10952Y175260D01*
X11107Y175017D01*
X11282Y174789D01*
X11477Y174577D01*
X11689Y174382D01*
X11917Y174207D01*
X12160Y174052D01*
X12415Y173919D01*
X12681Y173809D01*
X12956Y173722D01*
X13237Y173660D01*
X13522Y173623D01*
X13810Y173610D01*
X19210Y173610D01*
X19498Y173623D01*
X19783Y173660D01*
X20064Y173722D01*
X20339Y173809D01*
X20605Y173919D01*
X20860Y174052D01*
X21103Y174207D01*
X21331Y174382D01*
X21543Y174577D01*
X21738Y174789D01*
X21913Y175017D01*
X22068Y175260D01*
X22201Y175515D01*
X22311Y175781D01*
X22398Y176056D01*
X22460Y176337D01*
X22497Y176622D01*
X22510Y176910D01*
X22510Y177310D01*
X22497Y177598D01*
X22460Y177883D01*
X22398Y178164D01*
X22311Y178439D01*
X22201Y178705D01*
X22068Y178960D01*
X21913Y179203D01*
X21738Y179431D01*
X21543Y179643D01*
X21331Y179838D01*
X21103Y180013D01*
X20860Y180168D01*
X20605Y180301D01*
X20339Y180411D01*
X20064Y180498D01*
X19783Y180560D01*
X19498Y180597D01*
X19210Y180610D01*
X13810Y180610D01*
X13522Y180597D01*
X13237Y180560D01*
X12956Y180498D01*
X12681Y180411D01*
X12415Y180301D01*
X12160Y180168D01*
X11917Y180013D01*
X11689Y179838D01*
X11477Y179643D01*
X11282Y179431D01*
X11107Y179203D01*
X10952Y178960D01*
X10819Y178705D01*
X10709Y178439D01*
X10622Y178164D01*
X10560Y177883D01*
X10523Y177598D01*
X10510Y177310D01*
X10510Y176910D01*
X44810Y170860D02*
X48810Y170860D01*
X49093Y170872D01*
X49374Y170909D01*
X49651Y170971D01*
X49922Y171056D01*
X50184Y171165D01*
X50435Y171295D01*
X50674Y171448D01*
X50899Y171620D01*
X51108Y171812D01*
X51300Y172021D01*
X51472Y172246D01*
X51625Y172485D01*
X51756Y172737D01*
X51864Y172998D01*
X51949Y173269D01*
X52011Y173546D01*
X52048Y173827D01*
X52060Y174110D01*
X52048Y174393D01*
X52011Y174674D01*
X51949Y174951D01*
X51864Y175222D01*
X51756Y175484D01*
X51625Y175735D01*
X51472Y175974D01*
X51300Y176199D01*
X51108Y176408D01*
X50899Y176600D01*
X50674Y176772D01*
X50435Y176925D01*
X50184Y177056D01*
X49922Y177164D01*
X49651Y177249D01*
X49374Y177311D01*
X49093Y177348D01*
X48810Y177360D01*
X44810Y177360D01*
X44527Y177348D01*
X44246Y177311D01*
X43969Y177249D01*
X43698Y177164D01*
X43437Y177056D01*
X43185Y176925D01*
X42946Y176772D01*
X42721Y176600D01*
X42512Y176408D01*
X42320Y176199D01*
X42148Y175974D01*
X41995Y175735D01*
X41865Y175484D01*
X41756Y175222D01*
X41671Y174951D01*
X41609Y174674D01*
X41572Y174393D01*
X41560Y174110D01*
X41572Y173827D01*
X41609Y173546D01*
X41671Y173269D01*
X41756Y172998D01*
X41865Y172737D01*
X41995Y172485D01*
X42148Y172246D01*
X42320Y172021D01*
X42512Y171812D01*
X42721Y171620D01*
X42946Y171448D01*
X43185Y171295D01*
X43437Y171165D01*
X43698Y171056D01*
X43969Y170971D01*
X44246Y170909D01*
X44527Y170872D01*
X44810Y170860D01*
X44810Y122360D02*
X48810Y122360D01*
X49093Y122372D01*
X49374Y122409D01*
X49651Y122471D01*
X49922Y122556D01*
X50184Y122665D01*
X50435Y122795D01*
X50674Y122948D01*
X50899Y123120D01*
X51108Y123312D01*
X51300Y123521D01*
X51472Y123746D01*
X51625Y123985D01*
X51756Y124237D01*
X51864Y124498D01*
X51949Y124769D01*
X52011Y125046D01*
X52048Y125327D01*
X52060Y125610D01*
X52048Y125893D01*
X52011Y126174D01*
X51949Y126451D01*
X51864Y126722D01*
X51756Y126984D01*
X51625Y127235D01*
X51472Y127474D01*
X51300Y127699D01*
X51108Y127908D01*
X50899Y128100D01*
X50674Y128272D01*
X50435Y128425D01*
X50184Y128556D01*
X49922Y128664D01*
X49651Y128749D01*
X49374Y128811D01*
X49093Y128848D01*
X48810Y128860D01*
X44810Y128860D01*
X44527Y128848D01*
X44246Y128811D01*
X43969Y128749D01*
X43698Y128664D01*
X43437Y128556D01*
X43185Y128425D01*
X42946Y128272D01*
X42721Y128100D01*
X42512Y127908D01*
X42320Y127699D01*
X42148Y127474D01*
X41995Y127235D01*
X41865Y126984D01*
X41756Y126722D01*
X41671Y126451D01*
X41609Y126174D01*
X41572Y125893D01*
X41560Y125610D01*
X41572Y125327D01*
X41609Y125046D01*
X41671Y124769D01*
X41756Y124498D01*
X41865Y124237D01*
X41995Y123985D01*
X42148Y123746D01*
X42320Y123521D01*
X42512Y123312D01*
X42721Y123120D01*
X42946Y122948D01*
X43185Y122795D01*
X43437Y122665D01*
X43698Y122556D01*
X43969Y122471D01*
X44246Y122409D01*
X44527Y122372D01*
X44810Y122360D01*
X31750Y4581D02*
X31672Y3586D01*
X31516Y2600D01*
X31283Y1630D01*
X30974Y681D01*
X30592Y-241D01*
X30139Y-1130D01*
X29618Y-1981D01*
X29031Y-2789D01*
X28383Y-3547D01*
X27677Y-4253D01*
X26919Y-4901D01*
X26111Y-5488D01*
X25260Y-6009D01*
X24371Y-6462D01*
X23449Y-6844D01*
X22500Y-7153D01*
X21530Y-7386D01*
X20544Y-7542D01*
X19549Y-7620D01*
X18551Y-7620D01*
X17556Y-7542D01*
X16570Y-7386D01*
X15600Y-7153D01*
X14651Y-6844D01*
X13729Y-6462D01*
X12840Y-6009D01*
X11989Y-5488D01*
X11181Y-4901D01*
X10423Y-4253D01*
X9717Y-3547D01*
X9069Y-2789D01*
X8482Y-1981D01*
X7961Y-1130D01*
X7508Y-241D01*
X7126Y681D01*
X6817Y1630D01*
X6584Y2600D01*
X6428Y3586D01*
X6350Y4581D01*
X6350Y5579D01*
X6428Y6574D01*
X6584Y7560D01*
X6817Y8530D01*
X7126Y9479D01*
X7508Y10401D01*
X7961Y11290D01*
X8482Y12141D01*
X9069Y12949D01*
X9717Y13707D01*
X10423Y14413D01*
X11181Y15061D01*
X11989Y15648D01*
X12840Y16169D01*
X13729Y16622D01*
X14651Y17004D01*
X15600Y17313D01*
X16570Y17546D01*
X17556Y17702D01*
X18551Y17780D01*
X19549Y17780D01*
X20544Y17702D01*
X21530Y17546D01*
X22500Y17313D01*
X23449Y17004D01*
X24371Y16622D01*
X25260Y16169D01*
X26111Y15648D01*
X26919Y15061D01*
X27677Y14413D01*
X28383Y13707D01*
X29031Y12949D01*
X29618Y12141D01*
X30139Y11290D01*
X30592Y10401D01*
X30974Y9479D01*
X31283Y8530D01*
X31516Y7560D01*
X31672Y6574D01*
X31750Y5579D01*
X31750Y4581D01*
X335280Y207781D02*
X335202Y206786D01*
X335046Y205800D01*
X334813Y204830D01*
X334504Y203881D01*
X334122Y202959D01*
X333669Y202070D01*
X333148Y201219D01*
X332561Y200411D01*
X331913Y199653D01*
X331207Y198947D01*
X330449Y198299D01*
X329641Y197712D01*
X328790Y197191D01*
X327901Y196738D01*
X326979Y196356D01*
X326030Y196047D01*
X325060Y195814D01*
X324074Y195658D01*
X323079Y195580D01*
X322081Y195580D01*
X321086Y195658D01*
X320100Y195814D01*
X319130Y196047D01*
X318181Y196356D01*
X317259Y196738D01*
X316370Y197191D01*
X315519Y197712D01*
X314711Y198299D01*
X313953Y198947D01*
X313247Y199653D01*
X312599Y200411D01*
X312012Y201219D01*
X311491Y202070D01*
X311038Y202959D01*
X310656Y203881D01*
X310347Y204830D01*
X310114Y205800D01*
X309958Y206786D01*
X309880Y207781D01*
X309880Y208779D01*
X309958Y209774D01*
X310114Y210760D01*
X310347Y211730D01*
X310656Y212679D01*
X311038Y213601D01*
X311491Y214490D01*
X312012Y215341D01*
X312599Y216149D01*
X313247Y216907D01*
X313953Y217613D01*
X314711Y218261D01*
X315519Y218848D01*
X316370Y219369D01*
X317259Y219822D01*
X318181Y220204D01*
X319130Y220513D01*
X320100Y220746D01*
X321086Y220902D01*
X322081Y220980D01*
X323079Y220980D01*
X324074Y220902D01*
X325060Y220746D01*
X326030Y220513D01*
X326979Y220204D01*
X327901Y219822D01*
X328790Y219369D01*
X329641Y218848D01*
X330449Y218261D01*
X331207Y217613D01*
X331913Y216907D01*
X332561Y216149D01*
X333148Y215341D01*
X333669Y214490D01*
X334122Y213601D01*
X334504Y212679D01*
X334813Y211730D01*
X335046Y210760D01*
X335202Y209774D01*
X335280Y208779D01*
X335280Y207781D01*
X335280Y4581D02*
X335202Y3586D01*
X335046Y2600D01*
X334813Y1630D01*
X334504Y681D01*
X334122Y-241D01*
X333669Y-1130D01*
X333148Y-1981D01*
X332561Y-2789D01*
X331913Y-3547D01*
X331207Y-4253D01*
X330449Y-4901D01*
X329641Y-5488D01*
X328790Y-6009D01*
X327901Y-6462D01*
X326979Y-6844D01*
X326030Y-7153D01*
X325060Y-7386D01*
X324074Y-7542D01*
X323079Y-7620D01*
X322081Y-7620D01*
X321086Y-7542D01*
X320100Y-7386D01*
X319130Y-7153D01*
X318181Y-6844D01*
X317259Y-6462D01*
X316370Y-6009D01*
X315519Y-5488D01*
X314711Y-4901D01*
X313953Y-4253D01*
X313247Y-3547D01*
X312599Y-2789D01*
X312012Y-1981D01*
X311491Y-1130D01*
X311038Y-241D01*
X310656Y681D01*
X310347Y1630D01*
X310114Y2600D01*
X309958Y3586D01*
X309880Y4581D01*
X309880Y5579D01*
X309958Y6574D01*
X310114Y7560D01*
X310347Y8530D01*
X310656Y9479D01*
X311038Y10401D01*
X311491Y11290D01*
X312012Y12141D01*
X312599Y12949D01*
X313247Y13707D01*
X313953Y14413D01*
X314711Y15061D01*
X315519Y15648D01*
X316370Y16169D01*
X317259Y16622D01*
X318181Y17004D01*
X319130Y17313D01*
X320100Y17546D01*
X321086Y17702D01*
X322081Y17780D01*
X323079Y17780D01*
X324074Y17702D01*
X325060Y17546D01*
X326030Y17313D01*
X326979Y17004D01*
X327901Y16622D01*
X328790Y16169D01*
X329641Y15648D01*
X330449Y15061D01*
X331207Y14413D01*
X331913Y13707D01*
X332561Y12949D01*
X333148Y12141D01*
X333669Y11290D01*
X334122Y10401D01*
X334504Y9479D01*
X334813Y8530D01*
X335046Y7560D01*
X335202Y6574D01*
X335280Y5579D01*
X335280Y4581D01*
X30480Y423681D02*
X30402Y422686D01*
X30246Y421700D01*
X30013Y420730D01*
X29704Y419781D01*
X29322Y418859D01*
X28869Y417970D01*
X28348Y417119D01*
X27761Y416311D01*
X27113Y415553D01*
X26407Y414847D01*
X25649Y414199D01*
X24841Y413612D01*
X23990Y413091D01*
X23101Y412638D01*
X22179Y412256D01*
X21230Y411947D01*
X20260Y411714D01*
X19274Y411558D01*
X18279Y411480D01*
X17281Y411480D01*
X16286Y411558D01*
X15300Y411714D01*
X14330Y411947D01*
X13381Y412256D01*
X12459Y412638D01*
X11570Y413091D01*
X10719Y413612D01*
X9911Y414199D01*
X9153Y414847D01*
X8447Y415553D01*
X7799Y416311D01*
X7212Y417119D01*
X6691Y417970D01*
X6238Y418859D01*
X5856Y419781D01*
X5547Y420730D01*
X5314Y421700D01*
X5158Y422686D01*
X5080Y423681D01*
X5080Y424679D01*
X5158Y425674D01*
X5314Y426660D01*
X5547Y427630D01*
X5856Y428579D01*
X6238Y429501D01*
X6691Y430390D01*
X7212Y431241D01*
X7799Y432049D01*
X8447Y432807D01*
X9153Y433513D01*
X9911Y434161D01*
X10719Y434748D01*
X11570Y435269D01*
X12459Y435722D01*
X13381Y436104D01*
X14330Y436413D01*
X15300Y436646D01*
X16286Y436802D01*
X17281Y436880D01*
X18279Y436880D01*
X19274Y436802D01*
X20260Y436646D01*
X21230Y436413D01*
X22179Y436104D01*
X23101Y435722D01*
X23990Y435269D01*
X24841Y434748D01*
X25649Y434161D01*
X26407Y433513D01*
X27113Y432807D01*
X27761Y432049D01*
X28348Y431241D01*
X28869Y430390D01*
X29322Y429501D01*
X29704Y428579D01*
X30013Y427630D01*
X30246Y426660D01*
X30402Y425674D01*
X30480Y424679D01*
X30480Y423681D01*
X335280Y423681D02*
X335202Y422686D01*
X335046Y421700D01*
X334813Y420730D01*
X334504Y419781D01*
X334122Y418859D01*
X333669Y417970D01*
X333148Y417119D01*
X332561Y416311D01*
X331913Y415553D01*
X331207Y414847D01*
X330449Y414199D01*
X329641Y413612D01*
X328790Y413091D01*
X327901Y412638D01*
X326979Y412256D01*
X326030Y411947D01*
X325060Y411714D01*
X324074Y411558D01*
X323079Y411480D01*
X322081Y411480D01*
X321086Y411558D01*
X320100Y411714D01*
X319130Y411947D01*
X318181Y412256D01*
X317259Y412638D01*
X316370Y413091D01*
X315519Y413612D01*
X314711Y414199D01*
X313953Y414847D01*
X313247Y415553D01*
X312599Y416311D01*
X312012Y417119D01*
X311491Y417970D01*
X311038Y418859D01*
X310656Y419781D01*
X310347Y420730D01*
X310114Y421700D01*
X309958Y422686D01*
X309880Y423681D01*
X309880Y424679D01*
X309958Y425674D01*
X310114Y426660D01*
X310347Y427630D01*
X310656Y428579D01*
X311038Y429501D01*
X311491Y430390D01*
X312012Y431241D01*
X312599Y432049D01*
X313247Y432807D01*
X313953Y433513D01*
X314711Y434161D01*
X315519Y434748D01*
X316370Y435269D01*
X317259Y435722D01*
X318181Y436104D01*
X319130Y436413D01*
X320100Y436646D01*
X321086Y436802D01*
X322081Y436880D01*
X323079Y436880D01*
X324074Y436802D01*
X325060Y436646D01*
X326030Y436413D01*
X326979Y436104D01*
X327901Y435722D01*
X328790Y435269D01*
X329641Y434748D01*
X330449Y434161D01*
X331207Y433513D01*
X331913Y432807D01*
X332561Y432049D01*
X333148Y431241D01*
X333669Y430390D01*
X334122Y429501D01*
X334504Y428579D01*
X334813Y427630D01*
X335046Y426660D01*
X335202Y425674D01*
X335280Y424679D01*
X335280Y423681D01*
M02*
