G04 EAGLE Gerber RS-274X export*
G75*
%MOMM*%
%FSLAX34Y34*%
%LPD*%
%INSilkscreen Bottom*%
%IPPOS*%
%AMOC8*
5,1,8,0,0,1.08239X$1,22.5*%
G01*
%ADD10C,0.076200*%
%ADD11C,0.050800*%
%ADD12C,0.406400*%
%ADD13C,0.127000*%
%ADD14C,0.152400*%
%ADD15C,0.304800*%
%ADD16C,0.254000*%
%ADD17C,0.508000*%


D10*
X55664Y158417D02*
X56893Y159645D01*
X59350Y159645D01*
X60579Y158417D01*
X60579Y153502D01*
X59350Y152273D01*
X56893Y152273D01*
X55664Y153502D01*
X55664Y155959D01*
X58122Y155959D01*
X51866Y152273D02*
X49409Y152273D01*
X51866Y152273D02*
X53095Y153502D01*
X53095Y155959D01*
X51866Y157188D01*
X49409Y157188D01*
X48180Y155959D01*
X48180Y154730D01*
X53095Y154730D01*
X44382Y152273D02*
X41925Y152273D01*
X40696Y153502D01*
X40696Y155959D01*
X41925Y157188D01*
X44382Y157188D01*
X45611Y155959D01*
X45611Y153502D01*
X44382Y152273D01*
X38127Y152273D02*
X38127Y157188D01*
X38127Y154730D02*
X35669Y157188D01*
X34440Y157188D01*
X29432Y149816D02*
X28204Y149816D01*
X26975Y151044D01*
X26975Y157188D01*
X30661Y157188D01*
X31890Y155959D01*
X31890Y153502D01*
X30661Y152273D01*
X26975Y152273D01*
X24406Y157188D02*
X23177Y157188D01*
X23177Y152273D01*
X24406Y152273D02*
X21948Y152273D01*
X23177Y159645D02*
X23177Y160874D01*
X18187Y157188D02*
X15730Y157188D01*
X14501Y155959D01*
X14501Y152273D01*
X18187Y152273D01*
X19416Y153502D01*
X18187Y154730D01*
X14501Y154730D01*
X58122Y147453D02*
X58122Y140081D01*
X60579Y147453D02*
X55664Y147453D01*
X51866Y140081D02*
X49409Y140081D01*
X51866Y140081D02*
X53095Y141310D01*
X53095Y143767D01*
X51866Y144996D01*
X49409Y144996D01*
X48180Y143767D01*
X48180Y142538D01*
X53095Y142538D01*
X44382Y144996D02*
X40696Y144996D01*
X44382Y144996D02*
X45611Y143767D01*
X45611Y141310D01*
X44382Y140081D01*
X40696Y140081D01*
X38127Y140081D02*
X38127Y147453D01*
X36898Y144996D02*
X38127Y143767D01*
X36898Y144996D02*
X34440Y144996D01*
X33212Y143767D01*
X33212Y140081D01*
X304419Y330581D02*
X304419Y339987D01*
X299716Y339987D01*
X298148Y338419D01*
X298148Y336852D01*
X299716Y335284D01*
X298148Y333716D01*
X298148Y332149D01*
X299716Y330581D01*
X304419Y330581D01*
X304419Y335284D02*
X299716Y335284D01*
X295064Y336852D02*
X295064Y332149D01*
X293496Y330581D01*
X288793Y330581D01*
X288793Y329013D02*
X288793Y336852D01*
X288793Y329013D02*
X290361Y327446D01*
X291928Y327446D01*
X276353Y330581D02*
X276353Y336852D01*
X273218Y339987D01*
X270083Y336852D01*
X270083Y330581D01*
X270083Y335284D02*
X276353Y335284D01*
X266998Y330581D02*
X262295Y330581D01*
X260728Y332149D01*
X262295Y333716D01*
X265431Y333716D01*
X266998Y335284D01*
X265431Y336852D01*
X260728Y336852D01*
X257643Y339987D02*
X257643Y330581D01*
X257643Y335284D02*
X256075Y336852D01*
X252940Y336852D01*
X251372Y335284D01*
X251372Y330581D01*
X248288Y332149D02*
X248288Y336852D01*
X248288Y332149D02*
X246720Y330581D01*
X242017Y330581D01*
X242017Y336852D01*
X237365Y338419D02*
X237365Y332149D01*
X235797Y330581D01*
X235797Y336852D02*
X238933Y336852D01*
X231128Y330581D02*
X227993Y330581D01*
X226425Y332149D01*
X226425Y335284D01*
X227993Y336852D01*
X231128Y336852D01*
X232696Y335284D01*
X232696Y332149D01*
X231128Y330581D01*
X223341Y330581D02*
X218638Y330581D01*
X217070Y332149D01*
X218638Y333716D01*
X221773Y333716D01*
X223341Y335284D01*
X221773Y336852D01*
X217070Y336852D01*
X213986Y339987D02*
X213986Y330581D01*
X213986Y335284D02*
X212418Y336852D01*
X209283Y336852D01*
X207715Y335284D01*
X207715Y330581D01*
X195275Y330581D02*
X195275Y339987D01*
X195275Y330581D02*
X190572Y330581D01*
X189004Y332149D01*
X189004Y338419D01*
X190572Y339987D01*
X195275Y339987D01*
X185920Y339987D02*
X185920Y330581D01*
X185920Y335284D02*
X184352Y336852D01*
X181217Y336852D01*
X179649Y335284D01*
X179649Y330581D01*
X174997Y330581D02*
X171862Y330581D01*
X174997Y330581D02*
X176565Y332149D01*
X176565Y335284D01*
X174997Y336852D01*
X171862Y336852D01*
X170294Y335284D01*
X170294Y333716D01*
X176565Y333716D01*
X167210Y330581D02*
X167210Y339987D01*
X167210Y333716D02*
X162507Y330581D01*
X167210Y333716D02*
X162507Y336852D01*
X159414Y336852D02*
X159414Y330581D01*
X159414Y336852D02*
X154711Y336852D01*
X153143Y335284D01*
X153143Y330581D01*
X148491Y330581D02*
X145355Y330581D01*
X148491Y330581D02*
X150058Y332149D01*
X150058Y335284D01*
X148491Y336852D01*
X145355Y336852D01*
X143788Y335284D01*
X143788Y333716D01*
X150058Y333716D01*
X331343Y63924D02*
X338715Y63924D01*
X338715Y68839D01*
X335029Y66382D02*
X335029Y63924D01*
X336258Y71408D02*
X336258Y72637D01*
X331343Y72637D01*
X331343Y71408D02*
X331343Y73866D01*
X338715Y72637D02*
X339944Y72637D01*
X336258Y76398D02*
X331343Y76398D01*
X336258Y76398D02*
X336258Y80084D01*
X335029Y81313D01*
X331343Y81313D01*
X328886Y86339D02*
X328886Y87568D01*
X330114Y88797D01*
X336258Y88797D01*
X336258Y85111D01*
X335029Y83882D01*
X332572Y83882D01*
X331343Y85111D01*
X331343Y88797D01*
X331343Y92595D02*
X331343Y95052D01*
X331343Y92595D02*
X332572Y91366D01*
X335029Y91366D01*
X336258Y92595D01*
X336258Y95052D01*
X335029Y96281D01*
X333800Y96281D01*
X333800Y91366D01*
X331343Y98850D02*
X336258Y98850D01*
X333800Y98850D02*
X336258Y101308D01*
X336258Y102536D01*
X336258Y105087D02*
X328886Y105087D01*
X336258Y105087D02*
X336258Y108773D01*
X335029Y110002D01*
X332572Y110002D01*
X331343Y108773D01*
X331343Y105087D01*
X331343Y112571D02*
X336258Y112571D01*
X333800Y112571D02*
X336258Y115029D01*
X336258Y116257D01*
X336258Y118808D02*
X336258Y120037D01*
X331343Y120037D01*
X331343Y121265D02*
X331343Y118808D01*
X338715Y120037D02*
X339944Y120037D01*
X336258Y123797D02*
X331343Y123797D01*
X336258Y123797D02*
X336258Y127484D01*
X335029Y128712D01*
X331343Y128712D01*
X332572Y132510D02*
X337487Y132510D01*
X332572Y132510D02*
X331343Y133739D01*
X336258Y133739D02*
X336258Y131282D01*
D11*
X322326Y50297D02*
X322326Y44704D01*
X319530Y44704D01*
X318598Y45636D01*
X318598Y49365D01*
X319530Y50297D01*
X322326Y50297D01*
X316713Y48433D02*
X314849Y50297D01*
X314849Y44704D01*
X316713Y44704D02*
X312984Y44704D01*
X328758Y157315D02*
X329690Y158247D01*
X331554Y158247D01*
X332486Y157315D01*
X332486Y153586D01*
X331554Y152654D01*
X329690Y152654D01*
X328758Y153586D01*
X328758Y155450D01*
X330622Y155450D01*
X326873Y156383D02*
X326873Y152654D01*
X326873Y156383D02*
X324077Y156383D01*
X323144Y155450D01*
X323144Y152654D01*
X317531Y152654D02*
X317531Y158247D01*
X317531Y152654D02*
X320328Y152654D01*
X321260Y153586D01*
X321260Y155450D01*
X320328Y156383D01*
X317531Y156383D01*
D10*
X304419Y382949D02*
X304419Y390787D01*
X304419Y382949D02*
X302851Y381381D01*
X299716Y381381D01*
X298148Y382949D01*
X298148Y390787D01*
X295064Y390787D02*
X295064Y381381D01*
X291928Y384516D01*
X288793Y381381D01*
X288793Y390787D01*
X285709Y390787D02*
X285709Y381381D01*
X285709Y390787D02*
X281006Y390787D01*
X279438Y389219D01*
X279438Y387652D01*
X281006Y386084D01*
X279438Y384516D01*
X279438Y382949D01*
X281006Y381381D01*
X285709Y381381D01*
X285709Y386084D02*
X281006Y386084D01*
X266998Y381381D02*
X266998Y390787D01*
X260728Y390787D01*
X263863Y386084D02*
X266998Y386084D01*
X257643Y390787D02*
X256075Y390787D01*
X256075Y381381D01*
X254508Y381381D02*
X257643Y381381D01*
X249839Y387652D02*
X246703Y387652D01*
X245136Y386084D01*
X245136Y381381D01*
X249839Y381381D01*
X251406Y382949D01*
X249839Y384516D01*
X245136Y384516D01*
X240483Y382949D02*
X240483Y389219D01*
X240483Y382949D02*
X238916Y381381D01*
X238916Y387652D02*
X242051Y387652D01*
X226459Y390787D02*
X226459Y381381D01*
X223324Y384516D01*
X220188Y381381D01*
X220188Y390787D01*
X215536Y387652D02*
X212401Y387652D01*
X210833Y386084D01*
X210833Y381381D01*
X215536Y381381D01*
X217104Y382949D01*
X215536Y384516D01*
X210833Y384516D01*
X206181Y382949D02*
X206181Y389219D01*
X206181Y382949D02*
X204613Y381381D01*
X204613Y387652D02*
X207749Y387652D01*
X199944Y387652D02*
X195241Y387652D01*
X199944Y387652D02*
X201512Y386084D01*
X201512Y382949D01*
X199944Y381381D01*
X195241Y381381D01*
X192157Y381381D02*
X192157Y390787D01*
X190589Y387652D02*
X192157Y386084D01*
X190589Y387652D02*
X187454Y387652D01*
X185886Y386084D01*
X185886Y381381D01*
X301284Y368681D02*
X304419Y374952D01*
X298148Y374952D02*
X301284Y368681D01*
X295064Y368681D02*
X288793Y368681D01*
X295064Y368681D02*
X288793Y374952D01*
X288793Y376519D01*
X290361Y378087D01*
X293496Y378087D01*
X295064Y376519D01*
X285709Y370249D02*
X285709Y368681D01*
X285709Y370249D02*
X284141Y370249D01*
X284141Y368681D01*
X285709Y368681D01*
X281031Y370249D02*
X281031Y376519D01*
X279463Y378087D01*
X276328Y378087D01*
X274760Y376519D01*
X274760Y370249D01*
X276328Y368681D01*
X279463Y368681D01*
X281031Y370249D01*
X274760Y376519D01*
D11*
X240790Y2037D02*
X239858Y1105D01*
X240790Y2037D02*
X242654Y2037D01*
X243586Y1105D01*
X243586Y173D01*
X242654Y-760D01*
X240790Y-760D01*
X239858Y-1692D01*
X239858Y-2624D01*
X240790Y-3556D01*
X242654Y-3556D01*
X243586Y-2624D01*
X235177Y2037D02*
X234244Y1105D01*
X235177Y2037D02*
X237041Y2037D01*
X237973Y1105D01*
X237973Y-2624D01*
X237041Y-3556D01*
X235177Y-3556D01*
X234244Y-2624D01*
X232360Y-3556D02*
X232360Y2037D01*
X232360Y-3556D02*
X228631Y-3556D01*
D12*
X217120Y188640D02*
X217122Y188711D01*
X217128Y188782D01*
X217138Y188853D01*
X217152Y188923D01*
X217170Y188992D01*
X217191Y189059D01*
X217217Y189126D01*
X217246Y189191D01*
X217278Y189254D01*
X217315Y189316D01*
X217354Y189375D01*
X217397Y189432D01*
X217443Y189486D01*
X217492Y189538D01*
X217544Y189587D01*
X217598Y189633D01*
X217655Y189676D01*
X217714Y189715D01*
X217776Y189752D01*
X217839Y189784D01*
X217904Y189813D01*
X217971Y189839D01*
X218038Y189860D01*
X218107Y189878D01*
X218177Y189892D01*
X218248Y189902D01*
X218319Y189908D01*
X218390Y189910D01*
X218461Y189908D01*
X218532Y189902D01*
X218603Y189892D01*
X218673Y189878D01*
X218742Y189860D01*
X218809Y189839D01*
X218876Y189813D01*
X218941Y189784D01*
X219004Y189752D01*
X219066Y189715D01*
X219125Y189676D01*
X219182Y189633D01*
X219236Y189587D01*
X219288Y189538D01*
X219337Y189486D01*
X219383Y189432D01*
X219426Y189375D01*
X219465Y189316D01*
X219502Y189254D01*
X219534Y189191D01*
X219563Y189126D01*
X219589Y189059D01*
X219610Y188992D01*
X219628Y188923D01*
X219642Y188853D01*
X219652Y188782D01*
X219658Y188711D01*
X219660Y188640D01*
X219658Y188569D01*
X219652Y188498D01*
X219642Y188427D01*
X219628Y188357D01*
X219610Y188288D01*
X219589Y188221D01*
X219563Y188154D01*
X219534Y188089D01*
X219502Y188026D01*
X219465Y187964D01*
X219426Y187905D01*
X219383Y187848D01*
X219337Y187794D01*
X219288Y187742D01*
X219236Y187693D01*
X219182Y187647D01*
X219125Y187604D01*
X219066Y187565D01*
X219004Y187528D01*
X218941Y187496D01*
X218876Y187467D01*
X218809Y187441D01*
X218742Y187420D01*
X218673Y187402D01*
X218603Y187388D01*
X218532Y187378D01*
X218461Y187372D01*
X218390Y187370D01*
X218319Y187372D01*
X218248Y187378D01*
X218177Y187388D01*
X218107Y187402D01*
X218038Y187420D01*
X217971Y187441D01*
X217904Y187467D01*
X217839Y187496D01*
X217776Y187528D01*
X217714Y187565D01*
X217655Y187604D01*
X217598Y187647D01*
X217544Y187693D01*
X217492Y187742D01*
X217443Y187794D01*
X217397Y187848D01*
X217354Y187905D01*
X217315Y187964D01*
X217278Y188026D01*
X217246Y188089D01*
X217217Y188154D01*
X217191Y188221D01*
X217170Y188288D01*
X217152Y188357D01*
X217138Y188427D01*
X217128Y188498D01*
X217122Y188569D01*
X217120Y188640D01*
D13*
X143070Y185860D02*
X143070Y180360D01*
X143070Y185860D02*
X148570Y185860D01*
X143070Y119360D02*
X143070Y113860D01*
X148570Y113860D01*
X209570Y185860D02*
X215070Y185860D01*
X215070Y180360D01*
X215070Y113860D02*
X209570Y113860D01*
X215070Y113860D02*
X215070Y119360D01*
D14*
X134314Y151670D02*
X128806Y151670D01*
X127704Y152771D01*
X127704Y154974D01*
X128806Y156076D01*
X134314Y156076D01*
X128806Y159154D02*
X127704Y160255D01*
X127704Y162459D01*
X128806Y163560D01*
X129907Y163560D01*
X131009Y162459D01*
X131009Y160255D01*
X132110Y159154D01*
X133212Y159154D01*
X134314Y160255D01*
X134314Y162459D01*
X133212Y163560D01*
X135415Y161357D02*
X126602Y161357D01*
X127704Y169943D02*
X134314Y169943D01*
X131009Y166638D01*
X131009Y171044D01*
X308250Y215312D02*
X309352Y216414D01*
X311555Y216414D01*
X312656Y215312D01*
X312656Y210906D01*
X311555Y209804D01*
X309352Y209804D01*
X308250Y210906D01*
X305172Y216414D02*
X300766Y216414D01*
X305172Y216414D02*
X305172Y213109D01*
X302969Y214210D01*
X301867Y214210D01*
X300766Y213109D01*
X300766Y210906D01*
X301867Y209804D01*
X304071Y209804D01*
X305172Y210906D01*
X311892Y173234D02*
X310790Y172132D01*
X311892Y173234D02*
X314095Y173234D01*
X315196Y172132D01*
X315196Y167726D01*
X314095Y166624D01*
X311892Y166624D01*
X310790Y167726D01*
X305509Y172132D02*
X303306Y173234D01*
X305509Y172132D02*
X307712Y169929D01*
X307712Y167726D01*
X306611Y166624D01*
X304407Y166624D01*
X303306Y167726D01*
X303306Y168827D01*
X304407Y169929D01*
X307712Y169929D01*
X311892Y155454D02*
X310790Y154352D01*
X311892Y155454D02*
X314095Y155454D01*
X315196Y154352D01*
X315196Y149946D01*
X314095Y148844D01*
X311892Y148844D01*
X310790Y149946D01*
X307712Y155454D02*
X303306Y155454D01*
X303306Y154352D01*
X307712Y149946D01*
X307712Y148844D01*
D13*
X249828Y168400D02*
X249725Y168398D01*
X249622Y168392D01*
X249519Y168383D01*
X249416Y168370D01*
X249314Y168353D01*
X249213Y168332D01*
X249113Y168308D01*
X249013Y168280D01*
X248915Y168249D01*
X248818Y168213D01*
X248722Y168175D01*
X248628Y168133D01*
X248535Y168087D01*
X248444Y168038D01*
X248355Y167986D01*
X248268Y167931D01*
X248183Y167872D01*
X248100Y167810D01*
X248019Y167746D01*
X247941Y167678D01*
X247865Y167608D01*
X247792Y167535D01*
X247722Y167459D01*
X247654Y167381D01*
X247590Y167300D01*
X247528Y167217D01*
X247469Y167132D01*
X247414Y167045D01*
X247362Y166956D01*
X247313Y166865D01*
X247267Y166772D01*
X247225Y166678D01*
X247187Y166582D01*
X247151Y166485D01*
X247120Y166387D01*
X247092Y166287D01*
X247068Y166187D01*
X247047Y166086D01*
X247030Y165984D01*
X247017Y165881D01*
X247008Y165778D01*
X247002Y165675D01*
X247000Y165572D01*
X247000Y139228D01*
X247002Y139125D01*
X247008Y139022D01*
X247017Y138919D01*
X247030Y138816D01*
X247047Y138714D01*
X247068Y138613D01*
X247092Y138513D01*
X247120Y138413D01*
X247151Y138315D01*
X247187Y138218D01*
X247225Y138122D01*
X247267Y138028D01*
X247313Y137935D01*
X247362Y137844D01*
X247414Y137755D01*
X247469Y137668D01*
X247528Y137583D01*
X247590Y137500D01*
X247654Y137419D01*
X247722Y137341D01*
X247792Y137265D01*
X247865Y137192D01*
X247941Y137122D01*
X248019Y137054D01*
X248100Y136990D01*
X248183Y136928D01*
X248268Y136869D01*
X248355Y136814D01*
X248444Y136762D01*
X248535Y136713D01*
X248628Y136667D01*
X248722Y136625D01*
X248818Y136587D01*
X248915Y136551D01*
X249013Y136520D01*
X249113Y136492D01*
X249213Y136468D01*
X249314Y136447D01*
X249416Y136430D01*
X249519Y136417D01*
X249622Y136408D01*
X249725Y136402D01*
X249828Y136400D01*
X258764Y136400D01*
X258856Y136402D01*
X258949Y136408D01*
X259041Y136417D01*
X259132Y136430D01*
X259223Y136448D01*
X259313Y136468D01*
X259402Y136493D01*
X259490Y136521D01*
X259577Y136553D01*
X259662Y136588D01*
X259746Y136627D01*
X259828Y136669D01*
X259909Y136715D01*
X259987Y136764D01*
X260063Y136816D01*
X260137Y136871D01*
X260209Y136930D01*
X260278Y136991D01*
X260345Y137055D01*
X260409Y137122D01*
X260470Y137191D01*
X260529Y137263D01*
X260584Y137337D01*
X260636Y137413D01*
X260685Y137491D01*
X260731Y137572D01*
X260773Y137654D01*
X260812Y137738D01*
X260847Y137823D01*
X260879Y137910D01*
X260907Y137998D01*
X260932Y138087D01*
X260952Y138177D01*
X260970Y138268D01*
X260983Y138359D01*
X260992Y138451D01*
X260998Y138544D01*
X261000Y138636D01*
X261000Y165238D01*
X260998Y165348D01*
X260992Y165459D01*
X260983Y165569D01*
X260969Y165678D01*
X260952Y165787D01*
X260931Y165895D01*
X260906Y166003D01*
X260878Y166110D01*
X260845Y166215D01*
X260809Y166319D01*
X260770Y166423D01*
X260727Y166524D01*
X260680Y166624D01*
X260630Y166722D01*
X260576Y166819D01*
X260520Y166914D01*
X260459Y167006D01*
X260396Y167097D01*
X260330Y167185D01*
X260260Y167270D01*
X260188Y167354D01*
X260113Y167435D01*
X260035Y167513D01*
X259954Y167588D01*
X259870Y167660D01*
X259785Y167730D01*
X259697Y167796D01*
X259606Y167859D01*
X259514Y167920D01*
X259419Y167976D01*
X259322Y168030D01*
X259224Y168080D01*
X259124Y168127D01*
X259023Y168170D01*
X258919Y168209D01*
X258815Y168245D01*
X258710Y168278D01*
X258603Y168306D01*
X258495Y168331D01*
X258387Y168352D01*
X258278Y168369D01*
X258169Y168383D01*
X258059Y168392D01*
X257948Y168398D01*
X257838Y168400D01*
X249828Y168400D01*
X258000Y162400D02*
X258000Y141400D01*
X258000Y162400D02*
X257998Y162507D01*
X257992Y162614D01*
X257983Y162721D01*
X257969Y162827D01*
X257952Y162933D01*
X257931Y163038D01*
X257907Y163142D01*
X257878Y163245D01*
X257846Y163347D01*
X257811Y163448D01*
X257771Y163548D01*
X257729Y163646D01*
X257682Y163743D01*
X257633Y163838D01*
X257580Y163931D01*
X257523Y164022D01*
X257464Y164111D01*
X257401Y164198D01*
X257336Y164282D01*
X257267Y164364D01*
X257195Y164444D01*
X257121Y164521D01*
X257044Y164595D01*
X256964Y164667D01*
X256882Y164736D01*
X256798Y164801D01*
X256711Y164864D01*
X256622Y164923D01*
X256531Y164980D01*
X256438Y165033D01*
X256343Y165082D01*
X256246Y165129D01*
X256148Y165171D01*
X256048Y165211D01*
X255947Y165246D01*
X255845Y165278D01*
X255742Y165307D01*
X255638Y165331D01*
X255533Y165352D01*
X255427Y165369D01*
X255321Y165383D01*
X255214Y165392D01*
X255107Y165398D01*
X255000Y165400D01*
X253000Y165400D01*
X252893Y165398D01*
X252786Y165392D01*
X252679Y165383D01*
X252573Y165369D01*
X252467Y165352D01*
X252362Y165331D01*
X252258Y165307D01*
X252155Y165278D01*
X252053Y165246D01*
X251952Y165211D01*
X251852Y165172D01*
X251754Y165129D01*
X251657Y165083D01*
X251562Y165033D01*
X251469Y164980D01*
X251378Y164924D01*
X251289Y164864D01*
X251202Y164802D01*
X251118Y164736D01*
X251035Y164667D01*
X250956Y164596D01*
X250879Y164521D01*
X250804Y164444D01*
X250733Y164365D01*
X250664Y164282D01*
X250598Y164198D01*
X250536Y164111D01*
X250476Y164022D01*
X250420Y163931D01*
X250367Y163838D01*
X250317Y163743D01*
X250271Y163646D01*
X250228Y163548D01*
X250189Y163448D01*
X250154Y163347D01*
X250122Y163245D01*
X250093Y163142D01*
X250069Y163038D01*
X250048Y162933D01*
X250031Y162827D01*
X250017Y162721D01*
X250008Y162614D01*
X250002Y162507D01*
X250000Y162400D01*
X250000Y142400D01*
X249982Y142302D01*
X249968Y142202D01*
X249958Y142103D01*
X249952Y142003D01*
X249950Y141903D01*
X249952Y141803D01*
X249958Y141703D01*
X249967Y141603D01*
X249981Y141504D01*
X249998Y141405D01*
X250020Y141307D01*
X250045Y141210D01*
X250074Y141115D01*
X250107Y141020D01*
X250143Y140927D01*
X250183Y140835D01*
X250227Y140745D01*
X250274Y140656D01*
X250324Y140570D01*
X250378Y140486D01*
X250435Y140403D01*
X250496Y140323D01*
X250559Y140246D01*
X250626Y140171D01*
X250695Y140099D01*
X250767Y140029D01*
X250842Y139963D01*
X250919Y139899D01*
X250999Y139839D01*
X251081Y139781D01*
X251165Y139727D01*
X251252Y139676D01*
X251340Y139629D01*
X251430Y139585D01*
X251522Y139545D01*
X251615Y139509D01*
X251709Y139476D01*
X251805Y139446D01*
X251902Y139421D01*
X252000Y139400D01*
X255000Y139400D01*
X255099Y139382D01*
X255198Y139368D01*
X255298Y139358D01*
X255398Y139352D01*
X255498Y139350D01*
X255598Y139352D01*
X255698Y139358D01*
X255797Y139367D01*
X255897Y139381D01*
X255995Y139398D01*
X256093Y139420D01*
X256190Y139445D01*
X256286Y139474D01*
X256381Y139507D01*
X256474Y139543D01*
X256566Y139583D01*
X256656Y139627D01*
X256744Y139674D01*
X256831Y139724D01*
X256915Y139778D01*
X256997Y139835D01*
X257077Y139896D01*
X257155Y139959D01*
X257229Y140026D01*
X257302Y140095D01*
X257371Y140167D01*
X257438Y140242D01*
X257501Y140319D01*
X257562Y140399D01*
X257619Y140481D01*
X257673Y140565D01*
X257724Y140652D01*
X257771Y140740D01*
X257815Y140830D01*
X257855Y140922D01*
X257892Y141015D01*
X257925Y141109D01*
X257954Y141205D01*
X257979Y141302D01*
X258001Y141400D01*
D10*
X241787Y129781D02*
X232381Y136052D01*
X232381Y129781D02*
X241787Y136052D01*
X232381Y139136D02*
X232381Y145407D01*
X232381Y139136D02*
X238652Y145407D01*
X240219Y145407D01*
X241787Y143839D01*
X241787Y140704D01*
X240219Y139136D01*
D15*
X63500Y55880D02*
X63500Y45720D01*
D14*
X39113Y56902D02*
X38012Y55800D01*
X39113Y56902D02*
X41316Y56902D01*
X42418Y55800D01*
X42418Y51394D01*
X41316Y50292D01*
X39113Y50292D01*
X38012Y51394D01*
X34934Y55800D02*
X33832Y56902D01*
X31629Y56902D01*
X30527Y55800D01*
X30527Y54698D01*
X31629Y53597D01*
X30527Y52495D01*
X30527Y51394D01*
X31629Y50292D01*
X33832Y50292D01*
X34934Y51394D01*
X34934Y52495D01*
X33832Y53597D01*
X34934Y54698D01*
X34934Y55800D01*
X33832Y53597D02*
X31629Y53597D01*
X308250Y188642D02*
X309352Y189744D01*
X311555Y189744D01*
X312656Y188642D01*
X312656Y184236D01*
X311555Y183134D01*
X309352Y183134D01*
X308250Y184236D01*
X305172Y184236D02*
X304071Y183134D01*
X301867Y183134D01*
X300766Y184236D01*
X300766Y188642D01*
X301867Y189744D01*
X304071Y189744D01*
X305172Y188642D01*
X305172Y187540D01*
X304071Y186439D01*
X300766Y186439D01*
X318106Y136404D02*
X317004Y135302D01*
X318106Y136404D02*
X320309Y136404D01*
X321410Y135302D01*
X321410Y130896D01*
X320309Y129794D01*
X318106Y129794D01*
X317004Y130896D01*
X313926Y134200D02*
X311723Y136404D01*
X311723Y129794D01*
X313926Y129794D02*
X309520Y129794D01*
X303137Y129794D02*
X303137Y136404D01*
X306442Y133099D01*
X302036Y133099D01*
D15*
X278130Y38100D02*
X267970Y38100D01*
D14*
X279152Y62487D02*
X278050Y63588D01*
X279152Y62487D02*
X279152Y60284D01*
X278050Y59182D01*
X273644Y59182D01*
X272542Y60284D01*
X272542Y62487D01*
X273644Y63588D01*
X276948Y66666D02*
X279152Y68869D01*
X272542Y68869D01*
X272542Y66666D02*
X272542Y71073D01*
X278050Y74150D02*
X279152Y75252D01*
X279152Y77455D01*
X278050Y78557D01*
X276948Y78557D01*
X275847Y77455D01*
X275847Y76354D01*
X275847Y77455D02*
X274745Y78557D01*
X273644Y78557D01*
X272542Y77455D01*
X272542Y75252D01*
X273644Y74150D01*
D13*
X214200Y39800D02*
X192200Y39800D01*
X214200Y39800D02*
X214200Y61800D01*
X192200Y61800D01*
X192200Y39800D01*
D15*
X187200Y42800D02*
X187202Y42863D01*
X187208Y42925D01*
X187218Y42987D01*
X187231Y43049D01*
X187249Y43109D01*
X187270Y43168D01*
X187295Y43226D01*
X187324Y43282D01*
X187356Y43336D01*
X187391Y43388D01*
X187429Y43437D01*
X187471Y43485D01*
X187515Y43529D01*
X187563Y43571D01*
X187612Y43609D01*
X187664Y43644D01*
X187718Y43676D01*
X187774Y43705D01*
X187832Y43730D01*
X187891Y43751D01*
X187951Y43769D01*
X188013Y43782D01*
X188075Y43792D01*
X188137Y43798D01*
X188200Y43800D01*
X188263Y43798D01*
X188325Y43792D01*
X188387Y43782D01*
X188449Y43769D01*
X188509Y43751D01*
X188568Y43730D01*
X188626Y43705D01*
X188682Y43676D01*
X188736Y43644D01*
X188788Y43609D01*
X188837Y43571D01*
X188885Y43529D01*
X188929Y43485D01*
X188971Y43437D01*
X189009Y43388D01*
X189044Y43336D01*
X189076Y43282D01*
X189105Y43226D01*
X189130Y43168D01*
X189151Y43109D01*
X189169Y43049D01*
X189182Y42987D01*
X189192Y42925D01*
X189198Y42863D01*
X189200Y42800D01*
X189198Y42737D01*
X189192Y42675D01*
X189182Y42613D01*
X189169Y42551D01*
X189151Y42491D01*
X189130Y42432D01*
X189105Y42374D01*
X189076Y42318D01*
X189044Y42264D01*
X189009Y42212D01*
X188971Y42163D01*
X188929Y42115D01*
X188885Y42071D01*
X188837Y42029D01*
X188788Y41991D01*
X188736Y41956D01*
X188682Y41924D01*
X188626Y41895D01*
X188568Y41870D01*
X188509Y41849D01*
X188449Y41831D01*
X188387Y41818D01*
X188325Y41808D01*
X188263Y41802D01*
X188200Y41800D01*
X188137Y41802D01*
X188075Y41808D01*
X188013Y41818D01*
X187951Y41831D01*
X187891Y41849D01*
X187832Y41870D01*
X187774Y41895D01*
X187718Y41924D01*
X187664Y41956D01*
X187612Y41991D01*
X187563Y42029D01*
X187515Y42071D01*
X187471Y42115D01*
X187429Y42163D01*
X187391Y42212D01*
X187356Y42264D01*
X187324Y42318D01*
X187295Y42374D01*
X187270Y42432D01*
X187249Y42491D01*
X187231Y42551D01*
X187218Y42613D01*
X187208Y42675D01*
X187202Y42737D01*
X187200Y42800D01*
D14*
X209193Y30434D02*
X211396Y30434D01*
X210294Y30434D02*
X210294Y37044D01*
X209193Y37044D02*
X211396Y37044D01*
X203102Y37044D02*
X202000Y35942D01*
X203102Y37044D02*
X205305Y37044D01*
X206406Y35942D01*
X206406Y31536D01*
X205305Y30434D01*
X203102Y30434D01*
X202000Y31536D01*
X198922Y34840D02*
X196719Y37044D01*
X196719Y30434D01*
X198922Y30434D02*
X194516Y30434D01*
D11*
X216893Y63990D02*
X216893Y67549D01*
X216893Y63990D02*
X214521Y63990D01*
X213151Y63990D02*
X211965Y63990D01*
X212558Y63990D02*
X212558Y67549D01*
X213151Y67549D02*
X211965Y67549D01*
X208877Y67549D02*
X208284Y66956D01*
X208877Y67549D02*
X210063Y67549D01*
X210656Y66956D01*
X210656Y66363D01*
X210063Y65770D01*
X208877Y65770D01*
X208284Y65176D01*
X208284Y64583D01*
X208877Y63990D01*
X210063Y63990D01*
X210656Y64583D01*
X206914Y63990D02*
X204542Y63990D01*
X206914Y63990D02*
X204542Y66363D01*
X204542Y66956D01*
X205135Y67549D01*
X206321Y67549D01*
X206914Y66956D01*
X203172Y67549D02*
X203172Y63990D01*
X201986Y66363D02*
X203172Y67549D01*
X201986Y66363D02*
X200800Y67549D01*
X200800Y63990D01*
X199430Y63990D02*
X199430Y67549D01*
X199430Y63990D02*
X197651Y63990D01*
X197058Y64583D01*
X197058Y66956D01*
X197651Y67549D01*
X199430Y67549D01*
X195688Y67549D02*
X195688Y63990D01*
X193315Y63990D01*
D13*
X266280Y112542D02*
X267085Y111737D01*
X267085Y110127D01*
X266280Y109322D01*
X263060Y109322D01*
X262255Y110127D01*
X262255Y111737D01*
X263060Y112542D01*
X265475Y114935D02*
X267085Y116545D01*
X262255Y116545D01*
X262255Y114935D02*
X262255Y118155D01*
X231163Y17149D02*
X230358Y16344D01*
X231163Y17149D02*
X232773Y17149D01*
X233578Y16344D01*
X233578Y13124D01*
X232773Y12319D01*
X231163Y12319D01*
X230358Y13124D01*
X225550Y12319D02*
X225550Y17149D01*
X227965Y14734D01*
X224745Y14734D01*
D16*
X168650Y37050D02*
X136150Y37050D01*
X168650Y37050D02*
X168650Y64550D01*
X136150Y64550D01*
X136150Y37050D01*
D17*
X132080Y33020D03*
D13*
X182778Y33655D02*
X182778Y38485D01*
X180363Y38485D01*
X179558Y37680D01*
X179558Y36070D01*
X180363Y35265D01*
X182778Y35265D01*
X181168Y35265D02*
X179558Y33655D01*
X177165Y33655D02*
X173945Y33655D01*
X177165Y33655D02*
X173945Y36875D01*
X173945Y37680D01*
X174750Y38485D01*
X176360Y38485D01*
X177165Y37680D01*
D15*
X72390Y20320D02*
X62230Y20320D01*
D14*
X73412Y44707D02*
X72310Y45808D01*
X73412Y44707D02*
X73412Y42504D01*
X72310Y41402D01*
X67904Y41402D01*
X66802Y42504D01*
X66802Y44707D01*
X67904Y45808D01*
X71208Y48886D02*
X73412Y51089D01*
X66802Y51089D01*
X66802Y48886D02*
X66802Y53293D01*
X66802Y56370D02*
X66802Y60777D01*
X71208Y60777D02*
X66802Y56370D01*
X71208Y60777D02*
X72310Y60777D01*
X73412Y59675D01*
X73412Y57472D01*
X72310Y56370D01*
X90424Y-6586D02*
X97034Y-6586D01*
X97034Y-3282D01*
X95932Y-2180D01*
X93729Y-2180D01*
X92627Y-3282D01*
X92627Y-6586D01*
X92627Y-4383D02*
X90424Y-2180D01*
X95932Y898D02*
X97034Y1999D01*
X97034Y4203D01*
X95932Y5304D01*
X94830Y5304D01*
X93729Y4203D01*
X92627Y5304D01*
X91526Y5304D01*
X90424Y4203D01*
X90424Y1999D01*
X91526Y898D01*
X92627Y898D01*
X93729Y1999D01*
X94830Y898D01*
X95932Y898D01*
X93729Y1999D02*
X93729Y4203D01*
X158986Y4324D02*
X158986Y-2286D01*
X158986Y4324D02*
X155682Y4324D01*
X154580Y3222D01*
X154580Y1019D01*
X155682Y-83D01*
X158986Y-83D01*
X156783Y-83D02*
X154580Y-2286D01*
X151502Y3222D02*
X150401Y4324D01*
X148197Y4324D01*
X147096Y3222D01*
X147096Y2120D01*
X148197Y1019D01*
X149299Y1019D01*
X148197Y1019D02*
X147096Y-83D01*
X147096Y-1184D01*
X148197Y-2286D01*
X150401Y-2286D01*
X151502Y-1184D01*
X103378Y19812D02*
X103378Y26422D01*
X100073Y26422D01*
X98972Y25320D01*
X98972Y23117D01*
X100073Y22015D01*
X103378Y22015D01*
X101175Y22015D02*
X98972Y19812D01*
X95894Y26422D02*
X91487Y26422D01*
X95894Y26422D02*
X95894Y23117D01*
X93691Y24218D01*
X92589Y24218D01*
X91487Y23117D01*
X91487Y20914D01*
X92589Y19812D01*
X94792Y19812D01*
X95894Y20914D01*
D13*
X153400Y256000D02*
X153400Y262500D01*
X153400Y256000D02*
X148400Y256000D01*
X148400Y253500D01*
X28900Y253500D01*
X153400Y285500D02*
X153400Y322500D01*
X153400Y345000D02*
X153400Y395500D01*
X19900Y395500D01*
D14*
X76262Y270968D02*
X82872Y266562D01*
X82872Y270968D02*
X76262Y266562D01*
X76262Y277351D02*
X82872Y277351D01*
X79567Y274046D01*
X79567Y278453D01*
M02*
