G04 EAGLE Gerber RS-274X export*
G75*
%MOMM*%
%FSLAX34Y34*%
%LPD*%
%INSoldermask Top*%
%IPPOS*%
%AMOC8*
5,1,8,0,0,1.08239X$1,22.5*%
G01*
%ADD10C,2.641600*%
%ADD11R,1.601600X1.401600*%
%ADD12R,1.301600X0.651600*%
%ADD13R,1.501600X1.501600*%
%ADD14R,1.201600X1.101600*%
%ADD15R,1.301600X1.301600*%
%ADD16R,1.001600X0.951600*%
%ADD17R,1.101600X1.201600*%
%ADD18R,1.609600X1.609600*%
%ADD19C,1.609600*%
%ADD20C,1.879600*%
%ADD21R,0.951600X1.101600*%
%ADD22R,0.901600X1.801600*%
%ADD23R,1.660000X2.200000*%
%ADD24R,1.851600X0.501600*%
%ADD25R,2.601600X1.526600*%
%ADD26C,1.309600*%
%ADD27R,2.551600X1.101600*%
%ADD28R,1.101600X2.551600*%
%ADD29R,11.101600X9.101600*%
%ADD30R,1.301600X0.901600*%

G36*
X38057Y169597D02*
X38057Y169597D01*
X38052Y169604D01*
X38059Y169610D01*
X38059Y189860D01*
X38023Y189907D01*
X38016Y189902D01*
X38010Y189909D01*
X29010Y189909D01*
X28963Y189873D01*
X28967Y189868D01*
X28963Y189865D01*
X28964Y189863D01*
X28961Y189860D01*
X28961Y184659D01*
X8510Y184659D01*
X8507Y184657D01*
X8505Y184659D01*
X7392Y184534D01*
X7386Y184528D01*
X7381Y184531D01*
X6324Y184161D01*
X6320Y184155D01*
X6314Y184157D01*
X5366Y183561D01*
X5363Y183553D01*
X5358Y183554D01*
X4566Y182762D01*
X4565Y182754D01*
X4559Y182754D01*
X3963Y181806D01*
X3964Y181797D01*
X3959Y181796D01*
X3589Y180739D01*
X3591Y180731D01*
X3586Y180728D01*
X3461Y179616D01*
X3463Y179612D01*
X3461Y179610D01*
X3461Y174610D01*
X3463Y174607D01*
X3461Y174605D01*
X3586Y173492D01*
X3592Y173486D01*
X3589Y173481D01*
X3959Y172424D01*
X3966Y172420D01*
X3963Y172414D01*
X4559Y171466D01*
X4567Y171463D01*
X4566Y171458D01*
X5358Y170666D01*
X5366Y170665D01*
X5366Y170659D01*
X6314Y170063D01*
X6323Y170064D01*
X6324Y170059D01*
X7381Y169689D01*
X7389Y169691D01*
X7392Y169686D01*
X8505Y169561D01*
X8508Y169563D01*
X8510Y169561D01*
X38010Y169561D01*
X38057Y169597D01*
G37*
G36*
X38057Y109847D02*
X38057Y109847D01*
X38052Y109854D01*
X38059Y109860D01*
X38059Y130110D01*
X38023Y130157D01*
X38016Y130152D01*
X38010Y130159D01*
X8510Y130159D01*
X8507Y130157D01*
X8505Y130159D01*
X7392Y130034D01*
X7386Y130028D01*
X7381Y130031D01*
X6324Y129661D01*
X6320Y129655D01*
X6314Y129657D01*
X5366Y129061D01*
X5363Y129053D01*
X5358Y129054D01*
X4566Y128262D01*
X4565Y128254D01*
X4559Y128254D01*
X3963Y127306D01*
X3964Y127297D01*
X3959Y127296D01*
X3589Y126239D01*
X3591Y126231D01*
X3586Y126228D01*
X3461Y125116D01*
X3463Y125112D01*
X3461Y125110D01*
X3461Y120110D01*
X3463Y120107D01*
X3461Y120105D01*
X3586Y118992D01*
X3592Y118986D01*
X3589Y118981D01*
X3959Y117924D01*
X3966Y117920D01*
X3963Y117914D01*
X4559Y116966D01*
X4567Y116963D01*
X4566Y116958D01*
X5358Y116166D01*
X5366Y116165D01*
X5366Y116159D01*
X6314Y115563D01*
X6323Y115564D01*
X6324Y115559D01*
X7381Y115189D01*
X7389Y115191D01*
X7392Y115186D01*
X8505Y115061D01*
X8508Y115063D01*
X8510Y115061D01*
X28961Y115061D01*
X28961Y109860D01*
X28997Y109813D01*
X29004Y109818D01*
X29010Y109811D01*
X38010Y109811D01*
X38057Y109847D01*
G37*
D10*
X19050Y5080D03*
X322580Y208280D03*
X322580Y5080D03*
X17780Y424180D03*
X322580Y424180D03*
D11*
X184150Y60300D03*
X184150Y41300D03*
D12*
X75899Y111100D03*
X75899Y101600D03*
X75899Y92100D03*
X101901Y92100D03*
X101901Y111100D03*
D13*
X73872Y77470D03*
X36872Y77470D03*
D11*
X203200Y60300D03*
X203200Y41300D03*
D14*
X72000Y50800D03*
X55000Y50800D03*
D15*
X91780Y190500D03*
X70780Y190500D03*
D14*
X91050Y170180D03*
X74050Y170180D03*
X245500Y101600D03*
X262500Y101600D03*
D11*
X223520Y60300D03*
X223520Y41300D03*
D16*
X119380Y97240D03*
X119380Y85640D03*
D17*
X165100Y59300D03*
X165100Y42300D03*
D11*
X241300Y60300D03*
X241300Y41300D03*
D16*
X259080Y56600D03*
X259080Y45000D03*
X275590Y45000D03*
X275590Y56600D03*
X292100Y56600D03*
X292100Y45000D03*
D14*
X169300Y25400D03*
X186300Y25400D03*
D18*
X12700Y50800D03*
D19*
X12700Y76200D03*
D20*
X25400Y228600D03*
X50800Y228600D03*
X76200Y228600D03*
X101600Y228600D03*
X127000Y228600D03*
X152400Y228600D03*
X177800Y228600D03*
X203200Y228600D03*
D18*
X241300Y184150D03*
D19*
X241300Y209550D03*
D21*
X270650Y122200D03*
X270650Y157200D03*
X288150Y122200D03*
X288150Y157200D03*
D20*
X125730Y114300D03*
D14*
X186300Y152400D03*
X169300Y152400D03*
D22*
X136380Y5080D03*
X102380Y5080D03*
D23*
X46810Y178860D03*
X46810Y120860D03*
D24*
X44760Y162860D03*
X44760Y156360D03*
X44760Y149860D03*
X44760Y143360D03*
X44760Y136860D03*
D25*
X14010Y159485D03*
X14010Y140235D03*
D26*
X10470Y177110D02*
X22550Y177110D01*
X22550Y122610D02*
X10470Y122610D01*
D20*
X317500Y63500D03*
X317500Y88900D03*
X317500Y114300D03*
X317500Y139700D03*
D12*
X54309Y32360D03*
X54309Y22860D03*
X54309Y13360D03*
X80311Y13360D03*
X80311Y32360D03*
D27*
X114300Y368300D03*
X114300Y382300D03*
X114300Y354300D03*
X114300Y340300D03*
X114300Y326300D03*
X114300Y312300D03*
X114300Y298300D03*
X114300Y284300D03*
D28*
X142300Y396300D03*
X156300Y396300D03*
X170300Y396300D03*
X184300Y396300D03*
X198300Y396300D03*
X212300Y396300D03*
X142300Y270300D03*
X156300Y270300D03*
X170300Y270300D03*
X184300Y270300D03*
X198300Y270300D03*
X226300Y270300D03*
X212300Y270300D03*
X226300Y396300D03*
X240300Y396300D03*
X240300Y270300D03*
D29*
X189300Y333300D03*
D14*
X245500Y241300D03*
X262500Y241300D03*
D30*
X36830Y393810D03*
X36830Y375810D03*
X58420Y406510D03*
X58420Y388510D03*
X80010Y406510D03*
X80010Y388510D03*
D20*
X215900Y0D03*
X113030Y58420D03*
M02*
