G04 EAGLE Gerber RS-274X export*
G75*
%MOMM*%
%FSLAX34Y34*%
%LPD*%
%INSolderpaste Top*%
%IPPOS*%
%AMOC8*
5,1,8,0,0,1.08239X$1,22.5*%
G01*
%ADD10R,1.500000X1.300000*%
%ADD11R,1.200000X0.550000*%
%ADD12R,1.400000X1.400000*%
%ADD13R,1.100000X1.000000*%
%ADD14R,1.200000X1.200000*%
%ADD15R,0.900000X0.850000*%
%ADD16R,1.000000X1.100000*%
%ADD17R,0.850000X1.000000*%
%ADD18R,0.800000X1.700000*%
%ADD19R,1.750000X0.400000*%
%ADD20R,2.500000X1.425000*%
%ADD21R,2.450000X1.000000*%
%ADD22R,1.000000X2.450000*%
%ADD23R,11.000000X9.000000*%
%ADD24R,1.200000X0.800000*%


D10*
X184150Y60300D03*
X184150Y41300D03*
D11*
X75899Y111100D03*
X75899Y101600D03*
X75899Y92100D03*
X101901Y92100D03*
X101901Y111100D03*
D12*
X73872Y77470D03*
X36872Y77470D03*
D10*
X203200Y60300D03*
X203200Y41300D03*
D13*
X72000Y50800D03*
X55000Y50800D03*
D14*
X91780Y190500D03*
X70780Y190500D03*
D13*
X91050Y170180D03*
X74050Y170180D03*
X245500Y101600D03*
X262500Y101600D03*
D10*
X223520Y60300D03*
X223520Y41300D03*
D15*
X119380Y97240D03*
X119380Y85640D03*
D16*
X165100Y59300D03*
X165100Y42300D03*
D10*
X241300Y60300D03*
X241300Y41300D03*
D15*
X259080Y56600D03*
X259080Y45000D03*
X275590Y45000D03*
X275590Y56600D03*
X292100Y56600D03*
X292100Y45000D03*
D13*
X169300Y25400D03*
X186300Y25400D03*
D17*
X270650Y122200D03*
X270650Y157200D03*
X288150Y122200D03*
X288150Y157200D03*
D13*
X186300Y152400D03*
X169300Y152400D03*
D18*
X136380Y5080D03*
X102380Y5080D03*
D19*
X44760Y162860D03*
X44760Y156360D03*
X44760Y149860D03*
X44760Y143360D03*
X44760Y136860D03*
D20*
X14010Y159485D03*
X14010Y140235D03*
D11*
X54309Y32360D03*
X54309Y22860D03*
X54309Y13360D03*
X80311Y13360D03*
X80311Y32360D03*
D21*
X114300Y368300D03*
X114300Y382300D03*
X114300Y354300D03*
X114300Y340300D03*
X114300Y326300D03*
X114300Y312300D03*
X114300Y298300D03*
X114300Y284300D03*
D22*
X142300Y396300D03*
X156300Y396300D03*
X170300Y396300D03*
X184300Y396300D03*
X198300Y396300D03*
X212300Y396300D03*
X142300Y270300D03*
X156300Y270300D03*
X170300Y270300D03*
X184300Y270300D03*
X198300Y270300D03*
X226300Y270300D03*
X212300Y270300D03*
X226300Y396300D03*
X240300Y396300D03*
X240300Y270300D03*
D23*
X189300Y333300D03*
D13*
X245500Y241300D03*
X262500Y241300D03*
D24*
X36830Y393810D03*
X36830Y375810D03*
X58420Y406510D03*
X58420Y388510D03*
X80010Y406510D03*
X80010Y388510D03*
M02*
