G04 EAGLE Gerber RS-274X export*
G75*
%MOMM*%
%FSLAX34Y34*%
%LPD*%
%INSolderpaste Bottom*%
%IPPOS*%
%AMOC8*
5,1,8,0,0,1.08239X$1,22.5*%
G01*
%ADD10R,0.750000X0.250000*%
%ADD11R,0.250000X0.750000*%
%ADD12R,1.500000X1.000000*%
%ADD13R,1.100000X1.000000*%
%ADD14R,1.900000X1.100000*%
%ADD15R,1.300000X1.500000*%
%ADD16R,1.500000X1.300000*%
%ADD17R,0.275000X0.250000*%
%ADD18R,0.250000X0.275000*%
%ADD19R,0.900000X0.850000*%
%ADD20R,0.850000X0.900000*%
%ADD21R,0.450000X0.250000*%
%ADD22R,0.250000X0.450000*%
%ADD23R,1.000000X1.100000*%
%ADD24R,1.900000X1.400000*%
%ADD25R,1.400000X1.800000*%
%ADD26R,1.500000X0.700000*%


D10*
X213820Y177360D03*
X213820Y172360D03*
X213820Y167360D03*
X213820Y162360D03*
X213820Y157360D03*
X213820Y152360D03*
X213820Y147360D03*
X213820Y142360D03*
X213820Y137360D03*
X213820Y132360D03*
X213820Y127360D03*
D11*
X206570Y115110D03*
X201570Y115110D03*
X196570Y115110D03*
X191570Y115110D03*
X186570Y115110D03*
X181570Y115110D03*
X176570Y115110D03*
X171570Y115110D03*
X166570Y115110D03*
X161570Y115110D03*
X156570Y115110D03*
D10*
X144320Y122360D03*
X144320Y127360D03*
X144320Y132360D03*
X144320Y137360D03*
X144320Y142360D03*
X144320Y147360D03*
X144320Y152360D03*
X144320Y157360D03*
X144320Y162360D03*
X144320Y167360D03*
X144320Y172360D03*
D11*
X151570Y184610D03*
X156570Y184610D03*
X161570Y184610D03*
X166570Y184610D03*
X171570Y184610D03*
X176570Y184610D03*
X181570Y184610D03*
X186570Y184610D03*
X191570Y184610D03*
X196570Y184610D03*
X201570Y184610D03*
D12*
X166570Y164860D03*
X166570Y149860D03*
X166570Y134860D03*
X191570Y134860D03*
X191570Y149860D03*
X191570Y164860D03*
D10*
X213820Y122360D03*
D11*
X151570Y115110D03*
D10*
X144320Y177360D03*
D11*
X206570Y184610D03*
D13*
X272170Y215900D03*
X289170Y215900D03*
X274710Y172720D03*
X291710Y172720D03*
X274710Y154940D03*
X291710Y154940D03*
D14*
X254000Y164400D03*
X254000Y140400D03*
D15*
X73000Y50800D03*
X54000Y50800D03*
D13*
X272170Y189230D03*
X289170Y189230D03*
X273440Y135890D03*
X290440Y135890D03*
D16*
X273050Y28600D03*
X273050Y47600D03*
D17*
X195700Y43300D03*
X195700Y48300D03*
X195700Y53300D03*
X195700Y58300D03*
D18*
X200700Y58300D03*
X205700Y58300D03*
D17*
X210700Y58300D03*
X210700Y53300D03*
X210700Y48300D03*
X210700Y43300D03*
D18*
X205700Y43300D03*
X200700Y43300D03*
D19*
X254000Y108500D03*
X254000Y120100D03*
D20*
X222800Y25400D03*
X234400Y25400D03*
D21*
X140650Y43300D03*
X140650Y48300D03*
X140650Y53300D03*
X140650Y58300D03*
D22*
X147400Y60050D03*
X152400Y60050D03*
X157400Y60050D03*
D21*
X164150Y58300D03*
X164150Y53300D03*
X164150Y48300D03*
X164150Y43300D03*
D22*
X157400Y41550D03*
X152400Y41550D03*
X147400Y41550D03*
D13*
X186300Y25400D03*
X169300Y25400D03*
D16*
X67310Y10820D03*
X67310Y29820D03*
D23*
X96520Y33900D03*
X96520Y16900D03*
D13*
X118500Y3810D03*
X135500Y3810D03*
X130420Y20320D03*
X113420Y20320D03*
D24*
X17000Y258000D03*
X8000Y390000D03*
D25*
X148000Y274000D03*
X148000Y334000D03*
D26*
X46000Y267000D03*
X46000Y278000D03*
X42000Y289000D03*
X46000Y300000D03*
X42000Y311000D03*
X46000Y322000D03*
X50000Y333000D03*
X46000Y344000D03*
M02*
