G04 EAGLE Gerber RS-274X export*
G75*
%MOMM*%
%FSLAX34Y34*%
%LPD*%
%INSoldermask Bottom*%
%IPPOS*%
%AMOC8*
5,1,8,0,0,1.08239X$1,22.5*%
G01*
%ADD10C,2.641600*%
%ADD11R,0.851600X0.351600*%
%ADD12R,0.351600X0.851600*%
%ADD13R,4.801600X4.801600*%
%ADD14R,1.201600X1.101600*%
%ADD15R,2.001600X1.201600*%
%ADD16R,1.401600X1.601600*%
%ADD17R,1.601600X1.401600*%
%ADD18R,0.376600X0.351600*%
%ADD19R,0.351600X0.376600*%
%ADD20R,1.001600X0.951600*%
%ADD21R,0.951600X1.001600*%
%ADD22R,0.551600X0.351600*%
%ADD23R,0.351600X0.551600*%
%ADD24R,1.609600X1.609600*%
%ADD25C,1.609600*%
%ADD26C,1.879600*%
%ADD27C,1.309600*%
%ADD28C,1.151600*%
%ADD29R,1.101600X1.201600*%
%ADD30R,2.001600X1.501600*%
%ADD31R,1.501600X1.901600*%
%ADD32R,1.601600X0.801600*%


D10*
X19050Y5080D03*
X322580Y208280D03*
X322580Y5080D03*
X17780Y424180D03*
X322580Y424180D03*
D11*
X213820Y177360D03*
X213820Y172360D03*
X213820Y167360D03*
X213820Y162360D03*
X213820Y157360D03*
X213820Y152360D03*
X213820Y147360D03*
X213820Y142360D03*
X213820Y137360D03*
X213820Y132360D03*
X213820Y127360D03*
D12*
X206570Y115110D03*
X201570Y115110D03*
X196570Y115110D03*
X191570Y115110D03*
X186570Y115110D03*
X181570Y115110D03*
X176570Y115110D03*
X171570Y115110D03*
X166570Y115110D03*
X161570Y115110D03*
X156570Y115110D03*
D11*
X144320Y122360D03*
X144320Y127360D03*
X144320Y132360D03*
X144320Y137360D03*
X144320Y142360D03*
X144320Y147360D03*
X144320Y152360D03*
X144320Y157360D03*
X144320Y162360D03*
X144320Y167360D03*
X144320Y172360D03*
D12*
X151570Y184610D03*
X156570Y184610D03*
X161570Y184610D03*
X166570Y184610D03*
X171570Y184610D03*
X176570Y184610D03*
X181570Y184610D03*
X186570Y184610D03*
X191570Y184610D03*
X196570Y184610D03*
X201570Y184610D03*
D13*
X179070Y149860D03*
D11*
X213820Y122360D03*
D12*
X151570Y115110D03*
D11*
X144320Y177360D03*
D12*
X206570Y184610D03*
D14*
X272170Y215900D03*
X289170Y215900D03*
X274710Y172720D03*
X291710Y172720D03*
X274710Y154940D03*
X291710Y154940D03*
D15*
X254000Y164400D03*
X254000Y140400D03*
D16*
X73000Y50800D03*
X54000Y50800D03*
D14*
X272170Y189230D03*
X289170Y189230D03*
X273440Y135890D03*
X290440Y135890D03*
D17*
X273050Y28600D03*
X273050Y47600D03*
D18*
X195700Y43300D03*
X195700Y48300D03*
X195700Y53300D03*
X195700Y58300D03*
D19*
X200700Y58300D03*
X205700Y58300D03*
D18*
X210700Y58300D03*
X210700Y53300D03*
X210700Y48300D03*
X210700Y43300D03*
D19*
X205700Y43300D03*
X200700Y43300D03*
D20*
X254000Y108500D03*
X254000Y120100D03*
D21*
X222800Y25400D03*
X234400Y25400D03*
D22*
X140650Y43300D03*
X140650Y48300D03*
X140650Y53300D03*
X140650Y58300D03*
D23*
X147400Y60050D03*
X152400Y60050D03*
X157400Y60050D03*
D22*
X164150Y58300D03*
X164150Y53300D03*
X164150Y48300D03*
X164150Y43300D03*
D23*
X157400Y41550D03*
X152400Y41550D03*
X147400Y41550D03*
D24*
X12700Y50800D03*
D25*
X12700Y76200D03*
D26*
X25400Y228600D03*
X50800Y228600D03*
X76200Y228600D03*
X101600Y228600D03*
X127000Y228600D03*
X152400Y228600D03*
X177800Y228600D03*
X203200Y228600D03*
D24*
X241300Y184150D03*
D25*
X241300Y209550D03*
D26*
X125730Y114300D03*
D14*
X186300Y25400D03*
X169300Y25400D03*
D27*
X22550Y177110D02*
X10470Y177110D01*
X10470Y122610D02*
X22550Y122610D01*
D28*
X41560Y174110D02*
X52060Y174110D01*
X52060Y125610D02*
X41560Y125610D01*
D26*
X317500Y63500D03*
X317500Y88900D03*
X317500Y114300D03*
X317500Y139700D03*
D17*
X67310Y10820D03*
X67310Y29820D03*
D29*
X96520Y33900D03*
X96520Y16900D03*
D14*
X118500Y3810D03*
X135500Y3810D03*
X130420Y20320D03*
X113420Y20320D03*
D30*
X17000Y258000D03*
X8000Y390000D03*
D31*
X148000Y274000D03*
X148000Y334000D03*
D32*
X46000Y267000D03*
X46000Y278000D03*
X42000Y289000D03*
X46000Y300000D03*
X42000Y311000D03*
X46000Y322000D03*
X50000Y333000D03*
X46000Y344000D03*
D26*
X215900Y0D03*
X113030Y58420D03*
M02*
